Ubuntu-MediumItalic.ufo
<glyph name="exclam" format="2">
  <advance width="271.54"/>
  <unicode hex="0021"/>
  <outline>
    <contour>
      <point x="143.7" y="218.28" type="curve"/>
      <point x="231.18" y="218.28" type="line"/>
      <point x="263.78" y="304.76"/>
      <point x="298.9" y="422.65999999999997"/>
      <point x="320.46" y="508.9" type="curve" smooth="yes"/>
      <point x="364.48" y="693.0" type="line"/>
      <point x="235.74" y="693.0" type="line"/>
      <point x="191.72" y="509.24" type="line" smooth="yes"/>
      <point x="166.38" y="399.54"/>
      <point x="154.36" y="311.56"/>
    </contour>
    <contour>
      <point x="148.74" y="-12.66" type="curve" smooth="yes"/>
      <point x="194.64" y="-12.66"/>
      <point x="234.12" y="25.94"/>
      <point x="234.12" y="76.06" type="curve" smooth="yes"/>
      <point x="234.12" y="120.86"/>
      <point x="205.92000000000002" y="145.84"/>
      <point x="163.0" y="145.84" type="curve" smooth="yes"/>
      <point x="117.1" y="145.84"/>
      <point x="77.62" y="107.24000000000001"/>
      <point x="77.62" y="57.120000000000005" type="curve" smooth="yes"/>
      <point x="77.62" y="12.32"/>
      <point x="105.82" y="-12.66"/>
    </contour>
  </outline>
</glyph>
<glyph name="numbersign" format="2">
  <advance width="647.42"/>
  <unicode hex="0023"/>
  <outline>
    <contour>
      <point x="77.84" y="0.0" type="line"/>
      <point x="183.4" y="0.0" type="line"/>
      <point x="257.8" y="176.46" type="line"/>
      <point x="390.56" y="176.46" type="line"/>
      <point x="316.16" y="0.0" type="line"/>
      <point x="421.72" y="0.0" type="line"/>
      <point x="496.12" y="176.46" type="line"/>
      <point x="631.54" y="176.46" type="line"/>
      <point x="654.78" y="270.72" type="line"/>
      <point x="535.62" y="270.72" type="line"/>
      <point x="599.2" y="421.94" type="line"/>
      <point x="690.9" y="421.94" type="line"/>
      <point x="714.14" y="516.2" type="line"/>
      <point x="638.7" y="516.2" type="line"/>
      <point x="714.1" y="693.0" type="line"/>
      <point x="608.54" y="693.0" type="line"/>
      <point x="533.14" y="516.2" type="line"/>
      <point x="401.06" y="516.2" type="line"/>
      <point x="476.46" y="693.0" type="line"/>
      <point x="370.9" y="693.0" type="line"/>
      <point x="295.5" y="516.2" type="line"/>
      <point x="159.04" y="516.2" type="line"/>
      <point x="136.14" y="421.94" type="line"/>
      <point x="256.0" y="421.94" type="line"/>
      <point x="192.08" y="270.72" type="line"/>
      <point x="99.68" y="270.72" type="line"/>
      <point x="76.78" y="176.46" type="line"/>
      <point x="152.24" y="176.46" type="line"/>
    </contour>
    <contour>
      <point x="297.64" y="270.72" type="line"/>
      <point x="361.22" y="421.94" type="line"/>
      <point x="493.64" y="421.94" type="line"/>
      <point x="430.06" y="270.72" type="line"/>
    </contour>
  </outline>
</glyph>
<glyph name="dollar" format="2">
  <advance width="566.64"/>
  <unicode hex="0024"/>
  <outline>
    <contour>
      <point x="199.6" y="-109.0" type="line"/>
      <point x="302.82" y="-109.0" type="line"/>
      <point x="332.84" y="15.42" type="line"/>
      <point x="457.16" y="28.759999999999998"/>
      <point x="541.5" y="94.12"/>
      <point x="541.5" y="214.04" type="curve" smooth="yes"/>
      <point x="541.5" y="316.4"/>
      <point x="465.76" y="356.28"/>
      <point x="392.48" y="393.58" type="curve" smooth="yes"/>
      <point x="332.6" y="422.52"/>
      <point x="306.78" y="445.22"/>
      <point x="306.78" y="488.02" type="curve" smooth="yes"/>
      <point x="306.78" y="544.24"/>
      <point x="362.94" y="569.66"/>
      <point x="430.14" y="569.66" type="curve" smooth="yes"/>
      <point x="485.3" y="569.66"/>
      <point x="534.22" y="552.94"/>
      <point x="562.76" y="531.38" type="curve"/>
      <point x="613.24" y="620.04" type="line"/>
      <point x="587.94" y="636.36"/>
      <point x="542.56" y="656.7"/>
      <point x="488.16" y="664.98" type="curve"/>
      <point x="515.82" y="776.0" type="line"/>
      <point x="412.26" y="776.0" type="line"/>
      <point x="384.92" y="665.26" type="line"/>
      <point x="251.74" y="649.26"/>
      <point x="187.36" y="572.74"/>
      <point x="187.36" y="480.34" type="curve" smooth="yes"/>
      <point x="187.36" y="403.52"/>
      <point x="231.86" y="347.08"/>
      <point x="308.36" y="309.18" type="curve" smooth="yes"/>
      <point x="374.62" y="276.56"/>
      <point x="421.4" y="255.22"/>
      <point x="421.4" y="205.06" type="curve" smooth="yes"/>
      <point x="421.4" y="129.84"/>
      <point x="348.86" y="112.0"/>
      <point x="280.98" y="112.0" type="curve" smooth="yes"/>
      <point x="212.22" y="112.0"/>
      <point x="154.96" y="140.34"/>
      <point x="129.34" y="158.62" type="curve"/>
      <point x="78.2" y="67.66" type="line"/>
      <point x="101.52" y="51.0"/>
      <point x="162.36" y="23.66"/>
      <point x="230.28" y="17.08" type="curve"/>
    </contour>
  </outline>
</glyph>
<glyph name="ampersand" format="2">
  <advance width="653.14"/>
  <unicode hex="0026"/>
  <outline>
    <contour>
      <point x="282.88" y="-9.0" type="curve" smooth="yes"/>
      <point x="364.9" y="-9.0"/>
      <point x="440.62" y="17.759999999999998"/>
      <point x="505.66" y="67.56" type="curve"/>
      <point x="520.06" y="44.16"/>
      <point x="532.78" y="21.42"/>
      <point x="541.8" y="0.0" type="curve"/>
      <point x="664.58" y="0.0" type="line"/>
      <point x="642.26" y="49.36"/>
      <point x="616.6" y="95.96"/>
      <point x="583.64" y="142.58" type="curve"/>
      <point x="624.0" y="192.58"/>
      <point x="658.7" y="253.92"/>
      <point x="687.02" y="326.24" type="curve"/>
      <point x="580.16" y="339.84" type="line"/>
      <point x="562.76" y="294.06"/>
      <point x="543.34" y="255.64"/>
      <point x="521.58" y="224.56" type="curve"/>
      <point x="421.6" y="359.68" type="line"/>
      <point x="449.08" y="372.6" type="line" smooth="yes"/>
      <point x="565.14" y="426.14"/>
      <point x="607.04" y="505.38"/>
      <point x="607.04" y="572.74" type="curve" smooth="yes"/>
      <point x="607.04" y="646.72"/>
      <point x="550.4" y="708.66"/>
      <point x="446.64" y="708.66" type="curve" smooth="yes"/>
      <point x="314.1" y="708.66"/>
      <point x="231.16" y="624.32"/>
      <point x="231.16" y="517.68" type="curve" smooth="yes"/>
      <point x="231.16" y="475.32"/>
      <point x="243.84" y="429.96"/>
      <point x="272.2" y="384.94" type="curve"/>
      <point x="258.94" y="378.64" type="line"/>
      <point x="134.1" y="322.9"/>
      <point x="86.12" y="251.56"/>
      <point x="86.12" y="157.0" type="curve" smooth="yes"/>
      <point x="86.12" y="70.96"/>
      <point x="151.42" y="-9.0"/>
    </contour>
    <contour>
      <point x="297.12" y="87.96000000000001" type="curve" smooth="yes"/>
      <point x="233.22" y="87.96000000000001"/>
      <point x="206.24" y="132.46"/>
      <point x="206.24" y="178.86" type="curve" smooth="yes"/>
      <point x="206.24" y="235.86"/>
      <point x="249.62" y="280.84"/>
      <point x="310.72" y="308.56" type="curve"/>
      <point x="323.34" y="314.54" type="line"/>
      <point x="450.54" y="145.24" type="line"/>
      <point x="395.8" y="102.76"/>
      <point x="341.98" y="87.96000000000001"/>
    </contour>
    <contour>
      <point x="370.8" y="428.74" type="line"/>
      <point x="350.4" y="460.46"/>
      <point x="339.7" y="491.28"/>
      <point x="339.7" y="517.76" type="curve" smooth="yes"/>
      <point x="339.7" y="580.48"/>
      <point x="380.36" y="619.66"/>
      <point x="436.68" y="619.66" type="curve" smooth="yes"/>
      <point x="477.7" y="619.66"/>
      <point x="501.48" y="595.64"/>
      <point x="501.48" y="561.8" type="curve" smooth="yes"/>
      <point x="501.48" y="512.76"/>
      <point x="469.58" y="472.6"/>
      <point x="380.76" y="433.06" type="curve"/>
    </contour>
  </outline>
</glyph>
<glyph name="quotesingle" format="2">
  <advance width="250.88"/>
  <unicode hex="0027"/>
  <outline>
    <contour>
      <point x="186.12" y="483.68" type="curve"/>
      <point x="262.68" y="483.68" type="line"/>
      <point x="292.66" y="556.26"/>
      <point x="320.94" y="633.56"/>
      <point x="336.62" y="698.24" type="curve" smooth="yes"/>
      <point x="351.56" y="760.0" type="line"/>
      <point x="230.74" y="760.0" type="line"/>
      <point x="215.8" y="699.24" type="line" smooth="yes"/>
      <point x="200.12" y="633.56"/>
      <point x="191.12" y="557.28"/>
    </contour>
  </outline>
</glyph>
<glyph name="parenleft" format="2">
  <advance width="337.64"/>
  <unicode hex="0028"/>
  <outline>
    <contour>
      <point x="187.06" y="-182.96" type="curve"/>
      <point x="276.66" y="-129.22" type="line"/>
      <point x="241.32" y="-43.519999999999996"/>
      <point x="225.64" y="44.6"/>
      <point x="225.64" y="131.68" type="curve" smooth="yes"/>
      <point x="225.64" y="349.72"/>
      <point x="329.26" y="562.88"/>
      <point x="491.82" y="727.56" type="curve"/>
      <point x="413.16" y="783.0" type="line"/>
      <point x="226.74" y="614.94"/>
      <point x="108.2" y="371.28"/>
      <point x="108.2" y="132.62" type="curve" smooth="yes"/>
      <point x="108.2" y="22.66"/>
      <point x="132.84" y="-82.62"/>
    </contour>
  </outline>
</glyph>
<glyph name="parenright" format="2">
  <advance width="337.64"/>
  <unicode hex="0029"/>
  <outline>
    <contour>
      <point x="55.34" y="-184.68" type="line"/>
      <point x="241.76" y="-16.96"/>
      <point x="360.3" y="227.04"/>
      <point x="360.3" y="466.04" type="curve" smooth="yes"/>
      <point x="360.3" y="576.34"/>
      <point x="335.66" y="681.62"/>
      <point x="281.1" y="782.3" type="curve"/>
      <point x="190.82" y="729.24" type="line"/>
      <point x="226.84" y="642.86"/>
      <point x="242.86" y="553.38"/>
      <point x="242.86" y="465.62" type="curve" smooth="yes"/>
      <point x="242.86" y="246.54"/>
      <point x="139.22" y="33.78"/>
      <point x="-23.32" y="-129.24" type="curve"/>
    </contour>
  </outline>
</glyph>
<glyph name="asterisk" format="2">
  <advance width="477.52"/>
  <unicode hex="002A"/>
  <outline>
    <contour>
      <point x="263.44" y="302.2" type="line"/>
      <point x="300.76" y="353.92"/>
      <point x="315.5" y="390.94"/>
      <point x="337.26" y="450.26" type="curve"/>
      <point x="358.68" y="391.6"/>
      <point x="373.42" y="353.26"/>
      <point x="410.74" y="302.2" type="curve"/>
      <point x="500.08" y="364.96" type="line"/>
      <point x="459.44" y="420.62"/>
      <point x="435.02" y="439.74"/>
      <point x="379.4" y="480.78" type="curve"/>
      <point x="449.02" y="482.82"/>
      <point x="474.56" y="480.88"/>
      <point x="543.5" y="503.9" type="curve"/>
      <point x="509.62" y="607.5" type="line"/>
      <point x="451.26" y="588.82"/>
      <point x="413.9" y="565.84"/>
      <point x="364.16" y="530.9" type="curve"/>
      <point x="383.4" y="595.88"/>
      <point x="392.06" y="624.36"/>
      <point x="392.06" y="693.0" type="curve"/>
      <point x="282.46" y="693.0" type="line"/>
      <point x="282.46" y="625.02"/>
      <point x="290.46" y="597.2"/>
      <point x="310.36" y="530.9" type="curve"/>
      <point x="260.62" y="565.84"/>
      <point x="223.26" y="588.82"/>
      <point x="164.9" y="607.5" type="curve"/>
      <point x="131.02" y="503.9" type="line"/>
      <point x="199.62" y="480.88"/>
      <point x="225.16" y="482.82"/>
      <point x="294.78" y="480.78" type="curve"/>
      <point x="240.82" y="440.4"/>
      <point x="215.08" y="421.28"/>
      <point x="174.44" y="364.96" type="curve" smooth="yes"/>
    </contour>
  </outline>
</glyph>
<glyph name="plus" format="2">
  <advance width="566.64"/>
  <unicode hex="002B"/>
  <outline>
    <contour>
      <point x="234.66" y="48.28" type="line"/>
      <point x="344.14" y="48.28" type="line"/>
      <point x="391.2" y="244.5" type="line"/>
      <point x="565.68" y="244.5" type="line"/>
      <point x="590.9" y="346.04" type="line"/>
      <point x="416.08" y="346.04" type="line"/>
      <point x="463.14" y="541.92" type="line"/>
      <point x="353.32" y="541.92" type="line"/>
      <point x="306.26" y="346.04" type="line"/>
      <point x="131.44" y="346.04" type="line"/>
      <point x="106.22" y="244.5" type="line"/>
      <point x="281.38" y="244.5" type="line"/>
    </contour>
  </outline>
</glyph>
<glyph name="comma" format="2">
  <advance width="246.58"/>
  <unicode hex="002C"/>
  <outline>
    <contour>
      <point x="83.36" y="-160.96" type="line"/>
      <point x="153.22" y="-76.52"/>
      <point x="212.18" y="26.14"/>
      <point x="220.26" y="132.62" type="curve"/>
      <point x="93.5" y="132.62" type="line"/>
      <point x="86.5" y="45.28"/>
      <point x="49.84" y="-53.14"/>
      <point x="-2.1800000000000015" y="-133.66" type="curve"/>
    </contour>
  </outline>
</glyph>
<glyph name="hyphen" format="2">
  <advance width="321.24"/>
  <unicode hex="002D"/>
  <outline>
    <contour>
      <point x="75.04" y="240.18" type="line"/>
      <point x="343.96" y="240.18" type="line"/>
      <point x="370.84000000000003" y="350.7" type="line"/>
      <point x="101.92" y="350.7" type="line"/>
    </contour>
  </outline>
</glyph>
<glyph name="period" format="2">
  <advance width="248.94"/>
  <unicode hex="002E"/>
  <outline>
    <contour>
      <point x="137.24" y="-13.0" type="curve" smooth="yes"/>
      <point x="183.14" y="-13.0"/>
      <point x="222.62" y="25.6"/>
      <point x="222.62" y="75.72" type="curve" smooth="yes"/>
      <point x="222.62" y="120.52000000000001"/>
      <point x="194.42000000000002" y="145.5"/>
      <point x="151.5" y="145.5" type="curve" smooth="yes"/>
      <point x="105.6" y="145.5"/>
      <point x="66.12" y="106.9"/>
      <point x="66.12" y="56.78" type="curve" smooth="yes"/>
      <point x="66.12" y="11.98"/>
      <point x="94.32" y="-13.0"/>
    </contour>
  </outline>
</glyph>
<glyph name="slash" format="2">
  <advance width="416.28"/>
  <unicode hex="002F"/>
  <outline>
    <contour>
      <point x="-80.48" y="-185.0" type="line"/>
      <point x="41.260000000000005" y="-185.0" type="line"/>
      <point x="600.26" y="783.0" type="line"/>
      <point x="478.84" y="783.0" type="line"/>
    </contour>
  </outline>
</glyph>
<glyph name="zero" format="2">
  <advance width="566.64"/>
  <unicode hex="0030"/>
  <outline>
    <contour>
      <point x="275.34" y="-14.34" type="curve" smooth="yes"/>
      <point x="475.54" y="-14.34"/>
      <point x="611.1" y="222.1"/>
      <point x="611.1" y="502.64" type="curve" smooth="yes"/>
      <point x="611.1" y="613.12"/>
      <point x="564.8" y="708.66"/>
      <point x="440.26" y="709.0" type="curve"/>
      <point x="239.72" y="709.0"/>
      <point x="104.16" y="472.56"/>
      <point x="104.16" y="192.02" type="curve" smooth="yes"/>
      <point x="104.16" y="81.2"/>
      <point x="150.46" y="-14.34"/>
    </contour>
    <contour>
      <point x="292.22" y="90.53999999999999" type="curve" smooth="yes"/>
      <point x="242.44" y="90.53999999999999"/>
      <point x="217.7" y="126.0"/>
      <point x="217.7" y="208.94" type="curve" smooth="yes"/>
      <point x="217.7" y="361.92"/>
      <point x="293.04" y="604.78"/>
      <point x="424.36" y="604.78" type="curve" smooth="yes"/>
      <point x="473.48" y="604.78"/>
      <point x="497.56" y="568.0"/>
      <point x="497.56" y="485.72" type="curve" smooth="yes"/>
      <point x="497.56" y="332.74"/>
      <point x="422.22" y="90.53999999999999"/>
    </contour>
  </outline>
</glyph>
<glyph name="one" format="2">
  <advance width="566.64"/>
  <unicode hex="0031"/>
  <outline>
    <contour>
      <point x="270.36" y="0.0" type="line"/>
      <point x="390.46" y="0.0" type="line"/>
      <point x="557.12" y="693.0" type="line"/>
      <point x="472.16" y="693.0" type="line"/>
      <point x="398.8" y="627.58"/>
      <point x="301.65999999999997" y="579.98"/>
      <point x="219.38" y="549.34" type="curve"/>
      <point x="235.34" y="453.72" type="line"/>
      <point x="290.46" y="471.42"/>
      <point x="352.2" y="498.52"/>
      <point x="397.84" y="530.62" type="curve"/>
    </contour>
  </outline>
</glyph>
<glyph name="two" format="2">
  <advance width="566.64"/>
  <unicode hex="0032"/>
  <outline>
    <contour>
      <point x="73.94" y="0.0" type="curve"/>
      <point x="509.78" y="0.0" type="line"/>
      <point x="534.0" y="101.22" type="line"/>
      <point x="228.18" y="101.22" type="line"/>
      <point x="273.24" y="176.9"/>
      <point x="348.56" y="223.34"/>
      <point x="436.2" y="289.88" type="curve" smooth="yes"/>
      <point x="549.6800000000001" y="377.7"/>
      <point x="610.42" y="436.9"/>
      <point x="610.42" y="546.38" type="curve" smooth="yes"/>
      <point x="610.42" y="643.84"/>
      <point x="531.78" y="708.66"/>
      <point x="430.58" y="708.66" type="curve" smooth="yes"/>
      <point x="351.36" y="708.66"/>
      <point x="273.72" y="683.98"/>
      <point x="203.57999999999998" y="627.14" type="curve"/>
      <point x="244.72" y="536.84" type="line"/>
      <point x="299.6" y="580.1"/>
      <point x="353.7" y="604.12"/>
      <point x="408.7" y="604.12" type="curve" smooth="yes"/>
      <point x="453.82" y="604.12"/>
      <point x="487.62" y="576.08"/>
      <point x="487.62" y="527.82" type="curve" smooth="yes"/>
      <point x="487.62" y="456.2"/>
      <point x="430.72" y="411.06"/>
      <point x="320.92" y="327.24" type="curve" smooth="yes"/>
      <point x="202.07999999999998" y="237.06"/>
      <point x="98.62" y="165.28"/>
    </contour>
  </outline>
</glyph>
<glyph name="three" format="2">
  <advance width="566.64"/>
  <unicode hex="0033"/>
  <outline>
    <contour>
      <point x="254.56" y="-14.34" type="curve" smooth="yes"/>
      <point x="442.4" y="-14.34"/>
      <point x="547.04" y="91.36"/>
      <point x="547.04" y="217.02" type="curve" smooth="yes"/>
      <point x="547.04" y="290.18"/>
      <point x="507.9" y="344.06"/>
      <point x="454.96" y="368.34" type="curve"/>
      <point x="547.36" y="401.36"/>
      <point x="593.72" y="473.42"/>
      <point x="593.72" y="546.82" type="curve" smooth="yes"/>
      <point x="593.72" y="638.96"/>
      <point x="521.34" y="708.66"/>
      <point x="399.4" y="708.66" type="curve" smooth="yes"/>
      <point x="330.52" y="708.66"/>
      <point x="266.28" y="689.34"/>
      <point x="207.74" y="655.06" type="curve"/>
      <point x="237.57999999999998" y="563.46" type="line"/>
      <point x="284.46" y="589.76"/>
      <point x="336.12" y="605.1"/>
      <point x="378.82" y="605.1" type="curve" smooth="yes"/>
      <point x="431.84" y="605.1"/>
      <point x="470.92" y="583.08"/>
      <point x="470.92" y="528.94" type="curve" smooth="yes"/>
      <point x="470.92" y="455.96"/>
      <point x="403.38" y="414.16"/>
      <point x="322.56" y="414.16" type="curve" smooth="yes"/>
      <point x="266.54" y="414.16" type="line"/>
      <point x="242.64" y="317.92" type="line"/>
      <point x="289.64" y="317.92" type="line"/>
      <point x="372.8" y="316.9"/>
      <point x="425.56" y="285.84"/>
      <point x="425.56" y="220.3" type="curve" smooth="yes"/>
      <point x="425.56" y="124.42"/>
      <point x="349.42" y="85.26"/>
      <point x="260.5" y="85.26" type="curve" smooth="yes"/>
      <point x="203.22" y="85.26"/>
      <point x="145.62" y="100.88"/>
      <point x="107.3" y="126.18" type="curve"/>
      <point x="62.82" y="29.26" type="line"/>
      <point x="119.74" y="0.30000000000000027"/>
      <point x="184.68" y="-14.34"/>
    </contour>
  </outline>
</glyph>
<glyph name="four" format="2">
  <advance width="566.64"/>
  <unicode hex="0034"/>
  <outline>
    <contour>
      <point x="337.54" y="0.0" type="line"/>
      <point x="453.02" y="0.0" type="line"/>
      <point x="493.06" y="166.22" type="line"/>
      <point x="570.46" y="166.22" type="line"/>
      <point x="594.02" y="263.78" type="line"/>
      <point x="516.94" y="263.78" type="line"/>
      <point x="620.32" y="693.0" type="line"/>
      <point x="504.5" y="693.0" type="line"/>
      <point x="349.38" y="569.26"/>
      <point x="180.74" y="377.92"/>
      <point x="96.42" y="252.08" type="curve"/>
      <point x="76.52" y="166.22" type="line"/>
      <point x="376.92" y="166.22" type="line"/>
    </contour>
    <contour>
      <point x="216.3" y="263.78" type="line"/>
      <point x="286.08" y="364.8"/>
      <point x="388.04" y="474.46"/>
      <point x="470.98" y="547.6" type="curve"/>
      <point x="402.78" y="263.78" type="line"/>
    </contour>
  </outline>
</glyph>
<glyph name="five" format="2">
  <advance width="566.64"/>
  <unicode hex="0035"/>
  <outline>
    <contour>
      <point x="263.14" y="-14.34" type="curve" smooth="yes"/>
      <point x="439.82" y="-14.34"/>
      <point x="550.7" y="77.22"/>
      <point x="550.7" y="231.3" type="curve" smooth="yes"/>
      <point x="550.7" y="341.76"/>
      <point x="470.9" y="418.26"/>
      <point x="319.38" y="430.92" type="curve"/>
      <point x="334.1" y="472.08"/>
      <point x="355.52" y="539.7"/>
      <point x="370.22" y="591.78" type="curve"/>
      <point x="616.2" y="591.78" type="line"/>
      <point x="640.42" y="693.0" type="line"/>
      <point x="293.54" y="693.0" type="line"/>
      <point x="262.88" y="578.62"/>
      <point x="226.3" y="464.6"/>
      <point x="182.98" y="342.3" type="curve"/>
      <point x="327.46" y="341.28"/>
      <point x="429.22" y="313.54"/>
      <point x="429.22" y="221.32" type="curve" smooth="yes"/>
      <point x="429.22" y="131.38"/>
      <point x="359.2" y="88.56"/>
      <point x="259.8" y="88.56" type="curve" smooth="yes"/>
      <point x="211.48" y="88.56"/>
      <point x="158.54" y="102.53999999999999"/>
      <point x="114.26" y="128.84" type="curve"/>
      <point x="68.78" y="28.92" type="line"/>
      <point x="126.72" y="-0.6999999999999997"/>
      <point x="206.82" y="-14.34"/>
    </contour>
  </outline>
</glyph>
<glyph name="six" format="2">
  <advance width="566.64"/>
  <unicode hex="0036"/>
  <outline>
    <contour>
      <point x="319.56" y="-14.34" type="curve" smooth="yes"/>
      <point x="455.1" y="-14.34"/>
      <point x="577.46" y="81.0"/>
      <point x="577.46" y="251.64" type="curve" smooth="yes"/>
      <point x="577.46" y="365.78"/>
      <point x="507.32" y="430.5"/>
      <point x="400.84" y="430.5" type="curve" smooth="yes"/>
      <point x="355.74" y="430.5"/>
      <point x="303.7" y="419.78"/>
      <point x="263.6" y="398.74" type="curve"/>
      <point x="321.92" y="539.48"/>
      <point x="446.62" y="595.38"/>
      <point x="621.82" y="600.04" type="curve"/>
      <point x="636.08" y="697.98" type="line"/>
      <point x="334.14" y="709.48"/>
      <point x="111.8" y="509.2"/>
      <point x="111.8" y="216.74" type="curve" smooth="yes"/>
      <point x="111.8" y="64.88"/>
      <point x="203.04" y="-14.34"/>
    </contour>
    <contour>
      <point x="326.8" y="86.88" type="curve" smooth="yes"/>
      <point x="265.46" y="86.88"/>
      <point x="228.3" y="136.82"/>
      <point x="228.3" y="214.76" type="curve" smooth="yes"/>
      <point x="228.3" y="246.52"/>
      <point x="232.3" y="277.96"/>
      <point x="241.64" y="307.72" type="curve"/>
      <point x="276.08" y="323.12"/>
      <point x="320.24" y="336.18"/>
      <point x="360.38" y="336.18" type="curve" smooth="yes"/>
      <point x="421.98" y="336.18"/>
      <point x="459.94" y="307.34"/>
      <point x="459.94" y="240.96" type="curve" smooth="yes"/>
      <point x="459.94" y="145.4"/>
      <point x="402.36" y="86.88"/>
    </contour>
  </outline>
</glyph>
<glyph name="seven" format="2">
  <advance width="566.64"/>
  <unicode hex="0037"/>
  <outline>
    <contour>
      <point x="147.57999999999998" y="0.0" type="curve"/>
      <point x="270.7" y="0.0" type="line"/>
      <point x="340.1" y="246.34"/>
      <point x="540.12" y="507.14"/>
      <point x="647.92" y="602.0" type="curve"/>
      <point x="669.84" y="693.0" type="line"/>
      <point x="210.34" y="693.0" type="line"/>
      <point x="185.46" y="589.44" type="line"/>
      <point x="500.06" y="589.44" type="line"/>
      <point x="368.26" y="463.2"/>
      <point x="204.01999999999998" y="205.16"/>
    </contour>
  </outline>
</glyph>
<glyph name="eight" format="2">
  <advance width="566.64"/>
  <unicode hex="0038"/>
  <outline>
    <contour>
      <point x="295.12" y="-14.34" type="curve" smooth="yes"/>
      <point x="455.56" y="-14.34"/>
      <point x="559.42" y="76.54"/>
      <point x="559.42" y="203.0" type="curve" smooth="yes"/>
      <point x="559.42" y="271.2"/>
      <point x="524.46" y="315.6"/>
      <point x="473.68" y="348.28" type="curve"/>
      <point x="594.36" y="407.28"/>
      <point x="620.14" y="484.66"/>
      <point x="620.14" y="549.12" type="curve" smooth="yes"/>
      <point x="620.14" y="648.78"/>
      <point x="541.58" y="708.66"/>
      <point x="434.68" y="708.66" type="curve" smooth="yes"/>
      <point x="282.65999999999997" y="708.66"/>
      <point x="192.4" y="607.88"/>
      <point x="192.4" y="490.98" type="curve" smooth="yes"/>
      <point x="192.4" y="435.32"/>
      <point x="219.44" y="395.6"/>
      <point x="254.5" y="366.64" type="curve"/>
      <point x="135.98" y="300.32"/>
      <point x="95.04" y="228.82"/>
      <point x="95.04" y="148.84" type="curve" smooth="yes"/>
      <point x="95.04" y="30.02"/>
      <point x="198.16" y="-14.34"/>
    </contour>
    <contour>
      <point x="307.42" y="83.24000000000001" type="curve" smooth="yes"/>
      <point x="255.32" y="83.24000000000001"/>
      <point x="212.88" y="109.64"/>
      <point x="212.88" y="166.5" type="curve" smooth="yes"/>
      <point x="212.88" y="213.92"/>
      <point x="238.7" y="272.44"/>
      <point x="330.88" y="317.54" type="curve"/>
      <point x="388.68" y="289.52"/>
      <point x="440.92" y="261.52"/>
      <point x="440.92" y="197.98" type="curve" smooth="yes"/>
      <point x="440.92" y="127.08"/>
      <point x="376.34" y="83.24000000000001"/>
    </contour>
    <contour>
      <point x="394.0" y="394.74" type="curve"/>
      <point x="348.16" y="417.74"/>
      <point x="305.94" y="446.1"/>
      <point x="305.94" y="497.94" type="curve" smooth="yes"/>
      <point x="305.94" y="565.98"/>
      <point x="354.88" y="611.08"/>
      <point x="419.74" y="611.08" type="curve" smooth="yes"/>
      <point x="473.88" y="611.08"/>
      <point x="505.28" y="583.02"/>
      <point x="505.28" y="532.2" type="curve" smooth="yes"/>
      <point x="505.28" y="484.32"/>
      <point x="477.46" y="435.5"/>
    </contour>
  </outline>
</glyph>
<glyph name="nine" format="2">
  <advance width="566.64"/>
  <unicode hex="0039"/>
  <outline>
    <contour>
      <point x="115.98" y="-3.3200000000000003" type="curve" smooth="yes"/>
      <point x="443.6" y="-3.3200000000000003"/>
      <point x="610.46" y="229.3"/>
      <point x="610.46" y="479.94" type="curve" smooth="yes"/>
      <point x="610.46" y="635.88"/>
      <point x="518.2" y="709.32"/>
      <point x="404.74" y="709.32" type="curve" smooth="yes"/>
      <point x="267.84" y="709.32"/>
      <point x="146.16" y="613.64"/>
      <point x="146.16" y="441.3" type="curve" smooth="yes"/>
      <point x="146.16" y="329.54"/>
      <point x="216.3" y="264.48"/>
      <point x="324.48" y="264.48" type="curve" smooth="yes"/>
      <point x="361.42" y="264.48"/>
      <point x="414.48" y="273.84"/>
      <point x="458.65999999999997" y="296.24" type="curve"/>
      <point x="401.34" y="153.76"/>
      <point x="274.62" y="94.88"/>
      <point x="96.7" y="94.94" type="curve"/>
      <point x="80.74" y="-2.3200000000000003" type="line"/>
      <point x="93.7" y="-3.3200000000000003"/>
      <point x="106.68" y="-3.3200000000000003"/>
    </contour>
    <contour>
      <point x="361.88" y="358.8" type="curve" smooth="yes"/>
      <point x="301.64" y="358.8"/>
      <point x="263.68" y="389.0"/>
      <point x="263.68" y="451.64" type="curve" smooth="yes"/>
      <point x="263.68" y="551.96"/>
      <point x="321.6" y="608.1"/>
      <point x="396.82" y="608.1" type="curve" smooth="yes"/>
      <point x="461.22" y="608.1"/>
      <point x="493.96" y="556.46"/>
      <point x="493.96" y="482.6" type="curve" smooth="yes"/>
      <point x="493.96" y="449.48"/>
      <point x="489.62" y="417.36"/>
      <point x="480.28" y="386.92" type="curve"/>
      <point x="440.4" y="369.14"/>
      <point x="398.62" y="358.8"/>
    </contour>
  </outline>
</glyph>
<glyph name="less" format="2">
  <advance width="566.64"/>
  <unicode hex="003C"/>
  <outline>
    <contour>
      <point x="482.04" y="68.24" type="line"/>
      <point x="534.5" y="159.86" type="line"/>
      <point x="237.92000000000002" y="296.64" type="line"/>
      <point x="601.26" y="426.84" type="line"/>
      <point x="592.96" y="529.42" type="line"/>
      <point x="125.08" y="349.78" type="line"/>
      <point x="102.5" y="252.84" type="line"/>
    </contour>
  </outline>
</glyph>
<glyph name="equal" format="2">
  <advance width="566.64"/>
  <unicode hex="003D"/>
  <outline>
    <contour>
      <point x="136.18" y="355.54" type="line"/>
      <point x="595.64" y="355.54" type="line"/>
      <point x="619.86" y="457.08" type="line"/>
      <point x="160.74" y="457.08" type="line"/>
    </contour>
    <contour>
      <point x="84.2" y="139.6" type="line"/>
      <point x="543.66" y="139.6" type="line"/>
      <point x="567.88" y="241.14" type="line"/>
      <point x="108.76" y="241.14" type="line"/>
    </contour>
  </outline>
</glyph>
<glyph name="greater" format="2">
  <advance width="566.64"/>
  <unicode hex="003E"/>
  <outline>
    <contour>
      <point x="89.9" y="68.24" type="line"/>
      <point x="557.78" y="247.88" type="line"/>
      <point x="580.36" y="344.82" type="line"/>
      <point x="200.82" y="529.42" type="line"/>
      <point x="148.36" y="438.46" type="line"/>
      <point x="444.94" y="301.68" type="line"/>
      <point x="81.6" y="171.48" type="line"/>
    </contour>
  </outline>
</glyph>
<glyph name="question" format="2">
  <advance width="407.9"/>
  <unicode hex="003F"/>
  <outline>
    <contour>
      <point x="166.92" y="218.28" type="curve"/>
      <point x="272.74" y="218.28" type="line"/>
      <point x="275.38" y="275.78"/>
      <point x="324.82" y="315.86"/>
      <point x="379.22" y="358.6" type="curve" smooth="yes"/>
      <point x="446.86" y="411.26"/>
      <point x="521.78" y="462.28"/>
      <point x="521.78" y="567.08" type="curve" smooth="yes"/>
      <point x="521.78" y="664.76"/>
      <point x="441.22" y="708.66"/>
      <point x="351.0" y="708.66" type="curve" smooth="yes"/>
      <point x="289.46" y="708.66"/>
      <point x="224.92" y="691.04"/>
      <point x="177.0" y="665.44" type="curve"/>
      <point x="192.26" y="569.52" type="line"/>
      <point x="226.24" y="587.16"/>
      <point x="281.16" y="605.78"/>
      <point x="327.78" y="605.78" type="curve" smooth="yes"/>
      <point x="368.86" y="605.78"/>
      <point x="401.62" y="589.42"/>
      <point x="401.62" y="546.6" type="curve" smooth="yes"/>
      <point x="401.62" y="503.84"/>
      <point x="371.0" y="473.44"/>
      <point x="294.04" y="414.48" type="curve" smooth="yes"/>
      <point x="222.26" y="358.38"/>
      <point x="167.6" y="306.04"/>
    </contour>
    <contour>
      <point x="192.42000000000002" y="-12.66" type="curve" smooth="yes"/>
      <point x="238.32" y="-12.66"/>
      <point x="277.8" y="25.94"/>
      <point x="277.8" y="76.06" type="curve" smooth="yes"/>
      <point x="277.8" y="120.86"/>
      <point x="249.6" y="145.84"/>
      <point x="206.68" y="145.84" type="curve" smooth="yes"/>
      <point x="160.78" y="145.84"/>
      <point x="121.3" y="107.24000000000001"/>
      <point x="121.3" y="57.120000000000005" type="curve" smooth="yes"/>
      <point x="121.3" y="12.32"/>
      <point x="149.5" y="-12.66"/>
    </contour>
  </outline>
</glyph>
<glyph name="at" format="2">
  <advance width="936.58"/>
  <unicode hex="0040"/>
  <outline>
    <contour>
      <point x="470.86" y="-160.26" type="curve" smooth="yes"/>
      <point x="519.82" y="-160.26"/>
      <point x="577.4" y="-153.26"/>
      <point x="631.36" y="-141.58" type="curve"/>
      <point x="637.02" y="-57.54" type="line"/>
      <point x="588.0" y="-67.56"/>
      <point x="531.1" y="-74.88"/>
      <point x="485.46" y="-74.88" type="curve" smooth="yes"/>
      <point x="325.62" y="-74.88"/>
      <point x="205.78" y="-2.58"/>
      <point x="205.78" y="182.7" type="curve" smooth="yes"/>
      <point x="205.78" y="477.76"/>
      <point x="413.84" y="629.88"/>
      <point x="615.34" y="629.88" type="curve" smooth="yes"/>
      <point x="762.52" y="629.88"/>
      <point x="871.82" y="555.78"/>
      <point x="871.82" y="385.76" type="curve" smooth="yes"/>
      <point x="871.82" y="253.9"/>
      <point x="821.84" y="129.84"/>
      <point x="732.44" y="129.84" type="curve" smooth="yes"/>
      <point x="703.66" y="129.84"/>
      <point x="692.42" y="141.22"/>
      <point x="692.42" y="160.82" type="curve" smooth="yes"/>
      <point x="692.42" y="168.2"/>
      <point x="693.46" y="175.58"/>
      <point x="696.12" y="183.94" type="curve"/>
      <point x="768.48" y="482.66" type="line"/>
      <point x="736.9" y="495.62"/>
      <point x="685.54" y="511.6"/>
      <point x="611.64" y="511.6" type="curve" smooth="yes"/>
      <point x="418.92" y="511.6"/>
      <point x="311.56" y="361.24"/>
      <point x="311.56" y="217.0" type="curve" smooth="yes"/>
      <point x="311.56" y="105.02"/>
      <point x="375.94" y="37.519999999999996"/>
      <point x="477.54" y="37.519999999999996" type="curve" smooth="yes"/>
      <point x="526.16" y="37.519999999999996"/>
      <point x="570.2" y="51.56"/>
      <point x="611.76" y="76.52" type="curve"/>
      <point x="628.7" y="51.86"/>
      <point x="660.02" y="38.2"/>
      <point x="695.7" y="38.2" type="curve" smooth="yes"/>
      <point x="862.76" y="38.2"/>
      <point x="969.14" y="192.58"/>
      <point x="969.14" y="390.96" type="curve" smooth="yes"/>
      <point x="969.14" y="612.26"/>
      <point x="814.72" y="714.6"/>
      <point x="628.32" y="714.6" type="curve" smooth="yes"/>
      <point x="357.32" y="714.6"/>
      <point x="106.12" y="523.96"/>
      <point x="106.12" y="177.66" type="curve" smooth="yes"/>
      <point x="106.12" y="-32.02"/>
      <point x="248.44" y="-160.26"/>
    </contour>
    <contour>
      <point x="501.32" y="128.16" type="curve" smooth="yes"/>
      <point x="447.26" y="128.16"/>
      <point x="422.14" y="160.84"/>
      <point x="422.14" y="226.96" type="curve" smooth="yes"/>
      <point x="422.14" y="322.98"/>
      <point x="482.04" y="423.28"/>
      <point x="593.1" y="423.28" type="curve" smooth="yes"/>
      <point x="614.22" y="423.28"/>
      <point x="635.38" y="420.92"/>
      <point x="644.98" y="417.92" type="curve"/>
      <point x="591.9" y="197.64" type="line" smooth="yes"/>
      <point x="588.24" y="180.68"/>
      <point x="584.9" y="167.32"/>
      <point x="584.24" y="150.54" type="curve"/>
      <point x="559.26" y="137.88"/>
      <point x="534.9" y="128.16"/>
    </contour>
  </outline>
</glyph>
<glyph name="A" format="2">
  <advance width="682.72"/>
  <unicode hex="0041"/>
  <outline>
    <contour>
      <point x="16.7" y="0.0" type="curve"/>
      <point x="149.44" y="0.0" type="line"/>
      <point x="178.82" y="56.76"/>
      <point x="210.52" y="111.18"/>
      <point x="240.24" y="164.26" type="curve"/>
      <point x="522.68" y="164.26" type="line"/>
      <point x="528.04" y="110.16"/>
      <point x="532.4" y="55.74"/>
      <point x="536.76" y="0.0" type="curve"/>
      <point x="664.18" y="0.0" type="line"/>
      <point x="637.8" y="235.76"/>
      <point x="605.14" y="499.32"/>
      <point x="565.2" y="693.0" type="curve"/>
      <point x="448.64" y="693.0" type="line"/>
      <point x="309.64" y="496.58"/>
      <point x="177.46" y="280.66"/>
    </contour>
    <contour>
      <point x="293.38" y="264.5" type="line"/>
      <point x="352.2" y="367.06"/>
      <point x="414.36" y="465.6"/>
      <point x="478.86" y="566.16" type="curve"/>
      <point x="494.24" y="462.26"/>
      <point x="503.98" y="358.42"/>
      <point x="513.7" y="264.5" type="curve"/>
    </contour>
  </outline>
</glyph>
<glyph name="B" format="2">
  <advance width="637.26"/>
  <unicode hex="0042"/>
  <outline>
    <contour>
      <point x="293.64" y="-7.98" type="curve" smooth="yes"/>
      <point x="520.4" y="-7.98"/>
      <point x="640.54" y="87.56"/>
      <point x="640.54" y="235.96" type="curve" smooth="yes"/>
      <point x="640.54" y="292.98"/>
      <point x="609.48" y="344.38"/>
      <point x="549.46" y="367.3" type="curve"/>
      <point x="641.62" y="405.16"/>
      <point x="677.94" y="474.44"/>
      <point x="677.94" y="544.32" type="curve" smooth="yes"/>
      <point x="677.94" y="642.58"/>
      <point x="593.64" y="700.66"/>
      <point x="448.94" y="700.66" type="curve" smooth="yes"/>
      <point x="382.32" y="700.66"/>
      <point x="302.5" y="694.62"/>
      <point x="237.72" y="681.32" type="curve"/>
      <point x="77.72" y="12.34" type="line"/>
      <point x="139.94" y="-1.3000000000000003"/>
      <point x="219.42000000000002" y="-7.98"/>
    </contour>
    <contour>
      <point x="313.46" y="94.9" type="curve" smooth="yes"/>
      <point x="282.4" y="94.9"/>
      <point x="246.42000000000002" y="96.9"/>
      <point x="223.04000000000002" y="101.24000000000001" type="curve"/>
      <point x="273.18" y="312.86" type="line"/>
      <point x="387.64" y="312.86" type="line" smooth="yes"/>
      <point x="476.96" y="312.86"/>
      <point x="512.44" y="276.96"/>
      <point x="512.44" y="226.02" type="curve" smooth="yes"/>
      <point x="512.44" y="118.30000000000001"/>
      <point x="410.14" y="94.9"/>
    </contour>
    <contour>
      <point x="297.42" y="409.8" type="line"/>
      <point x="341.58" y="593.08" type="line"/>
      <point x="360.64" y="596.42"/>
      <point x="396.96" y="598.76"/>
      <point x="427.68" y="598.76" type="curve" smooth="yes"/>
      <point x="500.44" y="598.76"/>
      <point x="552.16" y="577.0"/>
      <point x="552.16" y="515.82" type="curve" smooth="yes"/>
      <point x="552.16" y="455.24"/>
      <point x="503.64" y="409.8"/>
      <point x="393.72" y="409.8" type="curve" smooth="yes"/>
    </contour>
  </outline>
</glyph>
<glyph name="C" format="2">
  <advance width="628.48"/>
  <unicode hex="0043"/>
  <outline>
    <contour>
      <point x="397.6" y="-14.34" type="curve" smooth="yes"/>
      <point x="483.74" y="-14.34"/>
      <point x="550.16" y="2.66"/>
      <point x="604.82" y="30.34" type="curve"/>
      <point x="590.54" y="134.56" type="line"/>
      <point x="550.0" y="115.6"/>
      <point x="497.0" y="95.5"/>
      <point x="418.04" y="95.5" type="curve" smooth="yes"/>
      <point x="313.54" y="95.5"/>
      <point x="258.84000000000003" y="154.98000000000002"/>
      <point x="258.84000000000003" y="277.44" type="curve" smooth="yes"/>
      <point x="258.84000000000003" y="461.68"/>
      <point x="372.88" y="600.14"/>
      <point x="529.98" y="600.14" type="curve" smooth="yes"/>
      <point x="581.66" y="600.14"/>
      <point x="624.74" y="589.44"/>
      <point x="678.36" y="560.1" type="curve"/>
      <point x="725.86" y="661.04" type="line"/>
      <point x="662.94" y="695.66"/>
      <point x="604.66" y="708.66"/>
      <point x="541.34" y="708.66" type="curve" smooth="yes"/>
      <point x="292.04" y="708.66"/>
      <point x="128.1" y="505.34"/>
      <point x="128.1" y="270.82" type="curve" smooth="yes"/>
      <point x="128.1" y="87.1"/>
      <point x="237.38" y="-14.34"/>
    </contour>
  </outline>
</glyph>
<glyph name="D" format="2">
  <advance width="704.74"/>
  <unicode hex="0044"/>
  <outline>
    <contour>
      <point x="267.12" y="-7.98" type="curve" smooth="yes"/>
      <point x="565.52" y="-7.98"/>
      <point x="739.38" y="159.76"/>
      <point x="739.38" y="420.28" type="curve" smooth="yes"/>
      <point x="739.38" y="590.72"/>
      <point x="629.84" y="700.32"/>
      <point x="429.8" y="700.32" type="curve" smooth="yes"/>
      <point x="375.16" y="700.32"/>
      <point x="310.3" y="695.32"/>
      <point x="238.04" y="680.66" type="curve"/>
      <point x="77.72" y="12.34" type="line"/>
      <point x="136.2" y="-1.6400000000000001"/>
      <point x="212.14" y="-7.98"/>
    </contour>
    <contour>
      <point x="292.3" y="99.2" type="curve" smooth="yes"/>
      <point x="264.28" y="99.2"/>
      <point x="245.82" y="100.53999999999999"/>
      <point x="224.7" y="102.9" type="curve"/>
      <point x="341.24" y="589.44" type="line"/>
      <point x="366.66" y="592.46"/>
      <point x="391.76" y="594.14"/>
      <point x="416.18" y="594.14" type="curve" smooth="yes"/>
      <point x="553.1" y="594.14"/>
      <point x="608.96" y="527.04"/>
      <point x="608.96" y="413.98" type="curve" smooth="yes"/>
      <point x="608.96" y="224.16"/>
      <point x="491.82" y="99.2"/>
    </contour>
  </outline>
</glyph>
<glyph name="E" format="2">
  <advance width="570.2"/>
  <unicode hex="0045"/>
  <outline>
    <contour>
      <point x="77.72" y="0.0" type="line"/>
      <point x="531.3" y="0.0" type="line"/>
      <point x="556.5" y="105.2" type="line"/>
      <point x="228.34" y="105.2" type="line"/>
      <point x="278.2" y="311.24" type="line"/>
      <point x="547.68" y="311.24" type="line"/>
      <point x="572.56" y="414.12" type="line"/>
      <point x="302.4" y="414.12" type="line"/>
      <point x="343.58" y="588.46" type="line"/>
      <point x="648.74" y="588.46" type="line"/>
      <point x="674.28" y="693.0" type="line"/>
      <point x="243.72" y="693.0" type="line"/>
    </contour>
  </outline>
</glyph>
<glyph name="F" format="2">
  <advance width="549.5"/>
  <unicode hex="0046"/>
  <outline>
    <contour>
      <point x="77.72" y="0.0" type="line"/>
      <point x="203.14" y="0.0" type="line"/>
      <point x="275.88" y="301.96" type="line"/>
      <point x="542.02" y="301.96" type="line"/>
      <point x="567.24" y="407.16" type="line"/>
      <point x="300.08" y="407.16" type="line"/>
      <point x="343.58" y="587.8" type="line"/>
      <point x="644.74" y="587.8" type="line"/>
      <point x="670.28" y="693.0" type="line"/>
      <point x="243.72" y="693.0" type="line"/>
    </contour>
  </outline>
</glyph>
<glyph name="G" format="2">
  <advance width="671.68"/>
  <unicode hex="0047"/>
  <outline>
    <contour>
      <point x="406.3" y="-13.68" type="curve" smooth="yes"/>
      <point x="498.64" y="-13.68"/>
      <point x="567.62" y="2.3000000000000003"/>
      <point x="612.1" y="20.36" type="curve"/>
      <point x="692.02" y="351.72" type="line"/>
      <point x="565.94" y="351.72" type="line"/>
      <point x="507.6" y="105.96000000000001" type="line"/>
      <point x="480.74" y="98.53999999999999"/>
      <point x="451.24" y="94.84"/>
      <point x="419.14" y="94.84" type="curve" smooth="yes"/>
      <point x="310.56" y="94.84"/>
      <point x="258.84000000000003" y="156.34"/>
      <point x="258.84000000000003" y="279.82" type="curve" smooth="yes"/>
      <point x="258.84000000000003" y="450.8"/>
      <point x="362.38" y="600.14"/>
      <point x="536.94" y="600.14" type="curve" smooth="yes"/>
      <point x="602.22" y="600.14"/>
      <point x="661.32" y="576.98"/>
      <point x="695.06" y="555.46" type="curve"/>
      <point x="742.56" y="656.4" type="line"/>
      <point x="695.42" y="685.58"/>
      <point x="629.64" y="708.66"/>
      <point x="546.26" y="708.66" type="curve" smooth="yes"/>
      <point x="279.14" y="708.66"/>
      <point x="128.1" y="489.7"/>
      <point x="128.1" y="272.86" type="curve" smooth="yes"/>
      <point x="128.1" y="96.28"/>
      <point x="219.98" y="-13.68"/>
    </contour>
  </outline>
</glyph>
<glyph name="H" format="2">
  <advance width="693.94"/>
  <unicode hex="0048"/>
  <outline>
    <contour>
      <point x="77.72" y="0.0" type="line"/>
      <point x="203.14" y="0.0" type="line"/>
      <point x="277.2" y="307.92" type="line"/>
      <point x="561.28" y="307.92" type="line"/>
      <point x="487.22" y="0.0" type="line"/>
      <point x="613.3" y="0.0" type="line"/>
      <point x="779.62" y="693.0" type="line"/>
      <point x="653.54" y="693.0" type="line"/>
      <point x="586.82" y="415.1" type="line"/>
      <point x="302.4" y="415.1" type="line"/>
      <point x="369.8" y="693.0" type="line"/>
      <point x="243.72" y="693.0" type="line"/>
    </contour>
  </outline>
</glyph>
<glyph name="I" format="2">
  <advance width="284.12"/>
  <unicode hex="0049"/>
  <outline>
    <contour>
      <point x="77.72" y="0.0" type="line"/>
      <point x="203.48000000000002" y="0.0" type="line"/>
      <point x="369.8" y="693.0" type="line"/>
      <point x="243.72" y="693.0" type="line"/>
    </contour>
  </outline>
</glyph>
<glyph name="J" format="2">
  <advance width="493.56"/>
  <unicode hex="004A"/>
  <outline>
    <contour>
      <point x="199.5" y="-14.34" type="curve" smooth="yes"/>
      <point x="354.38" y="-14.34"/>
      <point x="427.84000000000003" y="57.7"/>
      <point x="461.88" y="202.52" type="curve" smooth="yes"/>
      <point x="579.24" y="693.0" type="line"/>
      <point x="453.16" y="693.0" type="line"/>
      <point x="341.08" y="225.7" type="line" smooth="yes"/>
      <point x="316.68" y="124.1"/>
      <point x="274.82" y="94.84"/>
      <point x="201.18" y="94.84" type="curve" smooth="yes"/>
      <point x="145.44" y="94.84"/>
      <point x="104.68" y="117.9"/>
      <point x="76.76" y="139.88" type="curve"/>
      <point x="19.32" y="45.64" type="line"/>
      <point x="65.26" y="9.66"/>
      <point x="128.52" y="-14.34"/>
    </contour>
  </outline>
</glyph>
<glyph name="K" format="2">
  <advance width="640.58"/>
  <unicode hex="004B"/>
  <outline>
    <contour>
      <point x="77.72" y="0.0" type="line"/>
      <point x="203.14" y="0.0" type="line"/>
      <point x="277.88" y="309.72" type="line"/>
      <point x="364.78" y="233.36"/>
      <point x="440.56" y="110.38"/>
      <point x="491.16" y="0.0" type="curve"/>
      <point x="628.52" y="0.0" type="line"/>
      <point x="571.6" y="138.72"/>
      <point x="476.98" y="275.78"/>
      <point x="389.24" y="360.64" type="curve"/>
      <point x="517.52" y="462.58"/>
      <point x="662.06" y="591.54"/>
      <point x="772.18" y="693.0" type="curve"/>
      <point x="619.48" y="693.0" type="line"/>
      <point x="542.54" y="618.42"/>
      <point x="416.2" y="509.9"/>
      <point x="303.36" y="419.54" type="curve"/>
      <point x="369.46" y="693.0" type="line"/>
      <point x="243.72" y="693.0" type="line"/>
    </contour>
  </outline>
</glyph>
<glyph name="L" format="2">
  <advance width="533.4"/>
  <unicode hex="004C"/>
  <outline>
    <contour>
      <point x="77.72" y="0.0" type="line"/>
      <point x="510.14" y="0.0" type="line"/>
      <point x="535.6800000000001" y="106.84" type="line"/>
      <point x="228.68" y="106.84" type="line"/>
      <point x="369.46" y="693.0" type="line"/>
      <point x="243.38" y="693.0" type="line"/>
    </contour>
  </outline>
</glyph>
<glyph name="M" format="2">
  <advance width="862.02"/>
  <unicode hex="004D"/>
  <outline>
    <contour>
      <point x="59.42" y="0.0" type="curve"/>
      <point x="182.2" y="0.0" type="line"/>
      <point x="225.34" y="160.5"/>
      <point x="273.48" y="339.12"/>
      <point x="327.52" y="504.88" type="curve"/>
      <point x="350.54" y="399.7"/>
      <point x="387.06" y="182.62"/>
      <point x="401.08" y="92.08" type="curve"/>
      <point x="496.72" y="92.08" type="line"/>
      <point x="555.38" y="181.76"/>
      <point x="699.08" y="406.42"/>
      <point x="765.02" y="504.53999999999996" type="curve"/>
      <point x="738.7" y="338.78"/>
      <point x="705.36" y="162.54"/>
      <point x="671.24" y="0.0" type="curve"/>
      <point x="795.36" y="0.0" type="line"/>
      <point x="839.38" y="224.78"/>
      <point x="881.66" y="489.94"/>
      <point x="902.7" y="693.0" type="curve"/>
      <point x="787.82" y="693.0" type="line"/>
      <point x="711.28" y="590.38"/>
      <point x="573.8" y="383.14"/>
      <point x="479.74" y="239.38" type="curve"/>
      <point x="456.76" y="379.72"/>
      <point x="417.72" y="591.42"/>
      <point x="393.22" y="693.0" type="curve"/>
      <point x="277.7" y="693.0" type="line"/>
      <point x="209.04" y="502.5"/>
      <point x="122.46" y="228.86"/>
    </contour>
  </outline>
</glyph>
<glyph name="N" format="2">
  <advance width="717.18"/>
  <unicode hex="004E"/>
  <outline>
    <contour>
      <point x="77.72" y="0.0" type="line"/>
      <point x="201.48000000000002" y="0.0" type="line"/>
      <point x="323.04" y="507.28" type="line"/>
      <point x="402.38" y="366.58"/>
      <point x="483.6" y="159.04"/>
      <point x="536.88" y="0.0" type="curve"/>
      <point x="636.88" y="0.0" type="line"/>
      <point x="802.86" y="693.0" type="line"/>
      <point x="677.78" y="693.0" type="line"/>
      <point x="566.2" y="219.22" type="line"/>
      <point x="510.42" y="369.8"/>
      <point x="418.62" y="573.82"/>
      <point x="345.04" y="693.0" type="curve"/>
      <point x="243.72" y="693.0" type="line"/>
    </contour>
  </outline>
</glyph>
<glyph name="P" format="2">
  <advance width="613.84"/>
  <unicode hex="0050"/>
  <outline>
    <contour>
      <point x="77.72" y="0.0" type="line"/>
      <point x="203.14" y="0.0" type="line"/>
      <point x="262.2" y="244.24" type="line"/>
      <point x="319.9" y="244.24" type="line" smooth="yes"/>
      <point x="535.24" y="244.24"/>
      <point x="684.62" y="326.82"/>
      <point x="684.62" y="510.14" type="curve" smooth="yes"/>
      <point x="684.62" y="630.4"/>
      <point x="591.16" y="700.32"/>
      <point x="426.56" y="700.32" type="curve" smooth="yes"/>
      <point x="368.88" y="700.32"/>
      <point x="305.58" y="694.3"/>
      <point x="240.72" y="681.98" type="curve"/>
    </contour>
    <contour>
      <point x="287.74" y="350.76" type="line"/>
      <point x="344.58" y="589.44" type="line"/>
      <point x="364.66" y="591.12"/>
      <point x="385.8" y="593.8"/>
      <point x="412.88" y="593.8" type="curve" smooth="yes"/>
      <point x="506.14" y="593.8"/>
      <point x="554.54" y="565.36"/>
      <point x="554.54" y="496.52" type="curve" smooth="yes"/>
      <point x="554.54" y="396.68"/>
      <point x="473.08" y="350.76"/>
      <point x="344.08" y="350.76" type="curve" smooth="yes"/>
    </contour>
  </outline>
</glyph>
<glyph name="Q" format="2">
  <advance width="753.28"/>
  <unicode hex="0051"/>
  <outline>
    <contour>
      <point x="600.48" y="-185.98" type="curve"/>
      <point x="639.68" y="-95.66" type="line"/>
      <point x="544.64" y="-87.25999999999999"/>
      <point x="457.58" y="-73.1"/>
      <point x="457.58" y="-16.14" type="curve" smooth="yes"/>
      <point x="457.58" y="-13.44"/>
      <point x="457.92" y="-11.08"/>
      <point x="458.6" y="-8.379999999999999" type="curve"/>
      <point x="653.16" y="24.14"/>
      <point x="789.24" y="213.94"/>
      <point x="789.24" y="424.12" type="curve" smooth="yes"/>
      <point x="789.24" y="606.48"/>
      <point x="674.24" y="708.66"/>
      <point x="521.78" y="708.66" type="curve" smooth="yes"/>
      <point x="293.44" y="708.66"/>
      <point x="128.1" y="501.0"/>
      <point x="128.1" y="270.54" type="curve" smooth="yes"/>
      <point x="128.1" y="109.44"/>
      <point x="215.2" y="13.200000000000001"/>
      <point x="339.14" y="-9.04" type="curve"/>
      <point x="338.46" y="-13.42"/>
      <point x="338.46" y="-18.46"/>
      <point x="338.46" y="-22.5" type="curve" smooth="yes"/>
      <point x="338.46" y="-126.16"/>
      <point x="430.26" y="-176.62"/>
    </contour>
    <contour>
      <point x="408.16" y="94.84" type="curve" smooth="yes"/>
      <point x="311.46" y="94.84"/>
      <point x="258.18" y="161.82"/>
      <point x="258.18" y="274.06" type="curve" smooth="yes"/>
      <point x="258.18" y="458.78"/>
      <point x="372.92" y="599.48"/>
      <point x="509.18" y="599.48" type="curve" smooth="yes"/>
      <point x="605.88" y="599.48"/>
      <point x="659.16" y="532.5"/>
      <point x="659.16" y="420.26" type="curve" smooth="yes"/>
      <point x="659.16" y="235.54"/>
      <point x="544.42" y="94.84"/>
    </contour>
  </outline>
</glyph>
<glyph name="R" format="2">
  <advance width="634.24"/>
  <unicode hex="0052"/>
  <outline>
    <contour>
      <point x="77.72" y="0.0" type="line"/>
      <point x="203.14" y="0.0" type="line"/>
      <point x="266.18" y="262.18" type="line"/>
      <point x="336.32" y="262.18" type="line" smooth="yes"/>
      <point x="347.78" y="262.18"/>
      <point x="358.9" y="262.52"/>
      <point x="369.68" y="263.2" type="curve"/>
      <point x="407.68" y="197.52"/>
      <point x="444.8" y="98.48"/>
      <point x="477.18" y="0.0" type="curve"/>
      <point x="611.88" y="0.0" type="line"/>
      <point x="578.58" y="104.26"/>
      <point x="530.1" y="220.5"/>
      <point x="494.8" y="286.1" type="curve"/>
      <point x="635.74" y="327.36"/>
      <point x="681.62" y="414.66"/>
      <point x="681.62" y="507.1" type="curve" smooth="yes"/>
      <point x="681.62" y="617.48"/>
      <point x="598.66" y="700.32"/>
      <point x="426.48" y="700.32" type="curve" smooth="yes"/>
      <point x="370.46" y="700.32"/>
      <point x="303.88" y="693.62"/>
      <point x="240.72" y="681.98" type="curve"/>
    </contour>
    <contour>
      <point x="290.4" y="363.08" type="line"/>
      <point x="344.58" y="588.78" type="line"/>
      <point x="364.32" y="590.46"/>
      <point x="393.04" y="593.14"/>
      <point x="419.78" y="593.14" type="curve" smooth="yes"/>
      <point x="520.64" y="593.14"/>
      <point x="554.52" y="553.5"/>
      <point x="554.52" y="495.24" type="curve" smooth="yes"/>
      <point x="554.52" y="420.84"/>
      <point x="494.84" y="363.08"/>
      <point x="353.6" y="363.08" type="curve" smooth="yes"/>
    </contour>
  </outline>
</glyph>
<glyph name="S" format="2">
  <advance width="534.52"/>
  <unicode hex="0053"/>
  <outline>
    <contour>
      <point x="255.04" y="-14.34" type="curve" smooth="yes"/>
      <point x="432.52" y="-14.34"/>
      <point x="537.28" y="69.9"/>
      <point x="537.28" y="205.92" type="curve" smooth="yes"/>
      <point x="537.28" y="316.96"/>
      <point x="461.6" y="361.22"/>
      <point x="382.36" y="401.5" type="curve" smooth="yes"/>
      <point x="331.62" y="427.54"/>
      <point x="285.88" y="447.3"/>
      <point x="285.88" y="507.1" type="curve" smooth="yes"/>
      <point x="285.88" y="578.68"/>
      <point x="350.74" y="604.46"/>
      <point x="420.58" y="604.46" type="curve" smooth="yes"/>
      <point x="474.22" y="604.46"/>
      <point x="523.18" y="587.86"/>
      <point x="560.6" y="561.84" type="curve"/>
      <point x="615.4" y="657.12" type="line"/>
      <point x="568.94" y="684.8"/>
      <point x="502.12" y="708.66"/>
      <point x="425.98" y="708.66" type="curve" smooth="yes"/>
      <point x="244.4" y="708.66"/>
      <point x="156.48" y="612.94"/>
      <point x="156.48" y="498.78" type="curve" smooth="yes"/>
      <point x="156.48" y="399.02"/>
      <point x="218.94" y="353.44"/>
      <point x="290.92" y="312.82" type="curve" smooth="yes"/>
      <point x="346.94" y="282.16"/>
      <point x="407.54" y="258.76"/>
      <point x="407.54" y="198.3" type="curve" smooth="yes"/>
      <point x="407.54" y="116.38"/>
      <point x="331.7" y="91.52000000000001"/>
      <point x="259.14" y="91.52000000000001" type="curve" smooth="yes"/>
      <point x="194.2" y="91.52000000000001"/>
      <point x="131.9" y="119.44"/>
      <point x="98.18" y="143.16" type="curve"/>
      <point x="42.72" y="44.56" type="line"/>
      <point x="82.84" y="18.84"/>
      <point x="159.7" y="-14.34"/>
    </contour>
  </outline>
</glyph>
<glyph name="T" format="2">
  <advance width="570.88"/>
  <unicode hex="0054"/>
  <outline>
    <contour>
      <point x="218.78" y="0.0" type="line"/>
      <point x="344.86" y="0.0" type="line"/>
      <point x="485.64" y="586.48" type="line"/>
      <point x="691.7" y="586.48" type="line"/>
      <point x="717.58" y="693.0" type="line"/>
      <point x="179.04" y="693.0" type="line"/>
      <point x="153.5" y="586.48" type="line"/>
      <point x="359.56" y="586.48" type="line"/>
    </contour>
  </outline>
</glyph>
<glyph name="U" format="2">
  <advance width="671.1"/>
  <unicode hex="0055"/>
  <outline>
    <contour>
      <point x="350.58" y="-14.68" type="curve" smooth="yes"/>
      <point x="516.88" y="-14.68"/>
      <point x="611.44" y="65.02"/>
      <point x="657.12" y="255.06" type="curve" smooth="yes"/>
      <point x="761.78" y="693.0" type="line"/>
      <point x="635.7" y="693.0" type="line"/>
      <point x="533.7" y="267.04" type="line" smooth="yes"/>
      <point x="505.26" y="151.58"/>
      <point x="461.1" y="94.82"/>
      <point x="366.48" y="94.82" type="curve" smooth="yes"/>
      <point x="278.28" y="94.82"/>
      <point x="251.86" y="140.32"/>
      <point x="251.86" y="201.5" type="curve" smooth="yes"/>
      <point x="251.86" y="226.2"/>
      <point x="255.54" y="253.24"/>
      <point x="262.54" y="279.94" type="curve" smooth="yes"/>
      <point x="361.56" y="693.0" type="line"/>
      <point x="235.48" y="693.0" type="line"/>
      <point x="140.1" y="293.78" type="line" smooth="yes"/>
      <point x="130.78" y="257.16"/>
      <point x="126.12" y="222.2"/>
      <point x="126.12" y="189.24" type="curve" smooth="yes"/>
      <point x="126.12" y="70.62"/>
      <point x="189.12" y="-14.68"/>
    </contour>
  </outline>
</glyph>
<glyph name="V" format="2">
  <advance width="656.38"/>
  <unicode hex="0056"/>
  <outline>
    <contour>
      <point x="267.66" y="0.0" type="curve"/>
      <point x="385.44" y="0.0" type="line"/>
      <point x="540.52" y="220.52"/>
      <point x="675.44" y="460.2"/>
      <point x="799.88" y="693.0" type="curve"/>
      <point x="664.48" y="693.0" type="line"/>
      <point x="572.92" y="503.58"/>
      <point x="455.52" y="297.18"/>
      <point x="358.22" y="147.28" type="curve"/>
      <point x="335.14" y="301.98"/>
      <point x="316.44" y="497.84000000000003"/>
      <point x="302.65999999999997" y="693.0" type="curve"/>
      <point x="170.0" y="693.0" type="line"/>
      <point x="193.42" y="444.7"/>
      <point x="226.36" y="213.74"/>
    </contour>
  </outline>
</glyph>
<glyph name="W" format="2">
  <advance width="912.54"/>
  <unicode hex="0057"/>
  <outline>
    <contour>
      <point x="178.4" y="0.0" type="curve"/>
      <point x="299.24" y="0.0" type="line"/>
      <point x="390.06" y="141.88"/>
      <point x="469.88" y="284.68"/>
      <point x="553.7" y="438.94" type="curve"/>
      <point x="566.06" y="278.62"/>
      <point x="582.12" y="144.28"/>
      <point x="604.48" y="0.0" type="curve"/>
      <point x="725.32" y="0.0" type="line"/>
      <point x="844.92" y="207.58"/>
      <point x="950.58" y="435.56"/>
      <point x="1055.94" y="693.0" type="curve"/>
      <point x="921.88" y="693.0" type="line"/>
      <point x="850.06" y="507.62"/>
      <point x="763.9" y="304.26"/>
      <point x="688.78" y="161.8" type="curve"/>
      <point x="673.06" y="286.8"/>
      <point x="654.66" y="474.3"/>
      <point x="646.94" y="613.9" type="curve"/>
      <point x="542.06" y="613.9" type="line"/>
      <point x="466.92" y="464.46000000000004"/>
      <point x="376.74" y="306.76"/>
      <point x="289.82" y="161.46" type="curve"/>
      <point x="283.14" y="299.18"/>
      <point x="289.8" y="503.56"/>
      <point x="301.48" y="693.0" type="curve"/>
      <point x="175.42" y="693.0" type="line"/>
      <point x="161.08" y="463.58"/>
      <point x="157.38" y="225.68"/>
    </contour>
  </outline>
</glyph>
<glyph name="X" format="2">
  <advance width="628.54"/>
  <unicode hex="0058"/>
  <outline>
    <contour>
      <point x="13.3" y="0.0" type="line"/>
      <point x="158.66" y="0.0" type="line"/>
      <point x="380.06" y="267.78" type="line"/>
      <point x="420.16" y="180.86"/>
      <point x="450.0" y="103.12"/>
      <point x="483.6" y="0.0" type="curve"/>
      <point x="618.98" y="0.0" type="line"/>
      <point x="573.98" y="133.22"/>
      <point x="528.88" y="237.76"/>
      <point x="475.6" y="359.36" type="curve"/>
      <point x="566.98" y="460.74"/>
      <point x="662.9" y="579.92"/>
      <point x="745.34" y="693.0" type="curve"/>
      <point x="606.64" y="693.0" type="line"/>
      <point x="554.2" y="620.52"/>
      <point x="490.06" y="537.06"/>
      <point x="421.22" y="456.22" type="curve"/>
      <point x="325.98" y="693.0" type="line"/>
      <point x="187.3" y="693.0" type="line"/>
      <point x="328.3" y="373.26" type="line"/>
    </contour>
  </outline>
</glyph>
<glyph name="Y" format="2">
  <advance width="619.02"/>
  <unicode hex="0059"/>
  <outline>
    <contour>
      <point x="244.0" y="0.0" type="line"/>
      <point x="370.08" y="0.0" type="line"/>
      <point x="436.08" y="276.04" type="line"/>
      <point x="559.42" y="418.04"/>
      <point x="660.96" y="547.24"/>
      <point x="765.82" y="693.0" type="curve"/>
      <point x="624.76" y="693.0" type="line"/>
      <point x="556.1" y="587.98"/>
      <point x="477.06" y="486.6"/>
      <point x="394.3" y="386.58" type="curve"/>
      <point x="359.56" y="487.62"/>
      <point x="331.16" y="590.88"/>
      <point x="308.12" y="693.0" type="curve"/>
      <point x="173.4" y="693.0" type="line"/>
      <point x="211.7" y="554.18"/>
      <point x="256.04" y="415.34"/>
      <point x="310.0" y="276.04" type="curve"/>
    </contour>
  </outline>
</glyph>
<glyph name="Z" format="2">
  <advance width="607.06"/>
  <unicode hex="005A"/>
  <outline>
    <contour>
      <point x="43.3" y="0.0" type="line"/>
      <point x="556.5" y="0.0" type="line"/>
      <point x="582.04" y="106.52000000000001" type="line"/>
      <point x="220.78" y="106.52000000000001" type="line"/>
      <point x="357.16" y="277.04"/>
      <point x="581.54" y="504.54"/>
      <point x="691.94" y="600.64" type="curve"/>
      <point x="713.86" y="693.0" type="line"/>
      <point x="225.64" y="693.0" type="line"/>
      <point x="199.76" y="586.48" type="line"/>
      <point x="525.14" y="586.48" type="line"/>
      <point x="389.76" y="459.1"/>
      <point x="172.96" y="227.86"/>
      <point x="62.22" y="78.72" type="curve"/>
    </contour>
  </outline>
</glyph>
<glyph name="bracketleft" format="2">
  <advance width="349.88"/>
  <unicode hex="005B"/>
  <outline>
    <contour>
      <point x="39.519999999999996" y="-185.0" type="line"/>
      <point x="284.36" y="-185.0" type="line"/>
      <point x="307.92" y="-89.46000000000001" type="line"/>
      <point x="176.2" y="-89.46000000000001" type="line"/>
      <point x="363.1" y="687.46" type="line"/>
      <point x="494.48" y="687.46" type="line"/>
      <point x="517.36" y="783.0" type="line"/>
      <point x="271.86" y="783.0" type="line"/>
    </contour>
  </outline>
</glyph>
<glyph name="backslash" format="2">
  <advance width="390.7"/>
  <unicode hex="005C"/>
  <outline>
    <contour>
      <point x="263.2" y="-185.0" type="line"/>
      <point x="377.98" y="-185.0" type="line"/>
      <point x="274.3" y="783.0" type="line"/>
      <point x="159.52" y="783.0" type="line"/>
    </contour>
  </outline>
</glyph>
<glyph name="bracketright" format="2">
  <advance width="350.22"/>
  <unicode hex="005D"/>
  <outline>
    <contour>
      <point x="-42.76" y="-185.0" type="line"/>
      <point x="202.42000000000002" y="-185.0" type="line"/>
      <point x="435.42" y="783.0" type="line"/>
      <point x="189.92" y="783.0" type="line"/>
      <point x="166.36" y="687.46" type="line"/>
      <point x="298.08" y="687.46" type="line"/>
      <point x="111.18" y="-89.46000000000001" type="line"/>
      <point x="-19.54" y="-89.46000000000001" type="line"/>
    </contour>
  </outline>
</glyph>
<glyph name="asciicircum" format="2">
  <advance width="566.64"/>
  <unicode hex="005E"/>
  <outline>
    <contour>
      <point x="499.18" y="305.26" type="line"/>
      <point x="601.64" y="349.04" type="line"/>
      <point x="488.72" y="695.64" type="line"/>
      <point x="394.18" y="695.64" type="line"/>
      <point x="119.64" y="360.66" type="line"/>
      <point x="204.9" y="308.92" type="line"/>
      <point x="416.08" y="568.24" type="line"/>
    </contour>
  </outline>
</glyph>
<glyph name="underscore" format="2">
  <advance width="518.64"/>
  <unicode hex="005F"/>
  <outline>
    <contour>
      <point x="-23.880000000000003" y="-185.0" type="line"/>
      <point x="475.46" y="-185.0" type="line"/>
      <point x="499.02" y="-84.8" type="line"/>
      <point x="-0.98" y="-84.8" type="line"/>
    </contour>
  </outline>
</glyph>
<glyph name="grave" format="2">
  <advance width="277.26"/>
  <unicode hex="0060"/>
  <outline>
    <contour>
      <point x="337.4" y="578.38" type="line"/>
      <point x="391.54" y="628.56" type="line"/>
      <point x="252.8" y="790.16" type="line"/>
      <point x="174.06" y="718.3" type="line"/>
    </contour>
  </outline>
</glyph>
<glyph name="a" format="2">
  <advance width="565.56"/>
  <unicode hex="0061"/>
  <outline>
    <contour>
      <point x="276.82" y="-13.66" type="curve" smooth="yes"/>
      <point x="332.14" y="-13.66"/>
      <point x="379.86" y="8.0"/>
      <point x="419.92" y="43.76" type="curve"/>
      <point x="425.56" y="24.08"/>
      <point x="431.56" y="8.02"/>
      <point x="439.56" y="-7.98" type="curve"/>
      <point x="550.12" y="7.96" type="line"/>
      <point x="524.06" y="71.38"/>
      <point x="518.84" y="143.18"/>
      <point x="537.16" y="216.8" type="curve" smooth="yes"/>
      <point x="606.24" y="502.06" type="line"/>
      <point x="542.5" y="531.24"/>
      <point x="460.92" y="534.94"/>
      <point x="430.48" y="534.94" type="curve" smooth="yes"/>
      <point x="241.04" y="534.94"/>
      <point x="99.32" y="389.68"/>
      <point x="99.32" y="195.16" type="curve" smooth="yes"/>
      <point x="99.32" y="71.06"/>
      <point x="159.82" y="-13.66"/>
    </contour>
    <contour>
      <point x="303.62" y="89.24000000000001" type="curve" smooth="yes"/>
      <point x="246.96" y="89.24000000000001"/>
      <point x="219.44" y="127.88"/>
      <point x="219.44" y="206.84" type="curve" smooth="yes"/>
      <point x="219.44" y="322.08"/>
      <point x="298.6" y="433.36"/>
      <point x="414.42" y="433.36" type="curve" smooth="yes"/>
      <point x="434.76" y="433.36"/>
      <point x="449.14" y="431.68"/>
      <point x="468.52" y="428.0" type="curve"/>
      <point x="424.76" y="250.96" type="line" smooth="yes"/>
      <point x="417.08" y="217.92"/>
      <point x="408.36" y="174.5"/>
      <point x="406.38" y="140.48" type="curve"/>
      <point x="373.28" y="105.68"/>
      <point x="342.44" y="89.24000000000001"/>
    </contour>
  </outline>
</glyph>
<glyph name="c" format="2">
  <advance width="471.5"/>
  <unicode hex="0063"/>
  <outline>
    <contour>
      <point x="312.68" y="-13.32" type="curve" smooth="yes"/>
      <point x="377.38" y="-13.32"/>
      <point x="426.16" y="2.0599999999999996"/>
      <point x="459.42" y="17.74" type="curve"/>
      <point x="449.78" y="116.34" type="line"/>
      <point x="425.18" y="104.0"/>
      <point x="380.36" y="90.24000000000001"/>
      <point x="335.24" y="90.24000000000001" type="curve" smooth="yes"/>
      <point x="252.84" y="90.24000000000001"/>
      <point x="223.74" y="138.96"/>
      <point x="223.74" y="213.76" type="curve" smooth="yes"/>
      <point x="223.74" y="340.32"/>
      <point x="296.62" y="432.7"/>
      <point x="410.24" y="432.7" type="curve" smooth="yes"/>
      <point x="446.82" y="432.7"/>
      <point x="474.18" y="424.74"/>
      <point x="502.54" y="413.4" type="curve"/>
      <point x="545.38" y="510.02" type="line"/>
      <point x="508.42" y="526.3"/>
      <point x="466.16" y="536.26"/>
      <point x="414.66" y="536.26" type="curve" smooth="yes"/>
      <point x="219.28" y="536.26"/>
      <point x="99.32" y="382.16"/>
      <point x="99.32" y="200.82" type="curve" smooth="yes"/>
      <point x="99.32" y="80.16"/>
      <point x="163.3" y="-13.32"/>
    </contour>
  </outline>
</glyph>
<glyph name="d" format="2">
  <advance width="573.0"/>
  <unicode hex="0064"/>
  <outline>
    <contour>
      <point x="277.48" y="-13.32" type="curve" smooth="yes"/>
      <point x="341.98" y="-13.32"/>
      <point x="390.02" y="14.459999999999999"/>
      <point x="422.94" y="43.76" type="curve"/>
      <point x="428.58" y="24.08"/>
      <point x="434.92" y="7.0"/>
      <point x="442.58" y="-7.98" type="curve"/>
      <point x="553.14" y="7.96" type="line"/>
      <point x="528.78" y="65.94"/>
      <point x="521.18" y="139.44"/>
      <point x="538.82" y="210.68" type="curve" smooth="yes"/>
      <point x="674.9" y="776.0" type="line"/>
      <point x="549.48" y="756.08" type="line"/>
      <point x="494.46" y="524.98" type="line"/>
      <point x="473.12" y="529.64"/>
      <point x="452.44" y="532.3"/>
      <point x="429.46" y="532.3" type="curve" smooth="yes"/>
      <point x="226.8" y="532.3"/>
      <point x="99.32" y="372.42"/>
      <point x="99.32" y="195.52" type="curve" smooth="yes"/>
      <point x="99.32" y="80.62"/>
      <point x="150.94" y="-13.32"/>
    </contour>
    <contour>
      <point x="303.6" y="89.58000000000001" type="curve" smooth="yes"/>
      <point x="241.16" y="89.58000000000001"/>
      <point x="219.44" y="136.74"/>
      <point x="219.44" y="205.84" type="curve" smooth="yes"/>
      <point x="219.44" y="315.36"/>
      <point x="291.86" y="430.72"/>
      <point x="417.14" y="430.72" type="curve" smooth="yes"/>
      <point x="443.06" y="430.72"/>
      <point x="452.88" y="429.38"/>
      <point x="470.56" y="426.38" type="curve"/>
      <point x="427.78" y="250.96" type="line" smooth="yes"/>
      <point x="419.08" y="214.52"/>
      <point x="411.38" y="173.82"/>
      <point x="409.4" y="140.14" type="curve"/>
      <point x="380.72" y="110.44"/>
      <point x="346.5" y="89.58000000000001"/>
    </contour>
  </outline>
</glyph>
<glyph name="e" format="2">
  <advance width="515.72"/>
  <unicode hex="0065"/>
  <outline>
    <contour>
      <point x="314.14" y="-13.32" type="curve" smooth="yes"/>
      <point x="377.72" y="-13.32"/>
      <point x="437.7" y="1.02"/>
      <point x="477.42" y="19.42" type="curve"/>
      <point x="467.78" y="117.04" type="line"/>
      <point x="427.76" y="97.96000000000001"/>
      <point x="381.06" y="88.92"/>
      <point x="337.04" y="88.92" type="curve" smooth="yes"/>
      <point x="251.68" y="88.92"/>
      <point x="224.04000000000002" y="121.8"/>
      <point x="218.1" y="193.8" type="curve"/>
      <point x="421.66" y="197.2"/>
      <point x="566.4" y="244.36"/>
      <point x="566.4" y="393.36" type="curve" smooth="yes"/>
      <point x="566.4" y="481.94"/>
      <point x="501.2" y="536.26"/>
      <point x="408.2" y="536.26" type="curve" smooth="yes"/>
      <point x="218.2" y="536.26"/>
      <point x="99.32" y="367.16"/>
      <point x="99.32" y="196.48" type="curve" smooth="yes"/>
      <point x="99.32" y="78.86"/>
      <point x="155.92" y="-13.32"/>
    </contour>
    <contour>
      <point x="224.14" y="281.18" type="curve"/>
      <point x="244.22" y="371.38"/>
      <point x="309.06" y="438.32"/>
      <point x="390.32" y="438.32" type="curve" smooth="yes"/>
      <point x="430.42" y="438.32"/>
      <point x="454.86" y="418.26"/>
      <point x="454.86" y="380.12" type="curve" smooth="yes"/>
      <point x="454.86" y="330.18"/>
      <point x="410.56" y="286.18"/>
    </contour>
  </outline>
</glyph>
<glyph name="f" format="2">
  <advance width="409.78"/>
  <unicode hex="0066"/>
  <outline>
    <contour>
      <point x="78.64" y="-189.0" type="line"/>
      <point x="144.34" y="-130.46"/>
      <point x="188.84" y="-36.56"/>
      <point x="229.08" y="133.02" type="curve" smooth="yes"/>
      <point x="298.58" y="423.38" type="line"/>
      <point x="473.58" y="423.38" type="line"/>
      <point x="497.46" y="522.94" type="line"/>
      <point x="322.48" y="522.94" type="line"/>
      <point x="331.2" y="558.46" type="line" smooth="yes"/>
      <point x="349.98" y="634.52"/>
      <point x="388.1" y="673.46"/>
      <point x="459.4" y="673.46" type="curve" smooth="yes"/>
      <point x="488.44" y="673.46"/>
      <point x="518.36" y="667.46"/>
      <point x="543.72" y="656.48" type="curve"/>
      <point x="587.26" y="751.38" type="line"/>
      <point x="562.56" y="762.38"/>
      <point x="521.0" y="776.0"/>
      <point x="466.76" y="776.0" type="curve" smooth="yes"/>
      <point x="331.18" y="776.0"/>
      <point x="245.46" y="706.92"/>
      <point x="210.76" y="560.46" type="curve" smooth="yes"/>
      <point x="99.96" y="97.6" type="line" smooth="yes"/>
      <point x="78.62" y="4.960000000000001"/>
      <point x="40.46" y="-100.56"/>
      <point x="-28.520000000000003" y="-173.4" type="curve"/>
    </contour>
  </outline>
</glyph>
<glyph name="h" format="2">
  <advance width="558.2"/>
  <unicode hex="0068"/>
  <outline>
    <contour>
      <point x="74.42" y="0.0" type="line"/>
      <point x="194.86" y="0.0" type="line"/>
      <point x="294.58" y="420.28" type="line"/>
      <point x="319.02" y="427.0"/>
      <point x="345.5" y="432.04"/>
      <point x="372.28" y="432.04" type="curve" smooth="yes"/>
      <point x="427.02" y="432.04"/>
      <point x="454.28" y="404.72"/>
      <point x="454.28" y="354.08" type="curve" smooth="yes"/>
      <point x="454.28" y="324.96"/>
      <point x="446.24" y="291.82"/>
      <point x="439.54" y="261.68" type="curve" smooth="yes"/>
      <point x="377.28" y="0.0" type="line"/>
      <point x="497.72" y="0.0" type="line"/>
      <point x="563.68" y="274.82" type="line" smooth="yes"/>
      <point x="571.36" y="306.54"/>
      <point x="575.38" y="336.94"/>
      <point x="575.38" y="366.66" type="curve" smooth="yes"/>
      <point x="575.38" y="468.42"/>
      <point x="517.58" y="532.96"/>
      <point x="411.74" y="532.96" type="curve" smooth="yes"/>
      <point x="381.0" y="532.96"/>
      <point x="349.58" y="526.6"/>
      <point x="317.82" y="517.52" type="curve"/>
      <point x="380.52" y="776.0" type="line"/>
      <point x="255.1" y="756.08" type="line"/>
    </contour>
  </outline>
</glyph>
<glyph name="i" format="2">
  <advance width="266.68"/>
  <unicode hex="0069"/>
  <outline>
    <contour>
      <point x="74.42" y="0.0" type="line"/>
      <point x="194.2" y="0.0" type="line"/>
      <point x="319.86" y="522.94" type="line"/>
      <point x="199.42" y="522.94" type="line"/>
    </contour>
    <contour>
      <point x="284.56" y="602.24" type="curve" smooth="yes"/>
      <point x="328.0" y="602.24"/>
      <point x="368.86" y="638.06"/>
      <point x="368.86" y="685.9" type="curve" smooth="yes"/>
      <point x="368.86" y="728.4"/>
      <point x="337.02" y="750.7"/>
      <point x="301.12" y="750.7" type="curve" smooth="yes"/>
      <point x="257.34" y="750.7"/>
      <point x="217.5" y="714.54"/>
      <point x="217.5" y="666.02" type="curve" smooth="yes"/>
      <point x="217.5" y="623.86"/>
      <point x="248.66" y="602.24"/>
    </contour>
  </outline>
</glyph>
<glyph name="j" format="2">
  <advance width="271.3"/>
  <unicode hex="006A"/>
  <outline>
    <contour>
      <point x="-0.29999999999999716" y="-186.02" type="curve" smooth="yes"/>
      <point x="122.32" y="-186.02"/>
      <point x="178.86" y="-117.98"/>
      <point x="211.54" y="22.06" type="curve" smooth="yes"/>
      <point x="331.84000000000003" y="522.94" type="line"/>
      <point x="211.4" y="522.94" type="line"/>
      <point x="91.08" y="20.62" type="line" smooth="yes"/>
      <point x="77.02" y="-43.599999999999994"/>
      <point x="51.64" y="-83.47999999999999"/>
      <point x="-3.5199999999999996" y="-83.47999999999999" type="curve" smooth="yes"/>
      <point x="-27.2" y="-83.47999999999999"/>
      <point x="-43.879999999999995" y="-79.14"/>
      <point x="-63.56" y="-70.78" type="curve"/>
      <point x="-93.74" y="-167.36" type="line"/>
      <point x="-69.5" y="-177.68"/>
      <point x="-35.94" y="-186.02"/>
    </contour>
    <contour>
      <point x="297.22" y="602.24" type="curve" smooth="yes"/>
      <point x="340.66" y="602.24"/>
      <point x="381.52" y="638.06"/>
      <point x="381.52" y="685.9" type="curve" smooth="yes"/>
      <point x="381.52" y="728.4"/>
      <point x="349.68" y="750.7"/>
      <point x="313.78" y="750.7" type="curve" smooth="yes"/>
      <point x="270.0" y="750.7"/>
      <point x="230.16" y="714.54"/>
      <point x="230.16" y="666.02" type="curve" smooth="yes"/>
      <point x="230.16" y="623.86"/>
      <point x="261.32" y="602.24"/>
    </contour>
  </outline>
</glyph>
<glyph name="k" format="2">
  <advance width="539.92"/>
  <unicode hex="006B"/>
  <outline>
    <contour>
      <point x="74.42" y="0.0" type="line"/>
      <point x="194.2" y="0.0" type="line"/>
      <point x="253.6" y="243.94" type="line"/>
      <point x="313.16" y="184.98"/>
      <point x="373.34" y="88.36"/>
      <point x="408.9" y="0.0" type="curve"/>
      <point x="542.26" y="0.0" type="line"/>
      <point x="511.9" y="90.0"/>
      <point x="442.76" y="212.4"/>
      <point x="374.52" y="281.06" type="curve"/>
      <point x="464.58" y="352.72"/>
      <point x="564.72" y="447.76"/>
      <point x="630.2" y="522.94" type="curve"/>
      <point x="492.46" y="522.94" type="line"/>
      <point x="444.52" y="469.66"/>
      <point x="356.58" y="387.08"/>
      <point x="272.14" y="323.08" type="curve"/>
      <point x="381.2" y="776.0" type="line"/>
      <point x="255.78" y="756.08" type="line"/>
    </contour>
  </outline>
</glyph>
<glyph name="l" format="2">
  <advance width="298.34000000000003"/>
  <unicode hex="006C"/>
  <outline>
    <contour>
      <point x="271.34000000000003" y="-9.66" type="curve"/>
      <point x="296.24" y="90.9" type="line"/>
      <point x="211.26" y="102.7"/>
      <point x="219.16" y="151.66"/>
      <point x="234.92000000000002" y="218.7" type="curve" smooth="yes"/>
      <point x="368.82" y="776.0" type="line"/>
      <point x="243.74" y="756.08" type="line"/>
      <point x="116.4" y="224.4" type="line" smooth="yes"/>
      <point x="87.4" y="100.74"/>
      <point x="97.32" y="-3.540000000000001"/>
    </contour>
  </outline>
</glyph>
<glyph name="n" format="2">
  <advance width="559.86"/>
  <unicode hex="006E"/>
  <outline>
    <contour>
      <point x="74.42" y="0.0" type="line"/>
      <point x="194.86" y="0.0" type="line"/>
      <point x="295.94" y="422.64" type="line"/>
      <point x="320.7" y="428.0"/>
      <point x="346.48" y="431.36"/>
      <point x="370.92" y="431.36" type="curve" smooth="yes"/>
      <point x="473.36" y="431.36"/>
      <point x="460.98" y="353.46"/>
      <point x="439.88" y="261.68" type="curve" smooth="yes"/>
      <point x="377.62" y="0.0" type="line"/>
      <point x="498.06" y="0.0" type="line"/>
      <point x="564.02" y="274.82" type="line" smooth="yes"/>
      <point x="602.34" y="430.12"/>
      <point x="554.24" y="534.26"/>
      <point x="392.46" y="534.26" type="curve" smooth="yes"/>
      <point x="303.12" y="534.26"/>
      <point x="242.78" y="515.32"/>
      <point x="194.74" y="500.98" type="curve"/>
    </contour>
  </outline>
</glyph>
<glyph name="o" format="2">
  <advance width="557.68"/>
  <unicode hex="006F"/>
  <outline>
    <contour>
      <point x="295.76" y="-13.32" type="curve" smooth="yes"/>
      <point x="468.65999999999997" y="-13.32"/>
      <point x="588.36" y="143.6"/>
      <point x="588.36" y="333.88" type="curve" smooth="yes"/>
      <point x="588.36" y="456.12"/>
      <point x="515.94" y="535.92"/>
      <point x="391.92" y="535.92" type="curve" smooth="yes"/>
      <point x="222.98" y="535.92"/>
      <point x="99.32" y="379.0"/>
      <point x="99.32" y="189.06" type="curve" smooth="yes"/>
      <point x="99.32" y="66.48"/>
      <point x="171.74" y="-13.32"/>
    </contour>
    <contour>
      <point x="306.36" y="89.9" type="curve" smooth="yes"/>
      <point x="248.66" y="89.9"/>
      <point x="219.44" y="129.58"/>
      <point x="219.44" y="200.32" type="curve" smooth="yes"/>
      <point x="219.44" y="324.8"/>
      <point x="290.94" y="432.7"/>
      <point x="381.32" y="432.7" type="curve" smooth="yes"/>
      <point x="439.02" y="432.7"/>
      <point x="468.24" y="393.02"/>
      <point x="468.24" y="322.28" type="curve" smooth="yes"/>
      <point x="468.24" y="197.8"/>
      <point x="396.74" y="89.9"/>
    </contour>
  </outline>
</glyph>
<glyph name="p" format="2">
  <advance width="557.94"/>
  <unicode hex="0070"/>
  <outline>
    <contour>
      <point x="29.42" y="-185.0" type="line"/>
      <point x="149.54" y="-185.0" type="line"/>
      <point x="194.2" y="-2.64" type="line"/>
      <point x="216.86" y="-7.32"/>
      <point x="239.54" y="-9.66"/>
      <point x="263.56" y="-9.66" type="curve" smooth="yes"/>
      <point x="459.38" y="-9.66"/>
      <point x="588.62" y="138.22"/>
      <point x="588.62" y="327.12" type="curve" smooth="yes"/>
      <point x="588.62" y="449.16"/>
      <point x="525.32" y="534.94"/>
      <point x="385.5" y="534.94" type="curve" smooth="yes"/>
      <point x="314.34" y="534.94"/>
      <point x="248.42" y="520.62"/>
      <point x="194.74" y="503.26" type="curve"/>
    </contour>
    <contour>
      <point x="266.6" y="91.26" type="curve" smooth="yes"/>
      <point x="249.56" y="91.26"/>
      <point x="233.18" y="92.94"/>
      <point x="217.46" y="96.96000000000001" type="curve"/>
      <point x="295.62" y="424.34" type="line"/>
      <point x="319.38" y="430.04"/>
      <point x="343.46" y="433.4"/>
      <point x="367.52" y="433.4" type="curve" smooth="yes"/>
      <point x="439.02" y="433.4"/>
      <point x="468.5" y="387.74"/>
      <point x="468.5" y="316.46" type="curve" smooth="yes"/>
      <point x="468.5" y="193.34"/>
      <point x="391.68" y="91.26"/>
    </contour>
  </outline>
</glyph>
<glyph name="q" format="2">
  <advance width="561.44"/>
  <unicode hex="0071"/>
  <outline>
    <contour>
      <point x="327.46" y="-185.0" type="line"/>
      <point x="447.9" y="-185.0" type="line"/>
      <point x="611.92" y="500.36" type="line"/>
      <point x="559.5" y="523.98"/>
      <point x="500.94" y="534.94"/>
      <point x="451.52" y="534.94" type="curve" smooth="yes"/>
      <point x="234.34" y="534.94"/>
      <point x="99.32" y="389.22"/>
      <point x="99.32" y="194.48" type="curve" smooth="yes"/>
      <point x="99.32" y="72.72"/>
      <point x="165.12" y="-10.68"/>
      <point x="272.58" y="-10.68" type="curve" smooth="yes"/>
      <point x="308.7" y="-10.68"/>
      <point x="343.8" y="-2.98"/>
      <point x="374.14" y="11.379999999999999" type="curve"/>
    </contour>
    <contour>
      <point x="305.06" y="90.53999999999999" type="curve" smooth="yes"/>
      <point x="242.7" y="90.53999999999999"/>
      <point x="219.44" y="136.26"/>
      <point x="219.44" y="204.8" type="curve" smooth="yes"/>
      <point x="219.44" y="332.18"/>
      <point x="300.44" y="434.04"/>
      <point x="430.86" y="434.04" type="curve" smooth="yes"/>
      <point x="445.18" y="434.04"/>
      <point x="461.2" y="431.68"/>
      <point x="474.88" y="428.68" type="curve"/>
      <point x="400.72" y="122.34" type="line"/>
      <point x="369.04" y="100.62"/>
      <point x="337.2" y="90.53999999999999"/>
    </contour>
  </outline>
</glyph>
<glyph name="r" format="2">
  <advance width="405.6"/>
  <unicode hex="0072"/>
  <outline>
    <contour>
      <point x="74.42" y="0.0" type="line"/>
      <point x="194.86" y="0.0" type="line"/>
      <point x="295.94" y="420.65999999999997" type="line"/>
      <point x="317.4" y="426.7"/>
      <point x="345.8" y="431.38"/>
      <point x="370.24" y="431.38" type="curve" smooth="yes"/>
      <point x="413.08" y="431.38"/>
      <point x="434.8" y="425.4"/>
      <point x="461.46" y="418.06" type="curve"/>
      <point x="496.28" y="517.32" type="line"/>
      <point x="467.32" y="528.96"/>
      <point x="427.76" y="534.28"/>
      <point x="395.78" y="534.28" type="curve" smooth="yes"/>
      <point x="317.32" y="534.28"/>
      <point x="248.7" y="515.98"/>
      <point x="193.74" y="496.64" type="curve"/>
    </contour>
  </outline>
</glyph>
<glyph name="s" format="2">
  <advance width="454.78"/>
  <unicode hex="0073"/>
  <outline>
    <contour>
      <point x="226.7" y="-13.32" type="curve" smooth="yes"/>
      <point x="371.58" y="-13.32"/>
      <point x="449.74" y="60.760000000000005"/>
      <point x="449.74" y="156.98" type="curve" smooth="yes"/>
      <point x="449.74" y="237.92"/>
      <point x="408.92" y="267.24"/>
      <point x="323.26" y="309.42" type="curve" smooth="yes"/>
      <point x="283.88" y="329.44"/>
      <point x="255.42000000000002" y="341.86"/>
      <point x="255.42000000000002" y="376.0" type="curve" smooth="yes"/>
      <point x="255.42000000000002" y="425.18"/>
      <point x="303.54" y="437.98"/>
      <point x="349.06" y="437.98" type="curve" smooth="yes"/>
      <point x="390.36" y="437.98"/>
      <point x="434.96" y="424.7"/>
      <point x="462.96" y="410.72" type="curve"/>
      <point x="505.46" y="503.7" type="line"/>
      <point x="469.44" y="521.34"/>
      <point x="416.54" y="536.26"/>
      <point x="355.06" y="536.26" type="curve" smooth="yes"/>
      <point x="221.74" y="536.26"/>
      <point x="135.66" y="476.4"/>
      <point x="135.66" y="366.02" type="curve" smooth="yes"/>
      <point x="135.66" y="282.32"/>
      <point x="193.74" y="249.38"/>
      <point x="256.32" y="220.72" type="curve" smooth="yes"/>
      <point x="308.2" y="196.76"/>
      <point x="329.66" y="182.36"/>
      <point x="329.66" y="148.26" type="curve" smooth="yes"/>
      <point x="329.66" y="110.98"/>
      <point x="296.42" y="86.28"/>
      <point x="228.42000000000002" y="86.28" type="curve" smooth="yes"/>
      <point x="167.9" y="86.28"/>
      <point x="124.34" y="106.82"/>
      <point x="92.5" y="124.24000000000001" type="curve"/>
      <point x="49.32" y="28.94" type="line"/>
      <point x="80.44" y="11.540000000000001"/>
      <point x="139.72" y="-13.32"/>
    </contour>
  </outline>
</glyph>
<glyph name="t" format="2">
  <advance width="402.74"/>
  <unicode hex="0074"/>
  <outline>
    <contour>
      <point x="264.1" y="-12.0" type="curve" smooth="yes"/>
      <point x="321.3" y="-12.0"/>
      <point x="366.32" y="0.0"/>
      <point x="404.96" y="15.0" type="curve"/>
      <point x="395.66" y="110.30000000000001" type="line"/>
      <point x="363.3" y="97.6"/>
      <point x="334.64" y="90.24000000000001"/>
      <point x="299.24" y="90.24000000000001" type="curve" smooth="yes"/>
      <point x="219.48000000000002" y="90.24000000000001"/>
      <point x="217.54" y="148.14"/>
      <point x="234.9" y="215.92" type="curve" smooth="yes"/>
      <point x="284.68" y="423.38" type="line"/>
      <point x="455.8" y="423.38" type="line"/>
      <point x="480.02" y="522.94" type="line"/>
      <point x="308.58" y="522.94" type="line"/>
      <point x="346.92" y="681.0" type="line"/>
      <point x="221.5" y="661.08" type="line"/>
      <point x="119.08" y="231.1" type="line" smooth="yes"/>
      <point x="87.76" y="100.54"/>
      <point x="98.1" y="-12.0"/>
    </contour>
  </outline>
</glyph>
<glyph name="u" format="2">
  <advance width="560.94"/>
  <unicode hex="0075"/>
  <outline>
    <contour>
      <point x="262.52" y="-12.0" type="curve" smooth="yes"/>
      <point x="321.56" y="-12.0"/>
      <point x="370.6" y="9.98"/>
      <point x="410.66" y="44.42" type="curve"/>
      <point x="416.3" y="24.74"/>
      <point x="422.3" y="8.02"/>
      <point x="430.3" y="-7.98" type="curve"/>
      <point x="540.86" y="7.96" type="line"/>
      <point x="514.8" y="71.38"/>
      <point x="509.58" y="143.18"/>
      <point x="527.9" y="216.8" type="curve" smooth="yes"/>
      <point x="601.62" y="522.94" type="line"/>
      <point x="481.18" y="522.94" type="line"/>
      <point x="415.5" y="250.96" type="line" smooth="yes"/>
      <point x="407.82" y="217.92"/>
      <point x="399.1" y="174.5"/>
      <point x="397.12" y="140.48" type="curve"/>
      <point x="363.36" y="105.68"/>
      <point x="331.88" y="90.24000000000001"/>
      <point x="289.66" y="90.24000000000001" type="curve" smooth="yes"/>
      <point x="197.60000000000002" y="90.24000000000001"/>
      <point x="217.74" y="180.56"/>
      <point x="236.18" y="259.3" type="curve" smooth="yes"/>
      <point x="299.1" y="522.94" type="line"/>
      <point x="178.66" y="522.94" type="line"/>
      <point x="112.7" y="248.12" type="line" smooth="yes"/>
      <point x="79.68" y="115.38"/>
      <point x="103.12" y="-12.0"/>
    </contour>
  </outline>
</glyph>
<glyph name="v" format="2">
  <advance width="515.06"/>
  <unicode hex="0076"/>
  <outline>
    <contour>
      <point x="199.64" y="0.0" type="curve"/>
      <point x="303.24" y="0.0" type="line"/>
      <point x="411.32" y="122.84"/>
      <point x="551.84" y="340.74"/>
      <point x="615.06" y="522.94" type="curve"/>
      <point x="489.02" y="522.94" type="line"/>
      <point x="452.94" y="404.72"/>
      <point x="351.1" y="228.12"/>
      <point x="284.3" y="138.28" type="curve"/>
      <point x="265.18" y="241.76"/>
      <point x="252.76" y="405.02"/>
      <point x="250.1" y="522.94" type="curve"/>
      <point x="126.7" y="522.94" type="line"/>
      <point x="134.98" y="320.78"/>
      <point x="165.32" y="137.76"/>
    </contour>
  </outline>
</glyph>
<glyph name="w" format="2">
  <advance width="797.98"/>
  <unicode hex="0077"/>
  <outline>
    <contour>
      <point x="183.94" y="0.0" type="curve"/>
      <point x="283.62" y="0.0" type="line"/>
      <point x="342.16" y="82.48"/>
      <point x="427.58" y="221.78"/>
      <point x="478.6" y="336.22" type="curve"/>
      <point x="481.6" y="225.01999999999998"/>
      <point x="490.98" y="111.38"/>
      <point x="505.96" y="0.0" type="curve"/>
      <point x="605.64" y="0.0" type="line"/>
      <point x="730.88" y="152.72"/>
      <point x="842.26" y="367.84000000000003"/>
      <point x="897.98" y="522.94" type="curve"/>
      <point x="771.94" y="522.94" type="line"/>
      <point x="737.22" y="415.96"/>
      <point x="657.32" y="243.96"/>
      <point x="588.38" y="139.28" type="curve"/>
      <point x="573.68" y="270.92"/>
      <point x="567.94" y="415.04"/>
      <point x="567.94" y="522.94" type="curve"/>
      <point x="463.32" y="522.94" type="line"/>
      <point x="420.26" y="405.98"/>
      <point x="344.06" y="253.66"/>
      <point x="270.6" y="139.28" type="curve"/>
      <point x="255.22" y="254.12"/>
      <point x="249.14" y="411.98"/>
      <point x="248.12" y="522.94" type="curve"/>
      <point x="130.0" y="522.94" type="line"/>
      <point x="135.96" y="319.72"/>
      <point x="160.56" y="122.9"/>
    </contour>
  </outline>
</glyph>
<glyph name="x" format="2">
  <advance width="516.02"/>
  <unicode hex="0078"/>
  <outline>
    <contour>
      <point x="17.28" y="0.0" type="line"/>
      <point x="147.1" y="0.0" type="line"/>
      <point x="309.44" y="185.38" type="line"/>
      <point x="335.84" y="132.92"/>
      <point x="366.98" y="63.64"/>
      <point x="388.94" y="0.0" type="curve"/>
      <point x="509.08" y="0.0" type="line"/>
      <point x="480.42" y="88.36"/>
      <point x="437.96000000000004" y="176.18"/>
      <point x="391.08" y="264.96" type="curve"/>
      <point x="470.94" y="352.52"/>
      <point x="540.02" y="440.56"/>
      <point x="596.7" y="522.94" type="curve"/>
      <point x="473.88" y="522.94" type="line"/>
      <point x="437.9" y="467.6"/>
      <point x="389.08" y="405.1"/>
      <point x="338.64" y="343.64" type="curve"/>
      <point x="254.14" y="522.94" type="line"/>
      <point x="128.64" y="522.94" type="line"/>
      <point x="257.3" y="269.02" type="line"/>
    </contour>
  </outline>
</glyph>
<glyph name="y" format="2">
  <advance width="504.8"/>
  <unicode hex="0079"/>
  <outline>
    <contour>
      <point x="62.28" y="-186.02" type="curve" smooth="yes"/>
      <point x="197.3" y="-186.02"/>
      <point x="279.74" y="-85.36"/>
      <point x="361.94" y="35.96" type="curve" smooth="yes"/>
      <point x="472.5" y="196.34"/>
      <point x="546.8" y="370.26"/>
      <point x="601.4" y="522.94" type="curve"/>
      <point x="475.36" y="522.94" type="line"/>
      <point x="440.18" y="403.36"/>
      <point x="384.66" y="255.42000000000002"/>
      <point x="301.62" y="127.46000000000001" type="curve"/>
      <point x="274.06" y="246.58"/>
      <point x="259.68" y="410.46"/>
      <point x="256.0" y="522.94" type="curve"/>
      <point x="131.9" y="522.94" type="line"/>
      <point x="140.86" y="328.86"/>
      <point x="172.54" y="156.02"/>
      <point x="214.68" y="8.400000000000002" type="curve"/>
      <point x="177.5" y="-50.76"/>
      <point x="125.34" y="-84.8"/>
      <point x="71.2" y="-84.8" type="curve" smooth="yes"/>
      <point x="43.260000000000005" y="-84.8"/>
      <point x="24.9" y="-79.14"/>
      <point x="0.9600000000000009" y="-68.47999999999999" type="curve"/>
      <point x="-36.56" y="-164.06" type="line"/>
      <point x="-7.219999999999999" y="-179.4"/>
      <point x="23.1" y="-186.02"/>
    </contour>
  </outline>
</glyph>
<glyph name="z" format="2">
  <advance width="492.68"/>
  <unicode hex="007A"/>
  <outline>
    <contour>
      <point x="53.2" y="0.0" type="line"/>
      <point x="458.84000000000003" y="0.0" type="line"/>
      <point x="482.72" y="99.56" type="line"/>
      <point x="221.38" y="99.56" type="line"/>
      <point x="311.1" y="206.12"/>
      <point x="490.4" y="379.44"/>
      <point x="559.56" y="440.26" type="curve"/>
      <point x="579.48" y="522.94" type="line"/>
      <point x="190.18" y="522.94" type="line"/>
      <point x="166.3" y="423.38" type="line"/>
      <point x="399.0" y="423.38" type="line"/>
      <point x="305.98" y="339.38"/>
      <point x="149.5" y="180.62"/>
      <point x="70.8" y="73.06" type="curve"/>
    </contour>
  </outline>
</glyph>
<glyph name="braceleft" format="2">
  <advance width="348.56"/>
  <unicode hex="007B"/>
  <outline>
    <contour>
      <point x="295.78" y="-188.4" type="curve"/>
      <point x="319.68" y="-92.86" type="line"/>
      <point x="227.68" y="-92.86"/>
      <point x="225.0" y="-57.419999999999995"/>
      <point x="239.01999999999998" y="-2.3599999999999994" type="curve" smooth="yes"/>
      <point x="273.08" y="141.52" type="line" smooth="yes"/>
      <point x="287.08" y="203.5"/>
      <point x="293.12" y="261.56"/>
      <point x="228.24" y="293.56" type="curve"/>
      <point x="307.06" y="323.86"/>
      <point x="329.74" y="376.94"/>
      <point x="350.84000000000003" y="465.32" type="curve" smooth="yes"/>
      <point x="381.16" y="593.22" type="line" smooth="yes"/>
      <point x="396.9" y="660.16"/>
      <point x="424.4" y="684.06"/>
      <point x="506.24" y="684.06" type="curve"/>
      <point x="529.8" y="779.6" type="line"/>
      <point x="350.32" y="779.6"/>
      <point x="300.98" y="720.26"/>
      <point x="268.26" y="588.72" type="curve" smooth="yes"/>
      <point x="235.66" y="453.7" type="line" smooth="yes"/>
      <point x="222.32" y="398.36"/>
      <point x="193.7" y="342.7"/>
      <point x="112.74" y="342.7" type="curve"/>
      <point x="89.52" y="248.16" type="line"/>
      <point x="164.16" y="246.12"/>
      <point x="175.66" y="203.88"/>
      <point x="161.64" y="140.22" type="curve" smooth="yes"/>
      <point x="129.58" y="6.020000000000003" type="line" smooth="yes"/>
      <point x="99.28" y="-123.72"/>
      <point x="131.52" y="-188.4"/>
    </contour>
  </outline>
</glyph>
<glyph name="bar" format="2">
  <advance width="292.1"/>
  <unicode hex="007C"/>
  <outline>
    <contour>
      <point x="39.519999999999996" y="-185.0" type="line"/>
      <point x="152.98000000000002" y="-185.0" type="line"/>
      <point x="385.98" y="783.0" type="line"/>
      <point x="271.86" y="783.0" type="line"/>
    </contour>
  </outline>
</glyph>
<glyph name="braceright" format="2">
  <advance width="348.56"/>
  <unicode hex="007D"/>
  <outline>
    <contour>
      <point x="-39.78" y="-188.4" type="line"/>
      <point x="139.7" y="-188.4"/>
      <point x="189.04" y="-129.06"/>
      <point x="221.76" y="2.4799999999999986" type="curve" smooth="yes"/>
      <point x="254.36" y="137.5" type="line" smooth="yes"/>
      <point x="267.7" y="192.84"/>
      <point x="296.32" y="248.5"/>
      <point x="377.28" y="248.5" type="curve"/>
      <point x="400.5" y="343.04" type="line"/>
      <point x="325.86" y="345.08"/>
      <point x="314.36" y="387.32"/>
      <point x="328.38" y="450.98" type="curve" smooth="yes"/>
      <point x="360.44" y="585.18" type="line" smooth="yes"/>
      <point x="391.4" y="718.22"/>
      <point x="357.84" y="779.6"/>
      <point x="194.24" y="779.6" type="curve"/>
      <point x="170.34" y="684.06" type="line"/>
      <point x="258.38" y="684.06"/>
      <point x="267.0" y="656.54"/>
      <point x="251.0" y="593.56" type="curve" smooth="yes"/>
      <point x="216.94" y="449.68" type="line" smooth="yes"/>
      <point x="202.94" y="387.7"/>
      <point x="196.9" y="329.64"/>
      <point x="261.78" y="297.64" type="curve"/>
      <point x="182.96" y="267.34"/>
      <point x="160.28" y="214.26"/>
      <point x="139.18" y="125.88" type="curve" smooth="yes"/>
      <point x="108.86" y="-2.019999999999996" type="line" smooth="yes"/>
      <point x="91.8" y="-69.62"/>
      <point x="66.28" y="-92.86"/>
      <point x="-16.22" y="-92.86" type="curve"/>
    </contour>
  </outline>
</glyph>
<glyph name="asciitilde" format="2">
  <advance width="566.64"/>
  <unicode hex="007E"/>
  <outline>
    <contour>
      <point x="428.0" y="200.76" type="curve" smooth="yes"/>
      <point x="527.58" y="200.76"/>
      <point x="576.56" y="279.14"/>
      <point x="606.08" y="359.76" type="curve"/>
      <point x="527.06" y="383.68" type="line"/>
      <point x="503.22" y="334.36"/>
      <point x="483.78" y="307.62"/>
      <point x="449.24" y="307.62" type="curve" smooth="yes"/>
      <point x="386.14" y="307.62"/>
      <point x="355.54" y="389.4"/>
      <point x="267.56" y="389.4" type="curve" smooth="yes"/>
      <point x="169.0" y="389.4"/>
      <point x="116.08" y="306.42"/>
      <point x="90.16" y="230.06" type="curve"/>
      <point x="169.18" y="206.14" type="line"/>
      <point x="193.02" y="255.46"/>
      <point x="212.46" y="282.54"/>
      <point x="247.0" y="282.54" type="curve" smooth="yes"/>
      <point x="309.08" y="282.54"/>
      <point x="340.02" y="200.76"/>
    </contour>
  </outline>
</glyph>
<glyph name="exclamdown" format="2">
  <advance width="285.14"/>
  <unicode hex="00A1"/>
  <outline>
    <contour>
      <point x="52.4" y="-178.4" type="line"/>
      <point x="181.14" y="-178.4" type="line"/>
      <point x="225.16" y="5.359999999999999" type="line" smooth="yes"/>
      <point x="250.5" y="115.06"/>
      <point x="262.52" y="203.04"/>
      <point x="273.18" y="296.32" type="curve"/>
      <point x="185.7" y="296.32" type="line"/>
      <point x="153.1" y="209.84"/>
      <point x="117.97999999999999" y="91.94"/>
      <point x="96.41999999999999" y="5.699999999999999" type="curve" smooth="yes"/>
    </contour>
    <contour>
      <point x="253.88" y="368.76" type="curve" smooth="yes"/>
      <point x="299.78" y="368.76"/>
      <point x="339.26" y="407.36"/>
      <point x="339.26" y="457.48" type="curve" smooth="yes"/>
      <point x="339.26" y="502.28"/>
      <point x="311.06" y="527.26"/>
      <point x="268.14" y="527.26" type="curve" smooth="yes"/>
      <point x="222.24" y="527.26"/>
      <point x="182.76" y="488.66"/>
      <point x="182.76" y="438.54" type="curve" smooth="yes"/>
      <point x="182.76" y="393.74"/>
      <point x="210.96" y="368.76"/>
    </contour>
  </outline>
</glyph>
<glyph name="cent" format="2">
  <advance width="566.64"/>
  <unicode hex="00A2"/>
  <outline>
    <contour>
      <point x="232.9" y="-109.0" type="line"/>
      <point x="346.68" y="-109.0" type="line"/>
      <point x="380.02" y="29.68" type="line"/>
      <point x="426.48" y="32.32"/>
      <point x="472.56" y="45.38"/>
      <point x="505.1" y="59.68" type="curve"/>
      <point x="496.48" y="157.94" type="line"/>
      <point x="461.14" y="142.56"/>
      <point x="416.48" y="130.24"/>
      <point x="376.8" y="130.24" type="curve" smooth="yes"/>
      <point x="319.62" y="130.24"/>
      <point x="271.1" y="156.36"/>
      <point x="271.1" y="232.54" type="curve" smooth="yes"/>
      <point x="271.1" y="367.08"/>
      <point x="350.04" y="454.08"/>
      <point x="454.98" y="454.08" type="curve" smooth="yes"/>
      <point x="487.0" y="454.08"/>
      <point x="521.34" y="447.08"/>
      <point x="554.7" y="428.76" type="curve"/>
      <point x="596.54" y="524.04" type="line"/>
      <point x="567.5" y="539.04"/>
      <point x="534.06" y="548.7"/>
      <point x="504.36" y="552.66" type="curve"/>
      <point x="538.36" y="693.0" type="line"/>
      <point x="424.58" y="693.0" type="line"/>
      <point x="389.58" y="549.34" type="line"/>
      <point x="247.3" y="518.02"/>
      <point x="147.02" y="392.44"/>
      <point x="147.02" y="229.58" type="curve" smooth="yes"/>
      <point x="147.02" y="131.34"/>
      <point x="189.3" y="67.22"/>
      <point x="269.22" y="41.26" type="curve"/>
    </contour>
  </outline>
</glyph>
<glyph name="sterling" format="2">
  <advance width="566.64"/>
  <unicode hex="00A3"/>
  <outline>
    <contour>
      <point x="112.5" y="0.0" type="curve"/>
      <point x="526.1" y="0.0" type="line"/>
      <point x="550.66" y="101.88" type="line"/>
      <point x="270.14" y="101.88" type="line"/>
      <point x="293.26" y="159.82"/>
      <point x="315.32" y="229.76"/>
      <point x="328.34000000000003" y="284.58" type="curve"/>
      <point x="510.8" y="284.58" type="line"/>
      <point x="534.7" y="383.8" type="line"/>
      <point x="351.9" y="383.8" type="line"/>
      <point x="369.94" y="458.32" type="line" smooth="yes"/>
      <point x="397.68" y="574.96"/>
      <point x="449.08" y="603.42"/>
      <point x="514.92" y="603.42" type="curve" smooth="yes"/>
      <point x="549.66" y="603.42"/>
      <point x="581.34" y="595.42"/>
      <point x="613.32" y="579.4" type="curve"/>
      <point x="663.46" y="670.36" type="line"/>
      <point x="623.52" y="692.34"/>
      <point x="574.56" y="706.0"/>
      <point x="519.66" y="706.0" type="curve" smooth="yes"/>
      <point x="401.62" y="706.0"/>
      <point x="301.42" y="649.98"/>
      <point x="257.4" y="478.44" type="curve" smooth="yes"/>
      <point x="233.42" y="383.8" type="line"/>
      <point x="143.36" y="383.8" type="line"/>
      <point x="119.8" y="284.58" type="line"/>
      <point x="209.86" y="284.58" type="line"/>
      <point x="188.84" y="198.38"/>
      <point x="156.08" y="101.56"/>
    </contour>
  </outline>
</glyph>
<glyph name="currency" format="2">
  <advance width="566.64"/>
  <unicode hex="00A4"/>
  <outline>
    <contour>
      <point x="186.64" y="102.46" type="line"/>
      <point x="261.32" y="176.5" type="line"/>
      <point x="291.0" y="160.44"/>
      <point x="323.72" y="152.72"/>
      <point x="359.44" y="152.72" type="curve" smooth="yes"/>
      <point x="396.48" y="152.72"/>
      <point x="427.88" y="160.44"/>
      <point x="456.9" y="176.5" type="curve"/>
      <point x="531.58" y="102.46" type="line"/>
      <point x="607.22" y="177.12" type="line"/>
      <point x="534.54" y="248.5" type="line"/>
      <point x="551.26" y="276.2"/>
      <point x="560.3" y="309.6"/>
      <point x="560.3" y="347.0" type="curve" smooth="yes"/>
      <point x="560.3" y="384.4"/>
      <point x="551.26" y="417.8"/>
      <point x="534.54" y="445.5" type="curve"/>
      <point x="607.22" y="516.88" type="line"/>
      <point x="532.24" y="590.88" type="line"/>
      <point x="457.56" y="517.5" type="line"/>
      <point x="427.88" y="533.56"/>
      <point x="395.16" y="541.28"/>
      <point x="359.44" y="541.28" type="curve" smooth="yes"/>
      <point x="322.4" y="541.28"/>
      <point x="291.0" y="533.56"/>
      <point x="261.98" y="517.5" type="curve"/>
      <point x="187.3" y="591.54" type="line"/>
      <point x="111.66" y="516.88" type="line"/>
      <point x="184.34" y="445.5" type="line"/>
      <point x="167.62" y="417.8"/>
      <point x="158.57999999999998" y="384.4"/>
      <point x="158.57999999999998" y="347.0" type="curve" smooth="yes"/>
      <point x="158.57999999999998" y="309.6"/>
      <point x="167.62" y="276.2"/>
      <point x="184.34" y="248.5" type="curve"/>
      <point x="111.66" y="176.46" type="line"/>
    </contour>
    <contour>
      <point x="359.44" y="243.34" type="curve" smooth="yes"/>
      <point x="305.26" y="243.34"/>
      <point x="261.46" y="281.84"/>
      <point x="261.46" y="347.0" type="curve" smooth="yes"/>
      <point x="261.46" y="412.16"/>
      <point x="305.26" y="450.65999999999997"/>
      <point x="359.44" y="450.65999999999997" type="curve" smooth="yes"/>
      <point x="413.62" y="450.65999999999997"/>
      <point x="457.42" y="412.16"/>
      <point x="457.42" y="347.0" type="curve" smooth="yes"/>
      <point x="457.42" y="281.84"/>
      <point x="413.62" y="243.34"/>
    </contour>
  </outline>
</glyph>
<glyph name="yen" format="2">
  <advance width="566.64"/>
  <unicode hex="00A5"/>
  <outline>
    <contour>
      <point x="215.6" y="0.0" type="line"/>
      <point x="340.66" y="0.0" type="line"/>
      <point x="368.0" y="112.36" type="line"/>
      <point x="521.48" y="112.36" type="line"/>
      <point x="541.08" y="193.08" type="line"/>
      <point x="387.6" y="193.08" type="line"/>
      <point x="407.68" y="279.08" type="line"/>
      <point x="561.16" y="279.08" type="line"/>
      <point x="580.76" y="359.8" type="line"/>
      <point x="461.06" y="359.8" type="line"/>
      <point x="561.58" y="475.22"/>
      <point x="641.28" y="579.98"/>
      <point x="719.68" y="693.0" type="curve"/>
      <point x="590.32" y="693.0" type="line"/>
      <point x="521.56" y="590.96"/>
      <point x="454.7" y="504.72"/>
      <point x="377.18" y="410.94" type="curve"/>
      <point x="340.76" y="510.66"/>
      <point x="314.04" y="591.88"/>
      <point x="294.0" y="693.0" type="curve"/>
      <point x="167.57999999999998" y="693.0" type="line"/>
      <point x="191.3" y="593.84"/>
      <point x="232.94" y="473.56"/>
      <point x="277.65999999999997" y="359.8" type="curve"/>
      <point x="149.74" y="359.8" type="line"/>
      <point x="130.14" y="279.08" type="line"/>
      <point x="282.62" y="279.08" type="line"/>
      <point x="262.54" y="193.08" type="line"/>
      <point x="110.06" y="193.08" type="line"/>
      <point x="90.46" y="112.36" type="line"/>
      <point x="242.94" y="112.36" type="line"/>
    </contour>
  </outline>
</glyph>
<glyph name="brokenbar" format="2">
  <advance width="288.74"/>
  <unicode hex="00A6"/>
  <outline>
    <contour>
      <point x="174.96" y="393.14" type="line"/>
      <point x="290.1" y="393.14" type="line"/>
      <point x="384.06" y="783.0" type="line"/>
      <point x="269.26" y="783.0" type="line"/>
    </contour>
    <contour>
      <point x="36.92" y="-185.0" type="line"/>
      <point x="151.06" y="-185.0" type="line"/>
      <point x="245.02" y="204.52" type="line"/>
      <point x="130.22" y="204.52" type="line"/>
    </contour>
  </outline>
</glyph>
<glyph name="section" format="2">
  <advance width="507.18"/>
  <unicode hex="00A7"/>
  <outline>
    <contour>
      <point x="214.72" y="-109.66" type="curve" smooth="yes"/>
      <point x="365.02" y="-109.66"/>
      <point x="452.24" y="-30.599999999999998"/>
      <point x="452.24" y="68.28" type="curve" smooth="yes"/>
      <point x="452.24" y="100.68"/>
      <point x="440.2" y="128.68"/>
      <point x="418.84" y="152.96" type="curve"/>
      <point x="494.84" y="198.6"/>
      <point x="542.56" y="259.88"/>
      <point x="542.56" y="327.28" type="curve" smooth="yes"/>
      <point x="542.56" y="387.84"/>
      <point x="506.7" y="427.72"/>
      <point x="442.44" y="457.96" type="curve" smooth="yes"/>
      <point x="355.06" y="499.44"/>
      <point x="328.04" y="508.84"/>
      <point x="328.04" y="546.12" type="curve" smooth="yes"/>
      <point x="328.04" y="588.68"/>
      <point x="375.6" y="614.76"/>
      <point x="437.06" y="614.76" type="curve" smooth="yes"/>
      <point x="473.76" y="614.76"/>
      <point x="513.78" y="605.42"/>
      <point x="551.38" y="584.42" type="curve"/>
      <point x="594.56" y="671.72" type="line"/>
      <point x="551.6" y="696.34"/>
      <point x="495.32" y="708.66"/>
      <point x="438.72" y="708.66" type="curve" smooth="yes"/>
      <point x="300.38" y="708.66"/>
      <point x="212.54" y="637.56"/>
      <point x="212.54" y="543.68" type="curve" smooth="yes"/>
      <point x="212.54" y="514.38"/>
      <point x="222.22" y="486.02"/>
      <point x="241.56" y="462.34" type="curve"/>
      <point x="166.5" y="418.32"/>
      <point x="117.8" y="353.72"/>
      <point x="117.8" y="285.98" type="curve" smooth="yes"/>
      <point x="117.8" y="226.1"/>
      <point x="154.0" y="184.88"/>
      <point x="218.6" y="155.28" type="curve" smooth="yes"/>
      <point x="299.1" y="117.74"/>
      <point x="336.4" y="105.06"/>
      <point x="336.4" y="61.56" type="curve" smooth="yes"/>
      <point x="336.4" y="16.620000000000005"/>
      <point x="291.44" y="-14.059999999999995"/>
      <point x="214.76" y="-14.059999999999995" type="curve" smooth="yes"/>
      <point x="171.04" y="-14.059999999999995"/>
      <point x="126.64" y="-2.719999999999999"/>
      <point x="87.68" y="20.620000000000005" type="curve"/>
      <point x="43.48" y="-68.38" type="line"/>
      <point x="87.84" y="-95.68"/>
      <point x="153.1" y="-109.66"/>
    </contour>
    <contour>
      <point x="349.66" y="201.42000000000002" type="curve"/>
      <point x="294.08" y="226.5" type="line" smooth="yes"/>
      <point x="245.72" y="248.48"/>
      <point x="227.36" y="273.8"/>
      <point x="227.36" y="305.22" type="curve" smooth="yes"/>
      <point x="227.36" y="347.06"/>
      <point x="262.18" y="386.5"/>
      <point x="305.94" y="412.52" type="curve"/>
      <point x="361.0" y="389.38" type="line" smooth="yes"/>
      <point x="414.38" y="366.38"/>
      <point x="433.0" y="337.4"/>
      <point x="433.0" y="307.04" type="curve" smooth="yes"/>
      <point x="433.0" y="268.26"/>
      <point x="399.52" y="229.1"/>
    </contour>
  </outline>
</glyph>
<glyph name="dieresis" format="2">
  <advance width="468.0"/>
  <unicode hex="00A8"/>
  <outline>
    <contour>
      <point x="476.48" y="609.82" type="curve" smooth="yes"/>
      <point x="511.78" y="609.82"/>
      <point x="547.6" y="642.78"/>
      <point x="547.6" y="683.62" type="curve" smooth="yes"/>
      <point x="547.6" y="717.82"/>
      <point x="522.38" y="742.78"/>
      <point x="488.1" y="742.78" type="curve" smooth="yes"/>
      <point x="450.82" y="742.78"/>
      <point x="417.3" y="710.16"/>
      <point x="417.3" y="667.66" type="curve" smooth="yes"/>
      <point x="417.3" y="633.78"/>
      <point x="440.54" y="609.82"/>
    </contour>
    <contour>
      <point x="271.14" y="609.82" type="curve" smooth="yes"/>
      <point x="306.44" y="609.82"/>
      <point x="342.6" y="642.78"/>
      <point x="342.6" y="683.62" type="curve" smooth="yes"/>
      <point x="342.6" y="717.82"/>
      <point x="317.38" y="742.78"/>
      <point x="282.76" y="742.78" type="curve" smooth="yes"/>
      <point x="245.48000000000002" y="742.78"/>
      <point x="212.3" y="710.16"/>
      <point x="212.3" y="667.66" type="curve" smooth="yes"/>
      <point x="212.3" y="633.78"/>
      <point x="235.54" y="609.82"/>
    </contour>
  </outline>
</glyph>
<glyph name="copyright" format="2">
  <advance width="781.72"/>
  <unicode hex="00A9"/>
  <outline>
    <contour>
      <point x="464.26" y="-15.0" type="curve" smooth="yes"/>
      <point x="646.56" y="-15.0"/>
      <point x="809.2" y="119.0"/>
      <point x="809.2" y="347.0" type="curve"/>
      <point x="809.2" y="575.0"/>
      <point x="646.56" y="708.66"/>
      <point x="464.26" y="708.66" type="curve"/>
      <point x="281.96" y="708.66"/>
      <point x="119.32" y="575.0"/>
      <point x="119.32" y="347.0" type="curve" smooth="yes"/>
      <point x="119.32" y="119.0"/>
      <point x="281.96" y="-15.0"/>
    </contour>
    <contour>
      <point x="476.52" y="153.88" type="curve"/>
      <point x="538.22" y="153.88"/>
      <point x="582.24" y="175.54"/>
      <point x="599.24" y="184.88" type="curve"/>
      <point x="574.98" y="261.26" type="line"/>
      <point x="556.02" y="252.92000000000002"/>
      <point x="528.98" y="239.22"/>
      <point x="483.2" y="239.22" type="curve" smooth="yes"/>
      <point x="416.06" y="239.22"/>
      <point x="390.14" y="287.62"/>
      <point x="390.14" y="351.96" type="curve" smooth="yes"/>
      <point x="390.14" y="419.24"/>
      <point x="427.98" y="457.08"/>
      <point x="481.84" y="457.08" type="curve" smooth="yes"/>
      <point x="524.28" y="457.08"/>
      <point x="548.0" y="446.36"/>
      <point x="567.34" y="435.36" type="curve"/>
      <point x="594.92" y="508.74" type="line"/>
      <point x="579.92" y="517.76"/>
      <point x="540.24" y="541.76"/>
      <point x="475.9" y="541.76" type="curve" smooth="yes"/>
      <point x="371.3" y="541.76"/>
      <point x="293.18" y="471.38"/>
      <point x="293.18" y="348.66" type="curve" smooth="yes"/>
      <point x="293.18" y="224.26"/>
      <point x="362.62" y="153.88"/>
    </contour>
    <contour>
      <point x="464.26" y="66.38" type="curve" smooth="yes"/>
      <point x="313.14" y="66.38"/>
      <point x="206.7" y="178.5"/>
      <point x="206.7" y="347.0" type="curve"/>
      <point x="206.7" y="515.5"/>
      <point x="313.14" y="627.28"/>
      <point x="464.26" y="627.28" type="curve" smooth="yes"/>
      <point x="615.38" y="627.28"/>
      <point x="721.82" y="515.5"/>
      <point x="721.82" y="347.0" type="curve"/>
      <point x="721.82" y="178.5"/>
      <point x="615.38" y="66.38"/>
    </contour>
  </outline>
</glyph>
<glyph name="ordfeminine" format="2">
  <advance width="459.08"/>
  <unicode hex="00AA"/>
  <outline>
    <contour>
      <point x="294.04" y="314.18" type="curve" smooth="yes"/>
      <point x="334.14" y="314.18"/>
      <point x="368.8" y="327.2"/>
      <point x="400.06" y="347.48" type="curve"/>
      <point x="404.06" y="336.46"/>
      <point x="408.72" y="326.14"/>
      <point x="414.08" y="315.46" type="curve"/>
      <point x="494.82" y="327.44" type="line"/>
      <point x="465.48" y="393.58"/>
      <point x="469.7" y="447.44"/>
      <point x="485.42" y="501.96" type="curve" smooth="yes"/>
      <point x="533.16" y="688.64" type="line"/>
      <point x="495.0" y="700.96"/>
      <point x="453.68" y="706.64"/>
      <point x="422.16" y="706.64" type="curve" smooth="yes"/>
      <point x="247.26" y="706.64"/>
      <point x="161.22" y="577.98"/>
      <point x="161.22" y="464.28" type="curve" smooth="yes"/>
      <point x="161.22" y="380.32"/>
      <point x="206.82" y="314.18"/>
    </contour>
    <contour>
      <point x="315.26" y="396.5" type="curve" smooth="yes"/>
      <point x="273.96" y="396.5"/>
      <point x="250.9" y="425.42"/>
      <point x="250.9" y="470.52" type="curve" smooth="yes"/>
      <point x="250.9" y="555.28"/>
      <point x="314.28" y="624.98"/>
      <point x="400.22" y="624.98" type="curve" smooth="yes"/>
      <point x="409.58" y="624.98"/>
      <point x="417.56" y="623.64"/>
      <point x="425.54" y="622.3" type="curve"/>
      <point x="393.1" y="499.26" type="line" smooth="yes"/>
      <point x="387.42" y="477.56"/>
      <point x="380.44" y="445.24"/>
      <point x="384.44" y="421.56" type="curve"/>
      <point x="361.06" y="404.2"/>
      <point x="336.98" y="396.5"/>
    </contour>
  </outline>
</glyph>
<glyph name="logicalnot" format="2">
  <advance width="566.64"/>
  <unicode hex="00AC"/>
  <outline>
    <contour>
      <point x="398.74" y="52.02" type="line"/>
      <point x="508.22" y="52.02" type="line"/>
      <point x="592.5" y="401.84" type="line"/>
      <point x="135.42" y="401.84" type="line"/>
      <point x="111.2" y="300.3" type="line"/>
      <point x="458.8" y="300.3" type="line"/>
    </contour>
  </outline>
</glyph>
<glyph name="registered" format="2">
  <advance width="781.72"/>
  <unicode hex="00AE"/>
  <outline>
    <contour>
      <point x="464.26" y="-15.0" type="curve" smooth="yes"/>
      <point x="646.56" y="-15.0"/>
      <point x="809.2" y="119.0"/>
      <point x="809.2" y="347.0" type="curve" smooth="yes"/>
      <point x="809.2" y="575.0"/>
      <point x="646.56" y="708.66"/>
      <point x="464.26" y="708.66" type="curve" smooth="yes"/>
      <point x="281.96" y="708.66"/>
      <point x="119.32" y="575.0"/>
      <point x="119.32" y="347.0" type="curve" smooth="yes"/>
      <point x="119.32" y="119.0"/>
      <point x="281.96" y="-15.0"/>
    </contour>
    <contour>
      <point x="464.26" y="66.38" type="curve" smooth="yes"/>
      <point x="313.14" y="66.38"/>
      <point x="206.7" y="178.5"/>
      <point x="206.7" y="347.0" type="curve" smooth="yes"/>
      <point x="206.7" y="515.5"/>
      <point x="313.14" y="627.28"/>
      <point x="464.26" y="627.28" type="curve" smooth="yes"/>
      <point x="615.38" y="627.28"/>
      <point x="721.82" y="515.5"/>
      <point x="721.82" y="347.0" type="curve" smooth="yes"/>
      <point x="721.82" y="178.5"/>
      <point x="615.38" y="66.38"/>
    </contour>
    <contour>
      <point x="330.56" y="167.48" type="line"/>
      <point x="413.28" y="167.48" type="line"/>
      <point x="413.28" y="298.4" type="line"/>
      <point x="455.16" y="298.4" type="line"/>
      <point x="459.18" y="298.4"/>
      <point x="464.22" y="298.4"/>
      <point x="469.26" y="298.74" type="curve"/>
      <point x="491.98" y="267.06"/>
      <point x="514.5" y="222.22"/>
      <point x="541.24" y="167.48" type="curve"/>
      <point x="629.3" y="167.48" type="line"/>
      <point x="599.64" y="232.1"/>
      <point x="572.36" y="281.44"/>
      <point x="545.08" y="319.62" type="curve"/>
      <point x="585.86" y="338.62"/>
      <point x="607.58" y="373.34"/>
      <point x="607.58" y="416.06" type="curve" smooth="yes"/>
      <point x="607.58" y="497.74"/>
      <point x="551.2" y="538.42"/>
      <point x="442.16" y="538.42" type="curve" smooth="yes"/>
      <point x="411.8" y="538.42"/>
      <point x="370.46" y="534.42"/>
      <point x="330.56" y="524.78" type="curve"/>
    </contour>
    <contour>
      <point x="413.28" y="365.18" type="line"/>
      <point x="413.28" y="464.65999999999997" type="line"/>
      <point x="422.66" y="465.65999999999997"/>
      <point x="436.38" y="466.65999999999997"/>
      <point x="449.12" y="466.65999999999997" type="curve" smooth="yes"/>
      <point x="492.6" y="466.65999999999997"/>
      <point x="523.5" y="454.26"/>
      <point x="523.5" y="417.06" type="curve" smooth="yes"/>
      <point x="523.5" y="375.88"/>
      <point x="492.98" y="365.18"/>
      <point x="442.16" y="365.18" type="curve" smooth="yes"/>
    </contour>
  </outline>
</glyph>
<glyph name="macron" format="2">
  <advance width="362.4"/>
  <unicode hex="00AF"/>
  <outline>
    <contour>
      <point x="172.7" y="631.16" type="line"/>
      <point x="473.28" y="631.16" type="line"/>
      <point x="494.2" y="717.86" type="line"/>
      <point x="193.62" y="717.86" type="line"/>
    </contour>
  </outline>
</glyph>
<glyph name="degree" format="2">
  <advance width="357.18"/>
  <unicode hex="00B0"/>
  <outline>
    <contour>
      <point x="313.18" y="484.6" type="curve" smooth="yes"/>
      <point x="393.74" y="484.6"/>
      <point x="463.64" y="539.86"/>
      <point x="463.64" y="631.44" type="curve" smooth="yes"/>
      <point x="463.64" y="723.02"/>
      <point x="393.74" y="778.28"/>
      <point x="313.18" y="778.28" type="curve" smooth="yes"/>
      <point x="232.62" y="778.28"/>
      <point x="162.72" y="723.02"/>
      <point x="162.72" y="631.44" type="curve" smooth="yes"/>
      <point x="162.72" y="539.86"/>
      <point x="232.62" y="484.6"/>
    </contour>
    <contour>
      <point x="313.18" y="564.58" type="curve" smooth="yes"/>
      <point x="279.06" y="564.58"/>
      <point x="249.0" y="590.32"/>
      <point x="249.0" y="631.44" type="curve" smooth="yes"/>
      <point x="249.0" y="672.56"/>
      <point x="279.06" y="698.3"/>
      <point x="313.18" y="698.3" type="curve" smooth="yes"/>
      <point x="347.3" y="698.3"/>
      <point x="377.36" y="672.56"/>
      <point x="377.36" y="631.44" type="curve" smooth="yes"/>
      <point x="377.36" y="590.32"/>
      <point x="347.3" y="564.58"/>
    </contour>
  </outline>
</glyph>
<glyph name="plusminus" format="2">
  <advance width="566.64"/>
  <unicode hex="00B1"/>
  <outline>
    <contour>
      <point x="260.9" y="148.78" type="line"/>
      <point x="370.38" y="148.78" type="line"/>
      <point x="415.46" y="335.1" type="line"/>
      <point x="589.94" y="335.1" type="line"/>
      <point x="614.5" y="436.64" type="line"/>
      <point x="439.68" y="436.64" type="line"/>
      <point x="484.76" y="622.62" type="line"/>
      <point x="374.94" y="622.62" type="line"/>
      <point x="329.86" y="436.64" type="line"/>
      <point x="155.04" y="436.64" type="line"/>
      <point x="130.48" y="335.1" type="line"/>
      <point x="305.64" y="335.1" type="line"/>
    </contour>
    <contour>
      <point x="54.2" y="0.33999999999999997" type="line"/>
      <point x="509.6" y="0.33999999999999997" type="line"/>
      <point x="533.82" y="101.88" type="line"/>
      <point x="77.76" y="101.88" type="line"/>
    </contour>
  </outline>
</glyph>
<glyph name="twosuperior" format="2">
  <advance width="363.0"/>
  <unicode hex="00B2"/>
  <outline>
    <contour>
      <point x="114.53999999999999" y="307.1" type="curve"/>
      <point x="385.9" y="307.1" type="line"/>
      <point x="403.18" y="383.48" type="line"/>
      <point x="228.36" y="383.48" type="line"/>
      <point x="237.04" y="407.32"/>
      <point x="283.76" y="433.68"/>
      <point x="325.54" y="459.74" type="curve" smooth="yes"/>
      <point x="394.14" y="502.02"/>
      <point x="435.36" y="544.34"/>
      <point x="435.36" y="608.06" type="curve" smooth="yes"/>
      <point x="435.36" y="681.06"/>
      <point x="379.72" y="708.66"/>
      <point x="316.46" y="708.66" type="curve" smooth="yes"/>
      <point x="262.56" y="708.66"/>
      <point x="212.34" y="689.72"/>
      <point x="170.04" y="652.44" type="curve"/>
      <point x="200.92" y="587.72" type="line"/>
      <point x="237.46" y="616.94"/>
      <point x="272.48" y="630.96"/>
      <point x="302.92" y="630.96" type="curve" smooth="yes"/>
      <point x="328.3" y="630.96"/>
      <point x="345.7" y="617.26"/>
      <point x="345.7" y="594.82" type="curve" smooth="yes"/>
      <point x="345.7" y="560.34"/>
      <point x="325.14" y="541.26"/>
      <point x="257.65999999999997" y="502.68" type="curve" smooth="yes"/>
      <point x="161.28" y="449.16"/>
      <point x="116.92" y="396.58"/>
    </contour>
  </outline>
</glyph>
<glyph name="threesuperior" format="2">
  <advance width="363.0"/>
  <unicode hex="00B3"/>
  <outline>
    <contour>
      <point x="236.42" y="298.44" type="curve" smooth="yes"/>
      <point x="339.64" y="298.44"/>
      <point x="418.36" y="347.65999999999997"/>
      <point x="418.36" y="434.4" type="curve" smooth="yes"/>
      <point x="418.36" y="470.06"/>
      <point x="400.04" y="501.38"/>
      <point x="366.28" y="516.38" type="curve"/>
      <point x="413.36" y="536.06"/>
      <point x="438.4" y="578.08"/>
      <point x="438.4" y="617.08" type="curve" smooth="yes"/>
      <point x="438.4" y="680.22"/>
      <point x="390.54" y="708.66"/>
      <point x="325.52" y="708.66" type="curve" smooth="yes"/>
      <point x="276.26" y="708.66"/>
      <point x="223.36" y="693.7"/>
      <point x="190.36" y="676.02" type="curve"/>
      <point x="207.96" y="609.62" type="line"/>
      <point x="232.57999999999998" y="621.6"/>
      <point x="270.94" y="634.6"/>
      <point x="304.28" y="634.6" type="curve" smooth="yes"/>
      <point x="339.0" y="634.6"/>
      <point x="354.7" y="620.26"/>
      <point x="354.7" y="599.84" type="curve" smooth="yes"/>
      <point x="354.7" y="571.74"/>
      <point x="325.94" y="544.0"/>
      <point x="273.08" y="544.0" type="curve" smooth="yes"/>
      <point x="235.9" y="544.0" type="line"/>
      <point x="218.96" y="477.88" type="line"/>
      <point x="254.66" y="477.88" type="line" smooth="yes"/>
      <point x="310.56" y="477.88"/>
      <point x="333.98" y="462.84"/>
      <point x="333.98" y="433.38" type="curve" smooth="yes"/>
      <point x="333.98" y="393.96"/>
      <point x="293.92" y="374.16"/>
      <point x="241.4" y="374.16" type="curve" smooth="yes"/>
      <point x="204.44" y="374.16"/>
      <point x="165.16" y="383.8"/>
      <point x="140.5" y="398.78" type="curve"/>
      <point x="106.96" y="328.38" type="line"/>
      <point x="140.6" y="309.08"/>
      <point x="188.18" y="298.44"/>
    </contour>
  </outline>
</glyph>
<glyph name="acute" format="2">
  <advance width="303.0"/>
  <unicode hex="00B4"/>
  <outline>
    <contour>
      <point x="239.72" y="578.38" type="line"/>
      <point x="416.04" y="711.66" type="line"/>
      <point x="352.3" y="790.16" type="line"/>
      <point x="190.26" y="634.26" type="line"/>
    </contour>
  </outline>
</glyph>
<glyph name="mu" format="2">
  <advance width="607.86"/>
  <unicode hex="00B5"/>
  <outline>
    <contour>
      <point x="36.02" y="-172.46" type="line"/>
      <point x="155.8" y="-172.46" type="line"/>
      <point x="182.28" y="-63.5" type="line"/>
      <point x="191.56" y="-25.380000000000003"/>
      <point x="195.24" y="-3.7600000000000016"/>
      <point x="196.6" y="22.479999999999997" type="curve"/>
      <point x="220.26" y="0.41999999999999993"/>
      <point x="252.32" y="-12.0"/>
      <point x="291.52" y="-12.0" type="curve" smooth="yes"/>
      <point x="342.6" y="-12.0"/>
      <point x="395.66" y="7.32"/>
      <point x="442.38" y="43.06" type="curve"/>
      <point x="460.02" y="9.96"/>
      <point x="505.84" y="-9.66"/>
      <point x="570.46" y="-10.32" type="curve"/>
      <point x="608.24" y="91.24000000000001" type="line"/>
      <point x="528.22" y="99.30000000000001"/>
      <point x="541.22" y="150.44"/>
      <point x="558.22" y="216.8" type="curve" smooth="yes"/>
      <point x="631.94" y="522.94" type="line"/>
      <point x="511.5" y="522.94" type="line"/>
      <point x="445.82" y="250.96" type="line" smooth="yes"/>
      <point x="436.1" y="210.74"/>
      <point x="429.08" y="171.08"/>
      <point x="426.76" y="137.4" type="curve"/>
      <point x="386.74" y="100.02000000000001"/>
      <point x="352.96" y="90.24000000000001"/>
      <point x="319.98" y="90.24000000000001" type="curve" smooth="yes"/>
      <point x="218.64" y="90.24000000000001"/>
      <point x="238.14" y="164.6"/>
      <point x="259.9" y="259.3" type="curve" smooth="yes"/>
      <point x="322.82" y="522.94" type="line"/>
      <point x="202.38" y="522.94" type="line"/>
    </contour>
  </outline>
</glyph>
<glyph name="paragraph" format="2">
  <advance width="667.5"/>
  <unicode hex="00B6"/>
  <outline>
    <contour>
      <point x="212.88" y="-185.0" type="line"/>
      <point x="326.32" y="-185.0" type="line"/>
      <point x="516.08" y="604.36" type="line"/>
      <point x="545.76" y="605.38"/>
      <point x="580.56" y="603.7"/>
      <point x="605.34" y="600.36" type="curve"/>
      <point x="416.58" y="-185.0" type="line"/>
      <point x="530.02" y="-185.0" type="line"/>
      <point x="738.02" y="683.0" type="line"/>
      <point x="677.56" y="695.34"/>
      <point x="607.78" y="700.0"/>
      <point x="549.16" y="700.0" type="curve" smooth="yes"/>
      <point x="298.24" y="700.0"/>
      <point x="149.22" y="596.08"/>
      <point x="149.22" y="437.0" type="curve" smooth="yes"/>
      <point x="149.22" y="337.74"/>
      <point x="210.62" y="269.94"/>
      <point x="319.88" y="260.04" type="curve"/>
    </contour>
  </outline>
</glyph>
<glyph name="cedilla" format="2">
  <advance width="329.4"/>
  <unicode hex="00B8"/>
  <outline>
    <contour>
      <point x="101.7" y="-209.44" type="curve" smooth="yes"/>
      <point x="169.32" y="-209.44"/>
      <point x="230.52" y="-177.78"/>
      <point x="230.52" y="-107.94" type="curve" smooth="yes"/>
      <point x="230.52" y="-79.24"/>
      <point x="216.2" y="-57.64"/>
      <point x="186.52" y="-41.96" type="curve"/>
      <point x="197.18" y="-25.96"/>
      <point x="219.16" y="6.0"/>
      <point x="230.16" y="20.0" type="curve"/>
      <point x="152.14" y="20.0" type="line"/>
      <point x="143.46" y="7.34"/>
      <point x="108.12" y="-39.0"/>
      <point x="92.8" y="-65.34" type="curve"/>
      <point x="132.44" y="-81.0"/>
      <point x="141.78" y="-90.66"/>
      <point x="141.78" y="-107.36" type="curve" smooth="yes"/>
      <point x="141.78" y="-125.4"/>
      <point x="126.4" y="-133.74"/>
      <point x="98.04" y="-133.74" type="curve" smooth="yes"/>
      <point x="79.06" y="-133.74"/>
      <point x="57.44" y="-128.76"/>
      <point x="41.12" y="-121.44" type="curve"/>
      <point x="11.239999999999998" y="-190.18" type="line"/>
      <point x="38.56" y="-203.48"/>
      <point x="70.12" y="-209.44"/>
    </contour>
  </outline>
</glyph>
<glyph name="onesuperior" format="2">
  <advance width="363.0"/>
  <unicode hex="00B9"/>
  <outline>
    <contour>
      <point x="225.42" y="307.1" type="line"/>
      <point x="319.02" y="307.1" type="line"/>
      <point x="412.66" y="700.32" type="line"/>
      <point x="343.0" y="700.32" type="line"/>
      <point x="298.04" y="668.64"/>
      <point x="243.48" y="641.34"/>
      <point x="179.8" y="618.68" type="curve"/>
      <point x="189.78" y="546.98" type="line"/>
      <point x="224.28" y="558.58"/>
      <point x="260.76" y="570.94"/>
      <point x="292.82" y="590.02" type="curve"/>
    </contour>
  </outline>
</glyph>
<glyph name="ordmasculine" format="2">
  <advance width="440.7"/>
  <unicode hex="00BA"/>
  <outline>
    <contour>
      <point x="293.38" y="314.5" type="curve" smooth="yes"/>
      <point x="439.98" y="314.5"/>
      <point x="517.98" y="442.5"/>
      <point x="517.98" y="570.06" type="curve" smooth="yes"/>
      <point x="517.98" y="650.6"/>
      <point x="475.06" y="707.64"/>
      <point x="379.22" y="707.64" type="curve" smooth="yes"/>
      <point x="232.62" y="707.64"/>
      <point x="154.62" y="579.64"/>
      <point x="154.62" y="452.08" type="curve" smooth="yes"/>
      <point x="154.62" y="371.54"/>
      <point x="197.54" y="314.5"/>
    </contour>
    <contour>
      <point x="305.4" y="390.56" type="curve" smooth="yes"/>
      <point x="269.6" y="390.56"/>
      <point x="242.98" y="407.36"/>
      <point x="242.98" y="460.42" type="curve" smooth="yes"/>
      <point x="242.98" y="550.04"/>
      <point x="298.34" y="631.58"/>
      <point x="367.2" y="631.58" type="curve" smooth="yes"/>
      <point x="403.0" y="631.58"/>
      <point x="429.62" y="614.12"/>
      <point x="429.62" y="561.72" type="curve" smooth="yes"/>
      <point x="429.62" y="472.1"/>
      <point x="374.26" y="390.56"/>
    </contour>
  </outline>
</glyph>
<glyph name="questiondown" format="2">
  <advance width="414.7"/>
  <unicode hex="00BF"/>
  <outline>
    <contour>
      <point x="228.46" y="-193.28" type="curve" smooth="yes"/>
      <point x="290.0" y="-193.28"/>
      <point x="354.54" y="-175.66"/>
      <point x="402.46" y="-150.06" type="curve"/>
      <point x="387.2" y="-54.14" type="line"/>
      <point x="353.88" y="-73.1"/>
      <point x="297.64" y="-90.4"/>
      <point x="251.68" y="-90.4" type="curve" smooth="yes"/>
      <point x="210.6" y="-90.4"/>
      <point x="177.84" y="-74.03999999999999"/>
      <point x="177.84" y="-31.22" type="curve" smooth="yes"/>
      <point x="177.84" y="12.200000000000001"/>
      <point x="207.14" y="41.28"/>
      <point x="285.42" y="100.9" type="curve" smooth="yes"/>
      <point x="357.86" y="157.0"/>
      <point x="411.86" y="208.68"/>
      <point x="412.54" y="297.1" type="curve"/>
      <point x="306.72" y="297.1" type="line"/>
      <point x="303.42" y="239.3"/>
      <point x="256.0" y="199.22"/>
      <point x="202.28" y="158.48" type="curve" smooth="yes"/>
      <point x="133.96" y="105.48"/>
      <point x="57.68" y="54.120000000000005"/>
      <point x="57.68" y="-51.7" type="curve" smooth="yes"/>
      <point x="57.68" y="-149.38"/>
      <point x="138.24" y="-193.28"/>
    </contour>
    <contour>
      <point x="372.78" y="369.54" type="curve" smooth="yes"/>
      <point x="418.68" y="369.54"/>
      <point x="458.16" y="408.14"/>
      <point x="458.16" y="458.26" type="curve" smooth="yes"/>
      <point x="458.16" y="503.06"/>
      <point x="429.96" y="528.04"/>
      <point x="387.04" y="528.04" type="curve" smooth="yes"/>
      <point x="341.14" y="528.04"/>
      <point x="301.65999999999997" y="489.44"/>
      <point x="301.65999999999997" y="439.32" type="curve" smooth="yes"/>
      <point x="301.65999999999997" y="394.52"/>
      <point x="329.86" y="369.54"/>
    </contour>
  </outline>
</glyph>
<glyph name="Aring" format="2">
  <advance width="682.72"/>
  <unicode hex="00C5"/>
  <outline>
    <contour>
      <point x="16.7" y="0.0" type="curve"/>
      <point x="149.44" y="0.0" type="line"/>
      <point x="178.82" y="56.76"/>
      <point x="210.52" y="111.18"/>
      <point x="240.24" y="164.26" type="curve"/>
      <point x="522.68" y="164.26" type="line"/>
      <point x="528.04" y="110.16"/>
      <point x="532.4" y="55.74"/>
      <point x="536.76" y="0.0" type="curve"/>
      <point x="664.18" y="0.0" type="line"/>
      <point x="640.46" y="222.34"/>
      <point x="608.16" y="471.58"/>
      <point x="571.22" y="660.86" type="curve"/>
      <point x="603.9" y="678.16"/>
      <point x="627.58" y="710.82"/>
      <point x="627.58" y="756.8" type="curve" smooth="yes"/>
      <point x="627.58" y="825.68"/>
      <point x="576.32" y="865.0"/>
      <point x="516.74" y="865.0" type="curve" smooth="yes"/>
      <point x="458.8" y="865.0"/>
      <point x="406.88" y="825.68"/>
      <point x="406.88" y="756.8" type="curve" smooth="yes"/>
      <point x="406.88" y="723.16"/>
      <point x="418.88" y="696.84"/>
      <point x="438.22" y="677.86" type="curve"/>
      <point x="303.58" y="486.14"/>
      <point x="173.42000000000002" y="272.26"/>
    </contour>
    <contour>
      <point x="293.38" y="264.5" type="line"/>
      <point x="352.2" y="367.06"/>
      <point x="414.36" y="465.6"/>
      <point x="478.86" y="566.16" type="curve"/>
      <point x="494.24" y="462.26"/>
      <point x="503.98" y="358.42"/>
      <point x="513.7" y="264.5" type="curve"/>
    </contour>
    <contour>
      <point x="516.74" y="705.72" type="curve" smooth="yes"/>
      <point x="490.68" y="705.72"/>
      <point x="467.66" y="723.42"/>
      <point x="467.66" y="756.8" type="curve" smooth="yes"/>
      <point x="467.66" y="789.84"/>
      <point x="490.68" y="807.88"/>
      <point x="516.74" y="807.88" type="curve" smooth="yes"/>
      <point x="543.46" y="807.88"/>
      <point x="566.48" y="789.84"/>
      <point x="566.48" y="756.8" type="curve" smooth="yes"/>
      <point x="566.48" y="723.42"/>
      <point x="543.46" y="705.72"/>
    </contour>
  </outline>
</glyph>
<glyph name="AE" format="2">
  <advance width="947.76"/>
  <unicode hex="00C6"/>
  <outline>
    <contour>
      <point x="6.119999999999999" y="0.0" type="curve"/>
      <point x="136.88" y="0.0" type="line"/>
      <point x="174.92000000000002" y="54.74"/>
      <point x="221.92000000000002" y="117.42"/>
      <point x="265.64" y="172.84" type="curve"/>
      <point x="510.38" y="172.84" type="line"/>
      <point x="468.68" y="0.0" type="line"/>
      <point x="908.86" y="0.0" type="line"/>
      <point x="934.06" y="106.52000000000001" type="line"/>
      <point x="613.36" y="106.52000000000001" type="line"/>
      <point x="663.22" y="310.58" type="line"/>
      <point x="925.24" y="310.58" type="line"/>
      <point x="950.12" y="414.78" type="line"/>
      <point x="687.42" y="414.78" type="line"/>
      <point x="728.6" y="586.48" type="line"/>
      <point x="1026.3" y="586.48" type="line"/>
      <point x="1051.84" y="693.0" type="line"/>
      <point x="585.4" y="693.0" type="line"/>
      <point x="376.34" y="475.94"/>
      <point x="217.22" y="281.86"/>
    </contour>
    <contour>
      <point x="342.0" y="274.4" type="line"/>
      <point x="428.78" y="380.0"/>
      <point x="543.0" y="512.2"/>
      <point x="607.5" y="579.3199999999999" type="curve"/>
      <point x="534.28" y="274.4" type="line"/>
    </contour>
  </outline>
</glyph>
<glyph name="Ccedilla" format="2">
  <advance width="628.48"/>
  <unicode hex="00C7"/>
  <outline>
    <contour>
      <point x="299.5" y="-209.44" type="curve" smooth="yes"/>
      <point x="367.12" y="-209.44"/>
      <point x="428.32" y="-177.78"/>
      <point x="428.32" y="-107.94" type="curve" smooth="yes"/>
      <point x="428.32" y="-79.24"/>
      <point x="414.0" y="-57.64"/>
      <point x="384.32" y="-41.96" type="curve"/>
      <point x="388.98" y="-34.3"/>
      <point x="395.3" y="-24.32"/>
      <point x="402.62" y="-14.34" type="curve"/>
      <point x="487.42" y="-13.34"/>
      <point x="550.84" y="3.0"/>
      <point x="604.82" y="30.34" type="curve"/>
      <point x="590.54" y="134.56" type="line"/>
      <point x="550.0" y="115.6"/>
      <point x="497.0" y="95.5"/>
      <point x="418.04" y="95.5" type="curve" smooth="yes"/>
      <point x="313.54" y="95.5"/>
      <point x="258.84000000000003" y="154.98000000000002"/>
      <point x="258.84000000000003" y="277.44" type="curve" smooth="yes"/>
      <point x="258.84000000000003" y="461.68"/>
      <point x="372.88" y="600.14"/>
      <point x="529.98" y="600.14" type="curve" smooth="yes"/>
      <point x="581.66" y="600.14"/>
      <point x="624.74" y="589.44"/>
      <point x="678.36" y="560.1" type="curve"/>
      <point x="725.86" y="661.04" type="line"/>
      <point x="662.94" y="695.66"/>
      <point x="604.66" y="708.66"/>
      <point x="541.34" y="708.66" type="curve" smooth="yes"/>
      <point x="292.04" y="708.66"/>
      <point x="128.1" y="505.34"/>
      <point x="128.1" y="270.82" type="curve" smooth="yes"/>
      <point x="128.1" y="114.0"/>
      <point x="206.84" y="17.82"/>
      <point x="329.22" y="-7.06" type="curve"/>
      <point x="315.56" y="-26.04"/>
      <point x="302.22" y="-47.04"/>
      <point x="290.6" y="-65.34" type="curve"/>
      <point x="330.24" y="-80.34"/>
      <point x="339.58" y="-90.66"/>
      <point x="339.58" y="-107.36" type="curve" smooth="yes"/>
      <point x="339.58" y="-125.4"/>
      <point x="324.2" y="-133.74"/>
      <point x="295.84" y="-133.74" type="curve" smooth="yes"/>
      <point x="276.86" y="-133.74"/>
      <point x="255.24" y="-128.76"/>
      <point x="238.92" y="-121.44" type="curve"/>
      <point x="209.04" y="-190.18" type="line"/>
      <point x="236.36" y="-203.48"/>
      <point x="267.92" y="-209.44"/>
    </contour>
  </outline>
</glyph>
<glyph name="Eth" format="2">
  <advance width="709.16"/>
  <unicode hex="00D0"/>
  <outline>
    <contour>
      <point x="271.54" y="-7.98" type="curve" smooth="yes"/>
      <point x="583.88" y="-7.98"/>
      <point x="743.8" y="175.4"/>
      <point x="743.8" y="424.02" type="curve" smooth="yes"/>
      <point x="743.8" y="595.48"/>
      <point x="630.18" y="700.32"/>
      <point x="434.22" y="700.32" type="curve" smooth="yes"/>
      <point x="379.58" y="700.32"/>
      <point x="314.72" y="695.32"/>
      <point x="242.46" y="680.66" type="curve"/>
      <point x="176.76" y="407.82" type="line"/>
      <point x="96.1" y="407.82" type="line"/>
      <point x="74.52" y="313.22" type="line"/>
      <point x="154.52" y="313.22" type="line"/>
      <point x="82.14" y="12.34" type="line"/>
      <point x="140.62" y="-1.6400000000000001"/>
      <point x="216.56" y="-7.98"/>
    </contour>
    <contour>
      <point x="296.72" y="99.2" type="curve" smooth="yes"/>
      <point x="268.7" y="99.2"/>
      <point x="250.24" y="100.53999999999999"/>
      <point x="229.12" y="102.9" type="curve"/>
      <point x="279.28" y="313.22" type="line"/>
      <point x="408.3" y="313.22" type="line"/>
      <point x="430.54" y="407.82" type="line"/>
      <point x="302.18" y="407.82" type="line"/>
      <point x="345.66" y="589.44" type="line"/>
      <point x="371.08" y="592.46"/>
      <point x="396.18" y="594.14"/>
      <point x="420.6" y="594.14" type="curve" smooth="yes"/>
      <point x="546.64" y="594.14"/>
      <point x="613.72" y="534.18"/>
      <point x="613.72" y="420.1" type="curve" smooth="yes"/>
      <point x="613.72" y="221.78"/>
      <point x="491.82" y="99.2"/>
    </contour>
  </outline>
</glyph>
<glyph name="multiply" format="2">
  <advance width="566.64"/>
  <unicode hex="00D7"/>
  <outline>
    <contour>
      <point x="161.38" y="83.86" type="line"/>
      <point x="335.76" y="225.24" type="line"/>
      <point x="440.16" y="86.5" type="line"/>
      <point x="522.1" y="152.18" type="line"/>
      <point x="416.36" y="291.6" type="line"/>
      <point x="593.82" y="434.02" type="line"/>
      <point x="536.06" y="509.02" type="line"/>
      <point x="358.28" y="365.6" type="line"/>
      <point x="252.52" y="506.38" type="line"/>
      <point x="170.57999999999998" y="440.36" type="line"/>
      <point x="277.34" y="299.24" type="line"/>
      <point x="103.96" y="159.2" type="line"/>
    </contour>
  </outline>
</glyph>
<glyph name="Oslash" format="2">
  <advance width="753.94"/>
  <unicode hex="00D8"/>
  <outline>
    <contour>
      <point x="174.92" y="-39.56" type="line"/>
      <point x="237.22" y="31.4" type="line"/>
      <point x="281.22" y="0.6799999999999999"/>
      <point x="335.24" y="-14.34"/>
      <point x="395.56" y="-14.34" type="curve" smooth="yes"/>
      <point x="625.88" y="-14.34"/>
      <point x="789.24" y="192.0"/>
      <point x="789.24" y="424.12" type="curve" smooth="yes"/>
      <point x="789.24" y="497.14"/>
      <point x="770.9" y="556.46"/>
      <point x="739.24" y="602.44" type="curve"/>
      <point x="806.9" y="680.1" type="line"/>
      <point x="741.14" y="733.92" type="line"/>
      <point x="678.8" y="662.58" type="line"/>
      <point x="634.8" y="693.3"/>
      <point x="581.44" y="708.66"/>
      <point x="521.78" y="708.66" type="curve" smooth="yes"/>
      <point x="293.44" y="708.66"/>
      <point x="128.1" y="501.0"/>
      <point x="128.1" y="270.54" type="curve" smooth="yes"/>
      <point x="128.1" y="197.52"/>
      <point x="144.78" y="138.52"/>
      <point x="177.1" y="92.54" type="curve"/>
      <point x="108.82" y="14.600000000000001" type="line"/>
    </contour>
    <contour>
      <point x="404.2" y="91.53999999999999" type="curve" smooth="yes"/>
      <point x="367.76" y="91.53999999999999"/>
      <point x="336.98" y="100.92"/>
      <point x="313.56" y="119.02000000000001" type="curve"/>
      <point x="650.0" y="500.92" type="line"/>
      <point x="658.08" y="478.84"/>
      <point x="662.46" y="452.72"/>
      <point x="662.46" y="423.56" type="curve" smooth="yes"/>
      <point x="662.46" y="238.84"/>
      <point x="540.46" y="91.53999999999999"/>
    </contour>
    <contour>
      <point x="266.34000000000003" y="194.06" type="line"/>
      <point x="258.26" y="215.48000000000002"/>
      <point x="254.88" y="240.6"/>
      <point x="254.88" y="270.1" type="curve" smooth="yes"/>
      <point x="254.88" y="454.15999999999997"/>
      <point x="375.56" y="602.78"/>
      <point x="512.48" y="602.78" type="curve" smooth="yes"/>
      <point x="547.26" y="602.78"/>
      <point x="578.38" y="593.4"/>
      <point x="601.8" y="574.96" type="curve"/>
    </contour>
  </outline>
</glyph>
<glyph name="Thorn" format="2">
  <advance width="603.9"/>
  <unicode hex="00DE"/>
  <outline>
    <contour>
      <point x="77.06" y="0.0" type="line"/>
      <point x="202.48000000000002" y="0.0" type="line"/>
      <point x="234.84" y="135.14" type="line"/>
      <point x="303.84000000000003" y="135.14" type="line" smooth="yes"/>
      <point x="558.98" y="135.14"/>
      <point x="664.78" y="267.44"/>
      <point x="664.78" y="398.94" type="curve" smooth="yes"/>
      <point x="664.78" y="509.46"/>
      <point x="589.06" y="588.86"/>
      <point x="423.76" y="588.86" type="curve" smooth="yes"/>
      <point x="404.0" y="588.86"/>
      <point x="365.84000000000003" y="588.52"/>
      <point x="343.78" y="585.86" type="curve"/>
      <point x="369.48" y="693.0" type="line"/>
      <point x="243.4" y="693.0" type="line"/>
    </contour>
    <contour>
      <point x="260.72" y="241.62" type="line"/>
      <point x="317.56" y="478.68" type="line"/>
      <point x="329.82" y="479.68"/>
      <point x="355.86" y="482.36"/>
      <point x="392.12" y="482.36" type="curve" smooth="yes"/>
      <point x="482.68" y="482.36"/>
      <point x="534.72" y="457.88"/>
      <point x="534.72" y="391.32" type="curve" smooth="yes"/>
      <point x="534.72" y="289.28"/>
      <point x="456.4" y="241.62"/>
      <point x="316.52" y="241.62" type="curve" smooth="yes"/>
    </contour>
  </outline>
</glyph>
<glyph name="germandbls" format="2">
  <advance width="620.68"/>
  <unicode hex="00DF"/>
  <outline>
    <contour>
      <point x="76.0" y="-189.0" type="line"/>
      <point x="141.7" y="-130.46"/>
      <point x="186.2" y="-36.56"/>
      <point x="226.44" y="133.02" type="curve" smooth="yes"/>
      <point x="326.2" y="550.04" type="line" smooth="yes"/>
      <point x="348.26" y="639.66"/>
      <point x="403.46" y="673.46"/>
      <point x="460.98" y="673.46" type="curve" smooth="yes"/>
      <point x="504.74" y="673.46"/>
      <point x="537.38" y="654.7"/>
      <point x="537.38" y="617.58" type="curve" smooth="yes"/>
      <point x="537.38" y="521.64"/>
      <point x="374.94" y="486.98"/>
      <point x="374.94" y="367.36" type="curve" smooth="yes"/>
      <point x="374.94" y="320.88"/>
      <point x="400.22" y="290.28"/>
      <point x="449.5" y="253.66" type="curve" smooth="yes"/>
      <point x="504.92" y="212.84"/>
      <point x="520.7" y="197.06"/>
      <point x="520.7" y="163.24" type="curve" smooth="yes"/>
      <point x="520.7" y="115.96000000000001"/>
      <point x="477.14" y="88.92"/>
      <point x="421.0" y="88.92" type="curve" smooth="yes"/>
      <point x="387.24" y="88.92"/>
      <point x="349.18" y="99.30000000000001"/>
      <point x="313.58" y="120.6" type="curve"/>
      <point x="269.08" y="23.32" type="line"/>
      <point x="312.4" y="-1.02"/>
      <point x="365.06" y="-12.0"/>
      <point x="416.36" y="-12.0" type="curve" smooth="yes"/>
      <point x="531.6" y="-12.0"/>
      <point x="641.14" y="48.28"/>
      <point x="641.14" y="175.84" type="curve" smooth="yes"/>
      <point x="641.14" y="234.74"/>
      <point x="612.96" y="274.68"/>
      <point x="574.92" y="301.68" type="curve" smooth="yes"/>
      <point x="528.7" y="334.9"/>
      <point x="498.36" y="352.56"/>
      <point x="498.36" y="383.62" type="curve" smooth="yes"/>
      <point x="498.36" y="460.2"/>
      <point x="653.54" y="493.44"/>
      <point x="653.54" y="633.44" type="curve" smooth="yes"/>
      <point x="653.54" y="721.04"/>
      <point x="570.16" y="776.0"/>
      <point x="466.58" y="776.0" type="curve" smooth="yes"/>
      <point x="352.6" y="776.0"/>
      <point x="247.4" y="717.96"/>
      <point x="210.7" y="560.86" type="curve" smooth="yes"/>
      <point x="99.96" y="97.6" type="line"/>
      <point x="78.62" y="4.960000000000001"/>
      <point x="40.46" y="-100.56"/>
      <point x="-28.520000000000003" y="-173.4" type="curve"/>
    </contour>
  </outline>
</glyph>
<glyph name="ae" format="2">
  <advance width="815.24"/>
  <unicode hex="00E6"/>
  <outline>
    <contour>
      <point x="234.94" y="-13.32" type="curve" smooth="yes"/>
      <point x="313.4" y="-13.32"/>
      <point x="391.66" y="22.439999999999998"/>
      <point x="438.0" y="80.52" type="curve"/>
      <point x="473.86" y="15.16"/>
      <point x="536.1" y="-13.32"/>
      <point x="617.94" y="-13.32" type="curve" smooth="yes"/>
      <point x="675.3" y="-13.32"/>
      <point x="733.0" y="0.040000000000000036"/>
      <point x="780.26" y="17.72" type="curve"/>
      <point x="770.62" y="115.34" type="line"/>
      <point x="728.56" y="97.62"/>
      <point x="682.88" y="88.92"/>
      <point x="640.9" y="88.92" type="curve" smooth="yes"/>
      <point x="557.92" y="88.92"/>
      <point x="530.28" y="117.04"/>
      <point x="524.34" y="192.1" type="curve"/>
      <point x="732.0" y="195.16"/>
      <point x="863.2" y="241.98"/>
      <point x="863.2" y="393.36" type="curve" smooth="yes"/>
      <point x="863.2" y="490.3"/>
      <point x="789.94" y="536.26"/>
      <point x="705.68" y="536.26" type="curve" smooth="yes"/>
      <point x="634.3" y="536.26"/>
      <point x="553.62" y="503.54"/>
      <point x="502.62" y="440.76" type="curve"/>
      <point x="469.08" y="506.78"/>
      <point x="404.52" y="536.26"/>
      <point x="321.7" y="536.26" type="curve" smooth="yes"/>
      <point x="264.34000000000003" y="536.26"/>
      <point x="205.32" y="522.24"/>
      <point x="160.7" y="505.22" type="curve"/>
      <point x="170.34" y="408.28" type="line"/>
      <point x="212.4" y="426.0"/>
      <point x="258.08" y="434.7"/>
      <point x="300.06" y="434.7" type="curve" smooth="yes"/>
      <point x="383.72" y="434.7"/>
      <point x="411.36" y="404.54"/>
      <point x="417.3" y="331.52" type="curve"/>
      <point x="209.64" y="327.78"/>
      <point x="77.76" y="280.96"/>
      <point x="77.76" y="129.58" type="curve" smooth="yes"/>
      <point x="77.76" y="30.68"/>
      <point x="151.0" y="-13.32"/>
    </contour>
    <contour>
      <point x="254.18" y="84.62" type="curve" smooth="yes"/>
      <point x="213.4" y="84.62"/>
      <point x="189.3" y="105.02000000000001"/>
      <point x="189.3" y="142.82" type="curve" smooth="yes"/>
      <point x="189.3" y="194.8"/>
      <point x="224.16" y="238.12"/>
      <point x="411.26" y="242.78" type="curve"/>
      <point x="391.18" y="140.68"/>
      <point x="326.6" y="84.62"/>
    </contour>
    <contour>
      <point x="530.38" y="279.48" type="curve"/>
      <point x="550.46" y="381.92"/>
      <point x="615.04" y="438.32"/>
      <point x="686.78" y="438.32" type="curve" smooth="yes"/>
      <point x="727.56" y="438.32"/>
      <point x="751.66" y="417.92"/>
      <point x="751.66" y="380.12" type="curve" smooth="yes"/>
      <point x="751.66" y="327.46"/>
      <point x="716.8" y="284.14"/>
    </contour>
  </outline>
</glyph>
<glyph name="ccedilla" format="2">
  <advance width="471.5"/>
  <unicode hex="00E7"/>
  <outline>
    <contour>
      <point x="220.52" y="-209.44" type="curve" smooth="yes"/>
      <point x="288.14" y="-209.44"/>
      <point x="349.34000000000003" y="-177.78"/>
      <point x="349.34000000000003" y="-107.94" type="curve" smooth="yes"/>
      <point x="349.34000000000003" y="-79.24"/>
      <point x="335.02" y="-57.64"/>
      <point x="305.34000000000003" y="-41.96" type="curve"/>
      <point x="310.0" y="-34.3"/>
      <point x="316.66" y="-23.64"/>
      <point x="324.32" y="-13.32" type="curve"/>
      <point x="383.04" y="-10.66"/>
      <point x="427.82" y="3.7199999999999998"/>
      <point x="459.42" y="17.74" type="curve"/>
      <point x="449.78" y="116.34" type="line"/>
      <point x="425.18" y="104.0"/>
      <point x="380.36" y="90.24000000000001"/>
      <point x="335.24" y="90.24000000000001" type="curve" smooth="yes"/>
      <point x="252.84" y="90.24000000000001"/>
      <point x="223.74" y="138.96"/>
      <point x="223.74" y="213.76" type="curve" smooth="yes"/>
      <point x="223.74" y="340.32"/>
      <point x="296.62" y="432.7"/>
      <point x="410.24" y="432.7" type="curve" smooth="yes"/>
      <point x="446.82" y="432.7"/>
      <point x="474.18" y="424.74"/>
      <point x="502.54" y="413.4" type="curve"/>
      <point x="545.38" y="510.02" type="line"/>
      <point x="508.42" y="526.3"/>
      <point x="466.16" y="536.26"/>
      <point x="414.66" y="536.26" type="curve" smooth="yes"/>
      <point x="219.28" y="536.26"/>
      <point x="99.32" y="382.16"/>
      <point x="99.32" y="200.82" type="curve" smooth="yes"/>
      <point x="99.32" y="97.78"/>
      <point x="145.68" y="15.88"/>
      <point x="250.6" y="-6.359999999999999" type="curve"/>
      <point x="237.26" y="-26.02"/>
      <point x="222.92" y="-46.7"/>
      <point x="211.62" y="-65.34" type="curve"/>
      <point x="251.26" y="-81.0"/>
      <point x="260.6" y="-90.66"/>
      <point x="260.6" y="-107.36" type="curve" smooth="yes"/>
      <point x="260.6" y="-125.4"/>
      <point x="245.22" y="-133.74"/>
      <point x="216.86" y="-133.74" type="curve" smooth="yes"/>
      <point x="197.88" y="-133.74"/>
      <point x="176.26" y="-128.76"/>
      <point x="159.94" y="-121.44" type="curve"/>
      <point x="130.06" y="-190.18" type="line"/>
      <point x="157.38" y="-203.48"/>
      <point x="188.94" y="-209.44"/>
    </contour>
  </outline>
</glyph>
<glyph name="eth" format="2">
  <advance width="591.04"/>
  <unicode hex="00F0"/>
  <outline>
    <contour>
      <point x="296.5" y="-13.32" type="curve" smooth="yes"/>
      <point x="525.02" y="-13.32"/>
      <point x="616.74" y="207.06"/>
      <point x="616.74" y="406.86" type="curve" smooth="yes"/>
      <point x="616.74" y="483.82"/>
      <point x="604.06" y="554.46"/>
      <point x="574.42" y="617.1" type="curve"/>
      <point x="685.12" y="652.44" type="line"/>
      <point x="676.14" y="726.22" type="line"/>
      <point x="537.22" y="680.92" type="line"/>
      <point x="510.9" y="718.3"/>
      <point x="478.56" y="749.66"/>
      <point x="439.9" y="776.0" type="curve"/>
      <point x="356.2" y="719.54" type="line"/>
      <point x="387.9" y="697.52"/>
      <point x="413.26" y="672.8"/>
      <point x="432.62" y="647.72" type="curve"/>
      <point x="338.76" y="617.66" type="line"/>
      <point x="348.4" y="545.2" type="line"/>
      <point x="471.16" y="584.56" type="line"/>
      <point x="489.22" y="544.42"/>
      <point x="496.92" y="501.26"/>
      <point x="499.9" y="456.5" type="curve"/>
      <point x="463.14" y="478.64"/>
      <point x="423.12" y="488.66"/>
      <point x="374.0" y="488.66" type="curve" smooth="yes"/>
      <point x="242.24" y="488.66"/>
      <point x="99.32" y="400.7"/>
      <point x="99.32" y="196.58" type="curve" smooth="yes"/>
      <point x="99.32" y="79.94"/>
      <point x="169.58" y="-13.32"/>
    </contour>
    <contour>
      <point x="311.78" y="91.88" type="curve" smooth="yes"/>
      <point x="249.22" y="91.88"/>
      <point x="221.44" y="140.04"/>
      <point x="221.44" y="199.94" type="curve" smooth="yes"/>
      <point x="221.44" y="306.2"/>
      <point x="276.0" y="390.72"/>
      <point x="376.64" y="390.72" type="curve" smooth="yes"/>
      <point x="417.56" y="390.72"/>
      <point x="451.6" y="378.98"/>
      <point x="489.3" y="352.46" type="curve"/>
      <point x="478.92" y="226.14"/>
      <point x="425.12" y="91.88"/>
    </contour>
  </outline>
</glyph>
<glyph name="divide" format="2">
  <advance width="566.64"/>
  <unicode hex="00F7"/>
  <outline>
    <contour>
      <point x="100.53999999999999" y="246.2" type="line"/>
      <point x="564.42" y="246.2" type="line"/>
      <point x="589.3" y="347.74" type="line"/>
      <point x="125.42" y="347.74" type="line"/>
    </contour>
    <contour>
      <point x="283.78" y="26.299999999999997" type="curve" smooth="yes"/>
      <point x="324.98" y="26.299999999999997"/>
      <point x="363.52" y="57.2"/>
      <point x="365.56" y="106.32" type="curve" smooth="yes"/>
      <point x="367.94" y="149.84"/>
      <point x="341.72" y="172.16"/>
      <point x="303.82" y="172.16" type="curve" smooth="yes"/>
      <point x="262.96" y="172.16"/>
      <point x="224.76" y="141.26"/>
      <point x="222.38" y="91.8" type="curve" smooth="yes"/>
      <point x="220.34" y="48.62"/>
      <point x="246.22" y="26.299999999999997"/>
    </contour>
    <contour>
      <point x="378.74" y="420.78" type="curve" smooth="yes"/>
      <point x="419.94" y="420.78"/>
      <point x="458.14" y="451.68"/>
      <point x="460.52" y="501.14" type="curve" smooth="yes"/>
      <point x="462.56" y="544.32"/>
      <point x="436.68" y="566.64"/>
      <point x="398.78" y="566.64" type="curve" smooth="yes"/>
      <point x="357.92" y="566.64"/>
      <point x="319.38" y="535.74"/>
      <point x="317.34" y="486.62" type="curve" smooth="yes"/>
      <point x="314.96" y="443.1"/>
      <point x="341.18" y="420.78"/>
    </contour>
  </outline>
</glyph>
<glyph name="oslash" format="2">
  <advance width="557.68"/>
  <unicode hex="00F8"/>
  <outline>
    <contour>
      <point x="129.18" y="-37.64" type="line"/>
      <point x="178.18" y="18.36" type="line"/>
      <point x="209.5" y="-1.6600000000000001"/>
      <point x="248.5" y="-13.32"/>
      <point x="295.76" y="-13.32" type="curve" smooth="yes"/>
      <point x="468.65999999999997" y="-13.32"/>
      <point x="588.36" y="143.6"/>
      <point x="588.36" y="333.88" type="curve" smooth="yes"/>
      <point x="588.36" y="379.44"/>
      <point x="578.38" y="420.0"/>
      <point x="558.44" y="451.26" type="curve"/>
      <point x="613.18" y="513.34" type="line"/>
      <point x="557.02" y="559.2" type="line"/>
      <point x="508.3" y="503.48" type="line"/>
      <point x="476.96" y="524.22"/>
      <point x="437.26" y="535.92"/>
      <point x="391.92" y="535.92" type="curve" smooth="yes"/>
      <point x="222.98" y="535.92"/>
      <point x="99.32" y="379.0"/>
      <point x="99.32" y="189.06" type="curve" smooth="yes"/>
      <point x="99.32" y="142.76"/>
      <point x="109.66" y="104.14"/>
      <point x="128.66" y="71.86" type="curve"/>
      <point x="73.02" y="8.56" type="line"/>
    </contour>
    <contour>
      <point x="303.72" y="87.92" type="curve" smooth="yes"/>
      <point x="284.64" y="87.92"/>
      <point x="266.58" y="91.62"/>
      <point x="250.88" y="100.02000000000001" type="curve"/>
      <point x="469.18" y="348.4" type="line"/>
      <point x="470.2" y="343.34"/>
      <point x="470.88" y="336.94"/>
      <point x="470.88" y="330.86" type="curve" smooth="yes"/>
      <point x="469.56" y="193.84"/>
      <point x="403.34000000000003" y="87.92"/>
    </contour>
    <contour>
      <point x="216.9" y="172.04000000000002" type="line"/>
      <point x="214.86" y="178.8"/>
      <point x="213.5" y="186.9"/>
      <point x="213.5" y="195.7" type="curve" smooth="yes"/>
      <point x="214.82" y="332.72"/>
      <point x="281.04" y="438.64"/>
      <point x="380.66" y="438.64" type="curve" smooth="yes"/>
      <point x="401.44" y="438.64"/>
      <point x="421.2" y="433.58"/>
      <point x="437.58" y="422.8" type="curve"/>
    </contour>
  </outline>
</glyph>
<glyph name="thorn" format="2">
  <advance width="557.94"/>
  <unicode hex="00FE"/>
  <outline>
    <contour>
      <point x="30.08" y="-185.0" type="line"/>
      <point x="150.2" y="-185.0" type="line"/>
      <point x="193.54" y="-2.64" type="line"/>
      <point x="216.86" y="-7.32"/>
      <point x="240.2" y="-9.66"/>
      <point x="263.56" y="-9.66" type="curve" smooth="yes"/>
      <point x="460.04" y="-9.66"/>
      <point x="588.62" y="135.52"/>
      <point x="588.62" y="327.12" type="curve" smooth="yes"/>
      <point x="588.62" y="448.48"/>
      <point x="525.32" y="534.94"/>
      <point x="385.5" y="534.94" type="curve" smooth="yes"/>
      <point x="364.4" y="534.94"/>
      <point x="342.62" y="532.92"/>
      <point x="321.84000000000003" y="529.54" type="curve"/>
      <point x="380.86" y="776.0" type="line"/>
      <point x="255.44" y="756.08" type="line"/>
    </contour>
    <contour>
      <point x="266.6" y="91.26" type="curve" smooth="yes"/>
      <point x="250.88" y="91.26"/>
      <point x="235.16" y="92.28"/>
      <point x="218.12" y="96.30000000000001" type="curve"/>
      <point x="296.28" y="424.34" type="line"/>
      <point x="320.04" y="430.04"/>
      <point x="343.46" y="433.4"/>
      <point x="367.52" y="433.4" type="curve" smooth="yes"/>
      <point x="439.02" y="433.4"/>
      <point x="468.5" y="387.74"/>
      <point x="468.5" y="316.46" type="curve" smooth="yes"/>
      <point x="468.5" y="190.62"/>
      <point x="394.98" y="91.26"/>
    </contour>
  </outline>
</glyph>
<glyph name="Aogonek" format="2">
  <advance width="682.72"/>
  <unicode hex="0104"/>
  <outline>
    <contour>
      <point x="555.44" y="-209.1" type="curve" smooth="yes"/>
      <point x="584.66" y="-209.1"/>
      <point x="612.22" y="-202.8"/>
      <point x="636.16" y="-193.52" type="curve"/>
      <point x="645.14" y="-111.52" type="line"/>
      <point x="636.14" y="-114.18"/>
      <point x="615.56" y="-120.14"/>
      <point x="598.94" y="-120.14" type="curve" smooth="yes"/>
      <point x="580.24" y="-120.14"/>
      <point x="567.48" y="-114.8"/>
      <point x="567.48" y="-100.4" type="curve" smooth="yes"/>
      <point x="567.48" y="-80.34"/>
      <point x="589.52" y="-50.64"/>
      <point x="664.18" y="0.0" type="curve"/>
      <point x="637.8" y="235.76"/>
      <point x="605.14" y="499.32"/>
      <point x="565.2" y="693.0" type="curve"/>
      <point x="448.64" y="693.0" type="line"/>
      <point x="309.64" y="496.58"/>
      <point x="177.46" y="280.66"/>
      <point x="16.7" y="0.0" type="curve"/>
      <point x="149.44" y="0.0" type="line"/>
      <point x="178.82" y="56.76"/>
      <point x="210.52" y="111.18"/>
      <point x="240.24" y="164.26" type="curve"/>
      <point x="522.68" y="164.26" type="line"/>
      <point x="528.04" y="110.16"/>
      <point x="532.4" y="55.74"/>
      <point x="536.76" y="0.0" type="curve"/>
      <point x="562.2" y="0.0" type="line"/>
      <point x="490.82" y="-41.88"/>
      <point x="455.98" y="-88.86"/>
      <point x="455.98" y="-131.24" type="curve" smooth="yes"/>
      <point x="455.98" y="-189.82"/>
      <point x="503.54" y="-209.1"/>
    </contour>
    <contour>
      <point x="293.38" y="264.5" type="line"/>
      <point x="352.2" y="367.06"/>
      <point x="414.36" y="465.6"/>
      <point x="478.86" y="566.16" type="curve"/>
      <point x="494.24" y="462.26"/>
      <point x="503.98" y="358.42"/>
      <point x="513.7" y="264.5" type="curve"/>
    </contour>
  </outline>
</glyph>
<glyph name="aogonek" format="2">
  <advance width="565.56"/>
  <unicode hex="0105"/>
  <outline>
    <contour>
      <point x="430.46" y="-209.1" type="curve" smooth="yes"/>
      <point x="459.68" y="-209.1"/>
      <point x="487.24" y="-202.8"/>
      <point x="511.18" y="-193.52" type="curve"/>
      <point x="520.16" y="-111.52" type="line"/>
      <point x="506.06" y="-115.53999999999999"/>
      <point x="471.54" y="-122.18"/>
      <point x="459.0" y="-110.96" type="curve" smooth="yes"/>
      <point x="447.78" y="-102.12"/>
      <point x="452.36" y="-86.24000000000001"/>
      <point x="477.52" y="-62.66" type="curve"/>
      <point x="471.74" y="-38.52000000000001"/>
      <point x="484.88" y="-8.52000000000001"/>
      <point x="542.3" y="43.31999999999999" type="curve" smooth="yes"/>
      <point x="527.12" y="91.1"/>
      <point x="521.9" y="155.42"/>
      <point x="537.16" y="216.8" type="curve" smooth="yes"/>
      <point x="606.24" y="502.06" type="line"/>
      <point x="542.5" y="531.24"/>
      <point x="460.92" y="534.94"/>
      <point x="430.48" y="534.94" type="curve" smooth="yes"/>
      <point x="241.04" y="534.94"/>
      <point x="99.32" y="389.68"/>
      <point x="99.32" y="195.16" type="curve" smooth="yes"/>
      <point x="99.32" y="71.06"/>
      <point x="159.82" y="-13.66"/>
      <point x="276.82" y="-13.66" type="curve" smooth="yes"/>
      <point x="332.14" y="-13.66"/>
      <point x="379.86" y="8.0"/>
      <point x="419.92" y="43.76" type="curve"/>
      <point x="423.9" y="27.4"/>
      <point x="428.9" y="12.36"/>
      <point x="435.9" y="-0.66" type="curve"/>
      <point x="365.84" y="-41.88"/>
      <point x="331.0" y="-88.86"/>
      <point x="331.0" y="-131.24" type="curve" smooth="yes"/>
      <point x="331.0" y="-189.82"/>
      <point x="378.56" y="-209.1"/>
    </contour>
    <contour>
      <point x="303.62" y="89.24000000000001" type="curve" smooth="yes"/>
      <point x="246.96" y="89.24000000000001"/>
      <point x="219.44" y="127.88"/>
      <point x="219.44" y="206.84" type="curve" smooth="yes"/>
      <point x="219.44" y="322.08"/>
      <point x="298.6" y="433.36"/>
      <point x="414.42" y="433.36" type="curve" smooth="yes"/>
      <point x="434.76" y="433.36"/>
      <point x="449.14" y="431.68"/>
      <point x="468.52" y="428.0" type="curve"/>
      <point x="424.76" y="250.96" type="line" smooth="yes"/>
      <point x="417.08" y="217.92"/>
      <point x="408.36" y="174.5"/>
      <point x="406.38" y="140.48" type="curve"/>
      <point x="373.28" y="105.68"/>
      <point x="342.44" y="89.24000000000001"/>
    </contour>
  </outline>
</glyph>
<glyph name="Eogonek" format="2">
  <advance width="570.2"/>
  <unicode hex="0118"/>
  <outline>
    <contour>
      <point x="422.56" y="-209.1" type="curve" smooth="yes"/>
      <point x="451.78" y="-209.1"/>
      <point x="479.34000000000003" y="-202.8"/>
      <point x="503.28" y="-193.52" type="curve"/>
      <point x="512.26" y="-111.52" type="line"/>
      <point x="503.26" y="-114.18"/>
      <point x="482.68" y="-120.14"/>
      <point x="466.06" y="-120.14" type="curve" smooth="yes"/>
      <point x="447.36" y="-120.14"/>
      <point x="434.6" y="-114.8"/>
      <point x="434.6" y="-100.4" type="curve" smooth="yes"/>
      <point x="434.6" y="-80.34"/>
      <point x="459.94" y="-47.34"/>
      <point x="531.3" y="0.0" type="curve"/>
      <point x="556.5" y="105.2" type="line"/>
      <point x="228.34" y="105.2" type="line"/>
      <point x="278.2" y="311.24" type="line"/>
      <point x="547.68" y="311.24" type="line"/>
      <point x="572.56" y="414.12" type="line"/>
      <point x="302.4" y="414.12" type="line"/>
      <point x="343.58" y="588.46" type="line"/>
      <point x="648.74" y="588.46" type="line"/>
      <point x="674.28" y="693.0" type="line"/>
      <point x="243.72" y="693.0" type="line"/>
      <point x="77.72" y="0.0" type="line"/>
      <point x="429.32" y="0.0" type="line"/>
      <point x="357.94" y="-40.56"/>
      <point x="323.1" y="-88.86"/>
      <point x="323.1" y="-131.24" type="curve" smooth="yes"/>
      <point x="323.1" y="-189.82"/>
      <point x="370.66" y="-209.1"/>
    </contour>
  </outline>
</glyph>
<glyph name="eogonek" format="2">
  <advance width="515.72"/>
  <unicode hex="0119"/>
  <outline>
    <contour>
      <point x="343.96" y="-209.1" type="curve" smooth="yes"/>
      <point x="373.18" y="-209.1"/>
      <point x="400.74" y="-202.8"/>
      <point x="424.68" y="-193.52" type="curve"/>
      <point x="433.66" y="-111.52" type="line"/>
      <point x="424.66" y="-114.18"/>
      <point x="404.08" y="-120.14"/>
      <point x="387.46" y="-120.14" type="curve" smooth="yes"/>
      <point x="368.76" y="-120.14"/>
      <point x="356.0" y="-114.8"/>
      <point x="356.0" y="-100.4" type="curve" smooth="yes"/>
      <point x="356.0" y="-77.28"/>
      <point x="384.78" y="-42.6"/>
      <point x="477.42" y="19.42" type="curve"/>
      <point x="467.78" y="117.04" type="line"/>
      <point x="427.76" y="97.96000000000001"/>
      <point x="381.06" y="88.92"/>
      <point x="337.04" y="88.92" type="curve" smooth="yes"/>
      <point x="251.68" y="88.92"/>
      <point x="223.01999999999998" y="124.18"/>
      <point x="218.1" y="191.42" type="curve"/>
      <point x="421.66" y="194.82"/>
      <point x="566.4" y="241.98"/>
      <point x="566.4" y="393.36" type="curve" smooth="yes"/>
      <point x="566.4" y="481.94"/>
      <point x="501.2" y="536.26"/>
      <point x="408.2" y="536.26" type="curve" smooth="yes"/>
      <point x="218.2" y="536.26"/>
      <point x="99.32" y="367.16"/>
      <point x="99.32" y="196.48" type="curve" smooth="yes"/>
      <point x="99.32" y="80.18"/>
      <point x="154.6" y="-11.34"/>
      <point x="308.86" y="-13.32" type="curve" smooth="yes"/>
      <point x="316.28" y="-13.32"/>
      <point x="323.38" y="-12.64"/>
      <point x="330.8" y="-11.96" type="curve"/>
      <point x="275.62" y="-47.56"/>
      <point x="244.5" y="-90.22"/>
      <point x="244.5" y="-131.24" type="curve" smooth="yes"/>
      <point x="244.5" y="-189.82"/>
      <point x="292.06" y="-209.1"/>
    </contour>
    <contour>
      <point x="223.8" y="280.16" type="curve"/>
      <point x="243.54" y="370.7"/>
      <point x="308.72" y="438.32"/>
      <point x="390.32" y="438.32" type="curve" smooth="yes"/>
      <point x="430.42" y="438.32"/>
      <point x="454.86" y="418.26"/>
      <point x="454.86" y="380.12" type="curve" smooth="yes"/>
      <point x="454.86" y="327.8"/>
      <point x="410.56" y="284.82"/>
    </contour>
  </outline>
</glyph>
<glyph name="Hbar" format="2">
  <advance width="700.74"/>
  <unicode hex="0126"/>
  <outline>
    <contour>
      <point x="81.12" y="0.0" type="line"/>
      <point x="206.54" y="0.0" type="line"/>
      <point x="280.6" y="307.92" type="line"/>
      <point x="564.68" y="307.92" type="line"/>
      <point x="490.62" y="0.0" type="line"/>
      <point x="616.7" y="0.0" type="line"/>
      <point x="739.4" y="512.2" type="line"/>
      <point x="817.4" y="512.2" type="line"/>
      <point x="838.98" y="603.16" type="line"/>
      <point x="760.98" y="603.16" type="line"/>
      <point x="783.02" y="693.0" type="line"/>
      <point x="656.94" y="693.0" type="line"/>
      <point x="634.9" y="603.16" type="line"/>
      <point x="350.82" y="603.16" type="line"/>
      <point x="373.2" y="693.0" type="line"/>
      <point x="247.12" y="693.0" type="line"/>
      <point x="225.08" y="603.16" type="line"/>
      <point x="144.74" y="603.16" type="line"/>
      <point x="123.16" y="512.2" type="line"/>
      <point x="203.5" y="512.2" type="line"/>
    </contour>
    <contour>
      <point x="305.8" y="415.1" type="line"/>
      <point x="329.24" y="512.2" type="line"/>
      <point x="613.32" y="512.2" type="line"/>
      <point x="590.22" y="415.1" type="line"/>
    </contour>
  </outline>
</glyph>
<glyph name="hbar" format="2">
  <advance width="558.2"/>
  <unicode hex="0127"/>
  <outline>
    <contour>
      <point x="74.42" y="0.0" type="line"/>
      <point x="194.86" y="0.0" type="line"/>
      <point x="293.26" y="412.36" type="line"/>
      <point x="317.7" y="419.08"/>
      <point x="344.18" y="424.12"/>
      <point x="370.96" y="424.12" type="curve" smooth="yes"/>
      <point x="425.7" y="424.12"/>
      <point x="452.3" y="394.15999999999997"/>
      <point x="452.3" y="342.2" type="curve" smooth="yes"/>
      <point x="452.3" y="313.08"/>
      <point x="444.26" y="281.26"/>
      <point x="438.22" y="253.76" type="curve" smooth="yes"/>
      <point x="377.28" y="0.0" type="line"/>
      <point x="497.72" y="0.0" type="line"/>
      <point x="562.36" y="266.9" type="line" smooth="yes"/>
      <point x="570.04" y="297.3"/>
      <point x="574.06" y="327.7"/>
      <point x="574.06" y="355.44" type="curve" smooth="yes"/>
      <point x="574.06" y="458.52"/>
      <point x="512.96" y="525.04"/>
      <point x="410.42" y="525.04" type="curve" smooth="yes"/>
      <point x="379.68" y="525.04"/>
      <point x="348.26" y="518.68"/>
      <point x="316.5" y="509.6" type="curve"/>
      <point x="339.56" y="605.18" type="line"/>
      <point x="490.74" y="605.18" type="line"/>
      <point x="510.0" y="684.24" type="line"/>
      <point x="358.16" y="684.24" type="line"/>
      <point x="380.52" y="776.0" type="line"/>
      <point x="255.1" y="756.08" type="line"/>
      <point x="238.06" y="684.24" type="line"/>
      <point x="174.7" y="684.24" type="line"/>
      <point x="155.44" y="605.18" type="line"/>
      <point x="218.46" y="605.18" type="line"/>
    </contour>
  </outline>
</glyph>
<glyph name="Iogonek" format="2">
  <advance width="284.12"/>
  <unicode hex="012E"/>
  <outline>
    <contour>
      <point x="87.48" y="-209.1" type="curve" smooth="yes"/>
      <point x="114.06" y="-209.1"/>
      <point x="148.88" y="-204.78"/>
      <point x="173.48000000000002" y="-196.16" type="curve"/>
      <point x="183.78" y="-113.5" type="line"/>
      <point x="164.88" y="-118.8"/>
      <point x="149.58" y="-120.14"/>
      <point x="137.58" y="-120.14" type="curve" smooth="yes"/>
      <point x="117.56" y="-120.14"/>
      <point x="106.12" y="-114.14"/>
      <point x="106.12" y="-99.74" type="curve" smooth="yes"/>
      <point x="106.12" y="-71.1"/>
      <point x="152.57999999999998" y="-34.14"/>
      <point x="203.48000000000002" y="0.0" type="curve"/>
      <point x="369.8" y="693.0" type="line"/>
      <point x="243.72" y="693.0" type="line"/>
      <point x="77.72" y="0.0" type="line"/>
      <point x="100.84" y="0.0" type="line"/>
      <point x="49.92" y="-34.62"/>
      <point x="-5.38" y="-83.58"/>
      <point x="-5.38" y="-136.52" type="curve" smooth="yes"/>
      <point x="-5.38" y="-183.22"/>
      <point x="31.62" y="-209.1"/>
    </contour>
  </outline>
</glyph>
<glyph name="iogonek" format="2">
  <advance width="266.68"/>
  <unicode hex="012F"/>
  <outline>
    <contour>
      <point x="78.86" y="-209.1" type="curve" smooth="yes"/>
      <point x="105.44" y="-209.1"/>
      <point x="140.26" y="-204.78"/>
      <point x="164.86" y="-196.16" type="curve"/>
      <point x="175.16" y="-113.5" type="line"/>
      <point x="156.26" y="-118.8"/>
      <point x="140.96" y="-120.14"/>
      <point x="128.96" y="-120.14" type="curve" smooth="yes"/>
      <point x="108.94" y="-120.14"/>
      <point x="97.5" y="-114.14"/>
      <point x="97.5" y="-99.74" type="curve" smooth="yes"/>
      <point x="97.5" y="-71.76"/>
      <point x="143.96" y="-34.14"/>
      <point x="194.2" y="0.0" type="curve"/>
      <point x="319.86" y="522.94" type="line"/>
      <point x="199.42" y="522.94" type="line"/>
      <point x="74.42" y="0.0" type="line"/>
      <point x="92.9" y="0.0" type="line"/>
      <point x="41.98" y="-34.62"/>
      <point x="-14.0" y="-83.58"/>
      <point x="-14.0" y="-136.52" type="curve" smooth="yes"/>
      <point x="-14.0" y="-183.22"/>
      <point x="23.0" y="-209.1"/>
    </contour>
    <contour>
      <point x="284.56" y="602.24" type="curve" smooth="yes"/>
      <point x="328.0" y="602.24"/>
      <point x="368.86" y="638.06"/>
      <point x="368.86" y="685.9" type="curve" smooth="yes"/>
      <point x="368.86" y="728.4"/>
      <point x="337.02" y="750.7"/>
      <point x="301.12" y="750.7" type="curve" smooth="yes"/>
      <point x="257.34" y="750.7"/>
      <point x="217.5" y="714.54"/>
      <point x="217.5" y="666.02" type="curve" smooth="yes"/>
      <point x="217.5" y="623.86"/>
      <point x="248.66" y="602.24"/>
    </contour>
  </outline>
</glyph>
<glyph name="dotlessi" format="2">
  <advance width="266.68"/>
  <unicode hex="0131"/>
  <outline>
    <contour>
      <point x="74.42" y="0.0" type="line"/>
      <point x="194.2" y="0.0" type="line"/>
      <point x="319.86" y="522.94" type="line"/>
      <point x="199.42" y="522.94" type="line"/>
    </contour>
  </outline>
</glyph>
<glyph name="Lslash" format="2">
  <advance width="544.62"/>
  <unicode hex="0141"/>
  <outline>
    <contour>
      <point x="88.94" y="0.0" type="line"/>
      <point x="521.36" y="0.0" type="line"/>
      <point x="546.9" y="106.84" type="line"/>
      <point x="239.9" y="106.84" type="line"/>
      <point x="294.34000000000003" y="333.98" type="line"/>
      <point x="471.48" y="413.56" type="line"/>
      <point x="450.22" y="499.26" type="line"/>
      <point x="319.92" y="440.28" type="line"/>
      <point x="380.68" y="693.0" type="line"/>
      <point x="254.6" y="693.0" type="line"/>
      <point x="178.57999999999998" y="377.24" type="line"/>
      <point x="54.32" y="320.94" type="line"/>
      <point x="74.92" y="235.24" type="line"/>
      <point x="153.34" y="270.28" type="line"/>
    </contour>
  </outline>
</glyph>
<glyph name="lslash" format="2">
  <advance width="305.14"/>
  <unicode hex="0142"/>
  <outline>
    <contour>
      <point x="261.54" y="-9.66" type="curve"/>
      <point x="286.78" y="91.24000000000001" type="line"/>
      <point x="201.8" y="102.36"/>
      <point x="209.02" y="151.32"/>
      <point x="225.12" y="218.7" type="curve" smooth="yes"/>
      <point x="266.34000000000003" y="390.9" type="line"/>
      <point x="404.06" y="452.78" type="line"/>
      <point x="385.8" y="529.48" type="line"/>
      <point x="289.58" y="485.86" type="line"/>
      <point x="359.02" y="776.0" type="line"/>
      <point x="233.94" y="756.08" type="line"/>
      <point x="154.54" y="426.14" type="line"/>
      <point x="57.86" y="382.8" type="line"/>
      <point x="76.46" y="306.1" type="line"/>
      <point x="131.96" y="330.84" type="line"/>
      <point x="106.6" y="224.4" type="line" smooth="yes"/>
      <point x="77.6" y="100.74"/>
      <point x="86.84" y="-6.6000000000000005"/>
    </contour>
  </outline>
</glyph>
<glyph name="Eng" format="2">
  <advance width="717.18"/>
  <unicode hex="014A"/>
  <outline>
    <contour>
      <point x="439.4" y="-187.0" type="curve" smooth="yes"/>
      <point x="562.88" y="-187.0"/>
      <point x="608.84" y="-116.8"/>
      <point x="639.16" y="8.16" type="curve" smooth="yes"/>
      <point x="802.86" y="693.0" type="line"/>
      <point x="677.78" y="693.0" type="line"/>
      <point x="566.2" y="219.22" type="line"/>
      <point x="517.68" y="354.62"/>
      <point x="427.86" y="552.7"/>
      <point x="345.04" y="693.0" type="curve"/>
      <point x="243.72" y="693.0" type="line"/>
      <point x="77.72" y="0.0" type="line"/>
      <point x="201.48000000000002" y="0.0" type="line"/>
      <point x="323.04" y="507.28" type="line"/>
      <point x="395.78" y="378.46"/>
      <point x="472.38" y="184.78"/>
      <point x="523.02" y="37.620000000000005" type="curve"/>
      <point x="505.0" y="-39.12"/>
      <point x="491.08" y="-87.18"/>
      <point x="434.58" y="-87.18" type="curve" smooth="yes"/>
      <point x="418.84" y="-87.18"/>
      <point x="404.5" y="-83.5"/>
      <point x="392.58" y="-78.52" type="curve"/>
      <point x="357.14" y="-172.04" type="line"/>
      <point x="382.2" y="-180.98"/>
      <point x="414.18" y="-187.0"/>
    </contour>
  </outline>
</glyph>
<glyph name="eng" format="2">
  <advance width="559.86"/>
  <unicode hex="014B"/>
  <outline>
    <contour>
      <point x="302.82" y="-187.34" type="curve" smooth="yes"/>
      <point x="393.38" y="-187.34"/>
      <point x="464.78" y="-141.08"/>
      <point x="495.82" y="-10.280000000000001" type="curve" smooth="yes"/>
      <point x="564.02" y="274.82" type="line" smooth="yes"/>
      <point x="602.34" y="430.12"/>
      <point x="553.56" y="534.26"/>
      <point x="392.46" y="534.26" type="curve" smooth="yes"/>
      <point x="303.12" y="534.26"/>
      <point x="242.78" y="515.32"/>
      <point x="194.74" y="500.98" type="curve"/>
      <point x="74.42" y="0.0" type="line"/>
      <point x="194.86" y="0.0" type="line"/>
      <point x="295.94" y="422.64" type="line"/>
      <point x="320.7" y="428.0"/>
      <point x="346.48" y="431.36"/>
      <point x="370.92" y="431.36" type="curve" smooth="yes"/>
      <point x="473.36" y="431.36"/>
      <point x="461.32" y="353.46"/>
      <point x="439.88" y="261.68" type="curve" smooth="yes"/>
      <point x="378.32" y="2.799999999999999" type="line" smooth="yes"/>
      <point x="362.6" y="-61.44"/>
      <point x="337.56" y="-93.38"/>
      <point x="291.94" y="-93.38" type="curve" smooth="yes"/>
      <point x="275.56" y="-93.38"/>
      <point x="258.54" y="-89.03999999999999"/>
      <point x="239.52" y="-80.68" type="curve"/>
      <point x="209.34" y="-170.0" type="line"/>
      <point x="232.92" y="-179.0"/>
      <point x="263.82" y="-187.34"/>
    </contour>
  </outline>
</glyph>
<glyph name="OE" format="2">
  <advance width="972.42"/>
  <unicode hex="0152"/>
  <outline>
    <contour>
      <point x="437.0" y="-8.0" type="curve" smooth="yes"/>
      <point x="472.98" y="-8.0"/>
      <point x="509.64" y="-5.0"/>
      <point x="545.32" y="0.0" type="curve"/>
      <point x="933.52" y="0.0" type="line"/>
      <point x="958.72" y="106.52000000000001" type="line"/>
      <point x="643.58" y="106.52000000000001" type="line"/>
      <point x="693.44" y="310.58" type="line"/>
      <point x="949.9" y="310.58" type="line"/>
      <point x="974.78" y="414.78" type="line"/>
      <point x="717.64" y="414.78" type="line"/>
      <point x="758.82" y="586.48" type="line"/>
      <point x="1050.96" y="586.48" type="line"/>
      <point x="1076.5" y="693.0" type="line"/>
      <point x="700.64" y="693.0" type="line"/>
      <point x="666.0" y="697.66"/>
      <point x="625.76" y="700.0"/>
      <point x="592.46" y="700.0" type="curve" smooth="yes"/>
      <point x="312.22" y="700.0"/>
      <point x="128.1" y="535.78"/>
      <point x="128.1" y="275.02" type="curve" smooth="yes"/>
      <point x="128.1" y="60.92"/>
      <point x="265.02" y="-8.0"/>
    </contour>
    <contour>
      <point x="441.26" y="97.88" type="curve" smooth="yes"/>
      <point x="313.68" y="97.88"/>
      <point x="256.86" y="169.14"/>
      <point x="256.86" y="282.62" type="curve" smooth="yes"/>
      <point x="256.86" y="441.2"/>
      <point x="361.18" y="593.8"/>
      <point x="573.3" y="593.8" type="curve" smooth="yes"/>
      <point x="593.66" y="593.8"/>
      <point x="615.02" y="592.8"/>
      <point x="637.04" y="589.8" type="curve"/>
      <point x="520.82" y="104.22" type="line"/>
      <point x="493.08" y="100.22"/>
      <point x="466.34" y="97.88"/>
    </contour>
  </outline>
</glyph>
<glyph name="oe" format="2">
  <advance width="861.18"/>
  <unicode hex="0153"/>
  <outline>
    <contour>
      <point x="295.76" y="-13.32" type="curve" smooth="yes"/>
      <point x="370.08" y="-13.32"/>
      <point x="438.14" y="21.0"/>
      <point x="483.58" y="79.9" type="curve"/>
      <point x="514.5" y="19.3"/>
      <point x="576.96" y="-13.32"/>
      <point x="658.58" y="-13.32" type="curve" smooth="yes"/>
      <point x="723.86" y="-13.32"/>
      <point x="784.86" y="1.3599999999999999"/>
      <point x="822.88" y="17.72" type="curve"/>
      <point x="813.24" y="115.34" type="line"/>
      <point x="771.18" y="97.62"/>
      <point x="725.5" y="88.92"/>
      <point x="683.52" y="88.92" type="curve" smooth="yes"/>
      <point x="599.86" y="88.92"/>
      <point x="572.9" y="118.4"/>
      <point x="566.96" y="191.42" type="curve"/>
      <point x="775.28" y="195.16"/>
      <point x="911.86" y="241.98"/>
      <point x="911.86" y="393.36" type="curve" smooth="yes"/>
      <point x="911.86" y="485.0"/>
      <point x="842.58" y="536.26"/>
      <point x="754.68" y="536.26" type="curve" smooth="yes"/>
      <point x="677.0" y="536.26"/>
      <point x="607.22" y="502.54"/>
      <point x="553.2" y="440.06" type="curve"/>
      <point x="524.28" y="504.54"/>
      <point x="467.7" y="536.26"/>
      <point x="393.24" y="536.26" type="curve" smooth="yes"/>
      <point x="208.04" y="536.26"/>
      <point x="99.32" y="358.3"/>
      <point x="99.32" y="193.54" type="curve" smooth="yes"/>
      <point x="99.32" y="73.96"/>
      <point x="162.54" y="-13.32"/>
    </contour>
    <contour>
      <point x="306.36" y="89.56" type="curve" smooth="yes"/>
      <point x="242.88" y="89.56"/>
      <point x="219.78" y="133.66"/>
      <point x="219.78" y="206.1" type="curve" smooth="yes"/>
      <point x="219.78" y="308.48"/>
      <point x="280.4" y="432.7"/>
      <point x="381.32" y="432.7" type="curve" smooth="yes"/>
      <point x="439.02" y="432.7"/>
      <point x="464.84" y="393.02"/>
      <point x="464.84" y="322.28" type="curve" smooth="yes"/>
      <point x="464.84" y="197.8"/>
      <point x="396.74" y="89.56"/>
    </contour>
    <contour>
      <point x="573.0" y="280.16" type="curve"/>
      <point x="594.44" y="381.92"/>
      <point x="663.7" y="438.32"/>
      <point x="735.44" y="438.32" type="curve" smooth="yes"/>
      <point x="776.22" y="438.32"/>
      <point x="800.32" y="417.92"/>
      <point x="800.32" y="380.12" type="curve" smooth="yes"/>
      <point x="800.32" y="328.14"/>
      <point x="759.42" y="284.82"/>
    </contour>
  </outline>
</glyph>
<glyph name="Scedilla" format="2">
  <advance width="534.52"/>
  <unicode hex="015E"/>
  <outline>
    <contour>
      <point x="176.32" y="-209.44" type="curve" smooth="yes"/>
      <point x="243.94" y="-209.44"/>
      <point x="305.14" y="-177.78"/>
      <point x="305.14" y="-107.94" type="curve" smooth="yes"/>
      <point x="305.14" y="-79.24"/>
      <point x="290.82" y="-57.64"/>
      <point x="261.14" y="-41.96" type="curve"/>
      <point x="267.12" y="-32.98"/>
      <point x="272.78" y="-22.66"/>
      <point x="279.78" y="-13.0" type="curve"/>
      <point x="440.86" y="-5.96"/>
      <point x="537.28" y="75.9"/>
      <point x="537.28" y="205.92" type="curve" smooth="yes"/>
      <point x="537.28" y="319.0"/>
      <point x="458.54" y="362.24"/>
      <point x="378.62" y="403.54" type="curve" smooth="yes"/>
      <point x="329.24" y="428.56"/>
      <point x="285.88" y="448.66"/>
      <point x="285.88" y="507.1" type="curve" smooth="yes"/>
      <point x="285.88" y="578.68"/>
      <point x="350.74" y="604.46"/>
      <point x="420.58" y="604.46" type="curve" smooth="yes"/>
      <point x="474.22" y="604.46"/>
      <point x="523.18" y="587.86"/>
      <point x="560.6" y="561.84" type="curve"/>
      <point x="615.4" y="657.12" type="line"/>
      <point x="568.94" y="684.8"/>
      <point x="502.12" y="708.66"/>
      <point x="425.98" y="708.66" type="curve" smooth="yes"/>
      <point x="244.4" y="708.66"/>
      <point x="156.48" y="612.94"/>
      <point x="156.48" y="498.78" type="curve" smooth="yes"/>
      <point x="156.48" y="399.36"/>
      <point x="218.6" y="353.78"/>
      <point x="290.24" y="313.16" type="curve" smooth="yes"/>
      <point x="346.6" y="282.5"/>
      <point x="407.54" y="259.1"/>
      <point x="407.54" y="198.3" type="curve" smooth="yes"/>
      <point x="407.54" y="116.38"/>
      <point x="331.7" y="91.52000000000001"/>
      <point x="259.14" y="91.52000000000001" type="curve" smooth="yes"/>
      <point x="194.2" y="91.52000000000001"/>
      <point x="131.9" y="119.44"/>
      <point x="98.18" y="143.16" type="curve"/>
      <point x="42.72" y="44.56" type="line"/>
      <point x="76.52" y="22.16"/>
      <point x="133.52" y="-1.7599999999999998"/>
      <point x="203.72" y="-10.7" type="curve"/>
      <point x="191.06" y="-29.36"/>
      <point x="175.74" y="-50.34"/>
      <point x="167.42" y="-65.34" type="curve"/>
      <point x="207.06" y="-81.0"/>
      <point x="216.4" y="-90.66"/>
      <point x="216.4" y="-107.36" type="curve" smooth="yes"/>
      <point x="216.4" y="-125.4"/>
      <point x="201.02" y="-133.74"/>
      <point x="172.66" y="-133.74" type="curve" smooth="yes"/>
      <point x="153.68" y="-133.74"/>
      <point x="132.06" y="-128.76"/>
      <point x="115.74" y="-121.44" type="curve"/>
      <point x="85.86" y="-190.18" type="line"/>
      <point x="113.18" y="-203.48"/>
      <point x="144.74" y="-209.44"/>
    </contour>
  </outline>
</glyph>
<glyph name="scedilla" format="2">
  <advance width="454.78"/>
  <unicode hex="015F"/>
  <outline>
    <contour>
      <point x="169.04" y="-209.44" type="curve" smooth="yes"/>
      <point x="236.66" y="-209.44"/>
      <point x="297.86" y="-177.78"/>
      <point x="297.86" y="-107.94" type="curve" smooth="yes"/>
      <point x="297.86" y="-79.24"/>
      <point x="283.54" y="-57.64"/>
      <point x="253.86" y="-41.96" type="curve"/>
      <point x="258.52" y="-33.3"/>
      <point x="266.84000000000003" y="-21.32"/>
      <point x="275.16" y="-10.0" type="curve"/>
      <point x="387.92" y="5.260000000000001"/>
      <point x="449.74" y="71.1"/>
      <point x="449.74" y="156.98" type="curve" smooth="yes"/>
      <point x="449.74" y="239.96"/>
      <point x="406.54" y="268.94"/>
      <point x="320.2" y="311.12" type="curve" smooth="yes"/>
      <point x="281.84000000000003" y="330.8"/>
      <point x="255.08" y="342.88"/>
      <point x="255.08" y="376.0" type="curve" smooth="yes"/>
      <point x="255.08" y="425.86"/>
      <point x="303.54" y="437.98"/>
      <point x="349.06" y="437.98" type="curve" smooth="yes"/>
      <point x="390.36" y="437.98"/>
      <point x="434.96" y="424.7"/>
      <point x="462.96" y="410.72" type="curve"/>
      <point x="505.46" y="503.7" type="line"/>
      <point x="469.44" y="521.34"/>
      <point x="416.54" y="536.26"/>
      <point x="355.06" y="536.26" type="curve" smooth="yes"/>
      <point x="221.74" y="536.26"/>
      <point x="135.66" y="476.4"/>
      <point x="135.66" y="366.02" type="curve" smooth="yes"/>
      <point x="135.66" y="283.68"/>
      <point x="190.68" y="250.4"/>
      <point x="252.58" y="222.42" type="curve" smooth="yes"/>
      <point x="305.82" y="197.78"/>
      <point x="329.66" y="184.06"/>
      <point x="329.66" y="148.26" type="curve" smooth="yes"/>
      <point x="329.66" y="110.98"/>
      <point x="296.42" y="86.28"/>
      <point x="228.42000000000002" y="86.28" type="curve" smooth="yes"/>
      <point x="167.9" y="86.28"/>
      <point x="124.34" y="106.82"/>
      <point x="92.5" y="124.24000000000001" type="curve"/>
      <point x="49.32" y="28.94" type="line"/>
      <point x="77.08" y="13.22"/>
      <point x="125.06" y="-6.359999999999999"/>
      <point x="195.14" y="-11.66" type="curve"/>
      <point x="182.8" y="-30.32"/>
      <point x="168.8" y="-50.34"/>
      <point x="160.14" y="-65.34" type="curve"/>
      <point x="199.78" y="-80.34"/>
      <point x="209.12" y="-90.66"/>
      <point x="209.12" y="-107.36" type="curve" smooth="yes"/>
      <point x="209.12" y="-125.4"/>
      <point x="193.74" y="-133.74"/>
      <point x="165.38" y="-133.74" type="curve" smooth="yes"/>
      <point x="146.4" y="-133.74"/>
      <point x="124.78" y="-128.76"/>
      <point x="108.46000000000001" y="-121.44" type="curve"/>
      <point x="78.58" y="-190.18" type="line"/>
      <point x="105.9" y="-203.48"/>
      <point x="137.46" y="-209.44"/>
    </contour>
  </outline>
</glyph>
<glyph name="uni0162" format="2">
  <advance width="569.52"/>
  <unicode hex="0162"/>
  <outline>
    <contour>
      <point x="215.12" y="-209.44" type="curve" smooth="yes"/>
      <point x="282.74" y="-209.44"/>
      <point x="343.94" y="-177.78"/>
      <point x="343.94" y="-107.94" type="curve" smooth="yes"/>
      <point x="343.94" y="-79.24"/>
      <point x="329.62" y="-57.64"/>
      <point x="299.94" y="-41.96" type="curve"/>
      <point x="306.6" y="-31.3"/>
      <point x="317.92" y="-14.32"/>
      <point x="328.58" y="0.0" type="curve"/>
      <point x="344.18" y="0.0" type="line"/>
      <point x="484.96" y="586.48" type="line"/>
      <point x="690.68" y="586.48" type="line"/>
      <point x="716.56" y="693.0" type="line"/>
      <point x="178.36" y="693.0" type="line"/>
      <point x="152.82" y="586.48" type="line"/>
      <point x="358.88" y="586.48" type="line"/>
      <point x="218.1" y="0.0" type="line"/>
      <point x="250.22" y="0.0" type="line"/>
      <point x="235.22" y="-19.0"/>
      <point x="216.54" y="-46.34"/>
      <point x="206.22" y="-65.34" type="curve"/>
      <point x="245.86" y="-81.0"/>
      <point x="255.2" y="-90.66"/>
      <point x="255.2" y="-107.36" type="curve" smooth="yes"/>
      <point x="255.2" y="-125.4"/>
      <point x="239.82" y="-133.74"/>
      <point x="211.46" y="-133.74" type="curve" smooth="yes"/>
      <point x="192.48" y="-133.74"/>
      <point x="170.86" y="-128.76"/>
      <point x="154.54" y="-121.44" type="curve"/>
      <point x="124.66" y="-190.18" type="line"/>
      <point x="151.98" y="-203.48"/>
      <point x="183.54" y="-209.44"/>
    </contour>
  </outline>
</glyph>
<glyph name="uni0163" format="2">
  <advance width="402.74"/>
  <unicode hex="0163"/>
  <outline>
    <contour>
      <point x="189.52" y="-209.44" type="curve" smooth="yes"/>
      <point x="257.14" y="-209.44"/>
      <point x="318.34000000000003" y="-177.78"/>
      <point x="318.34000000000003" y="-107.94" type="curve" smooth="yes"/>
      <point x="318.34000000000003" y="-79.24"/>
      <point x="304.02" y="-57.64"/>
      <point x="274.34000000000003" y="-41.96" type="curve"/>
      <point x="280.98" y="-32.32"/>
      <point x="287.64" y="-21.0"/>
      <point x="295.3" y="-10.34" type="curve"/>
      <point x="337.6" y="-7.68"/>
      <point x="373.3" y="2.66"/>
      <point x="404.96" y="15.0" type="curve"/>
      <point x="395.66" y="110.30000000000001" type="line"/>
      <point x="363.3" y="97.6"/>
      <point x="334.64" y="90.24000000000001"/>
      <point x="299.24" y="90.24000000000001" type="curve" smooth="yes"/>
      <point x="219.48000000000002" y="90.24000000000001"/>
      <point x="217.54" y="148.14"/>
      <point x="234.9" y="215.92" type="curve" smooth="yes"/>
      <point x="284.68" y="423.38" type="line"/>
      <point x="455.8" y="423.38" type="line"/>
      <point x="480.02" y="522.94" type="line"/>
      <point x="308.58" y="522.94" type="line"/>
      <point x="346.92" y="681.0" type="line"/>
      <point x="221.5" y="661.08" type="line"/>
      <point x="119.08" y="231.1" type="line" smooth="yes"/>
      <point x="90.78" y="117.24"/>
      <point x="94.38" y="11.280000000000001"/>
      <point x="218.6" y="-8.02" type="curve"/>
      <point x="204.28" y="-26.68"/>
      <point x="189.28" y="-49.34"/>
      <point x="180.62" y="-65.34" type="curve"/>
      <point x="220.26" y="-80.34"/>
      <point x="229.6" y="-90.66"/>
      <point x="229.6" y="-107.36" type="curve" smooth="yes"/>
      <point x="229.6" y="-125.4"/>
      <point x="214.22" y="-133.74"/>
      <point x="185.86" y="-133.74" type="curve" smooth="yes"/>
      <point x="166.88" y="-133.74"/>
      <point x="145.26" y="-128.76"/>
      <point x="128.94" y="-121.44" type="curve"/>
      <point x="99.06" y="-190.18" type="line"/>
      <point x="126.38" y="-203.48"/>
      <point x="157.94" y="-209.44"/>
    </contour>
  </outline>
</glyph>
<glyph name="Tbar" format="2">
  <advance width="570.88"/>
  <unicode hex="0166"/>
  <outline>
    <contour>
      <point x="218.78" y="0.0" type="line"/>
      <point x="344.86" y="0.0" type="line"/>
      <point x="413.96" y="288.76" type="line"/>
      <point x="553.58" y="288.76" type="line"/>
      <point x="575.48" y="379.04" type="line"/>
      <point x="435.54" y="379.04" type="line"/>
      <point x="485.64" y="586.48" type="line"/>
      <point x="691.36" y="586.48" type="line"/>
      <point x="717.24" y="693.0" type="line"/>
      <point x="179.04" y="693.0" type="line"/>
      <point x="153.5" y="586.48" type="line"/>
      <point x="359.56" y="586.48" type="line"/>
      <point x="309.46" y="379.04" type="line"/>
      <point x="175.56" y="379.04" type="line"/>
      <point x="153.66" y="288.76" type="line"/>
      <point x="287.88" y="288.76" type="line"/>
    </contour>
  </outline>
</glyph>
<glyph name="Uogonek" format="2">
  <advance width="671.1"/>
  <unicode hex="0172"/>
  <outline>
    <contour>
      <point x="323.6" y="-209.1" type="curve" smooth="yes"/>
      <point x="352.82" y="-209.1"/>
      <point x="380.38" y="-202.8"/>
      <point x="404.32" y="-193.52" type="curve"/>
      <point x="413.3" y="-111.52" type="line"/>
      <point x="404.3" y="-114.18"/>
      <point x="383.72" y="-120.14"/>
      <point x="367.1" y="-120.14" type="curve" smooth="yes"/>
      <point x="348.4" y="-120.14"/>
      <point x="335.64" y="-114.8"/>
      <point x="335.64" y="-100.4" type="curve" smooth="yes"/>
      <point x="335.64" y="-81.34"/>
      <point x="356.66" y="-52.32"/>
      <point x="418.02" y="-9.32" type="curve"/>
      <point x="544.22" y="11.719999999999999"/>
      <point x="618.78" y="91.76"/>
      <point x="657.78" y="255.06" type="curve" smooth="yes"/>
      <point x="762.44" y="693.0" type="line"/>
      <point x="636.36" y="693.0" type="line"/>
      <point x="534.36" y="267.04" type="line" smooth="yes"/>
      <point x="505.92" y="151.58"/>
      <point x="461.76" y="94.82"/>
      <point x="367.14" y="94.82" type="curve" smooth="yes"/>
      <point x="278.94" y="94.82"/>
      <point x="252.52" y="140.32"/>
      <point x="252.52" y="201.5" type="curve" smooth="yes"/>
      <point x="252.52" y="226.2"/>
      <point x="256.2" y="253.24"/>
      <point x="263.2" y="279.94" type="curve" smooth="yes"/>
      <point x="362.22" y="693.0" type="line"/>
      <point x="236.14" y="693.0" type="line"/>
      <point x="140.76" y="293.78" type="line" smooth="yes"/>
      <point x="131.44" y="257.16"/>
      <point x="126.78" y="222.2"/>
      <point x="126.78" y="189.24" type="curve" smooth="yes"/>
      <point x="126.78" y="80.52"/>
      <point x="180.54" y="0.5"/>
      <point x="311.65999999999997" y="-12.04" type="curve"/>
      <point x="252.22" y="-50.28"/>
      <point x="224.14" y="-91.58"/>
      <point x="224.14" y="-131.24" type="curve" smooth="yes"/>
      <point x="224.14" y="-189.82"/>
      <point x="271.7" y="-209.1"/>
    </contour>
  </outline>
</glyph>
